<svg height="106" width="156" xmlns="http://www.w3.org/2000/svg"><g fill="none" fill-rule="evenodd"><path d="M0 0h156v106H0z"/><g fill-rule="nonzero"><path d="M36.435 84c-5.547 0-10.655-2.08-14.39-5.857C18.932 74.995 17 70.841 17 67.302c.007-5.967 4.839-10.802 10.8-10.809h.411a.69.69 0 00.71-.809 15.696 15.696 0 01-.192-2.544c-.012-5.17 2.553-10.124 7.437-14.414a.701.701 0 00.238-.518l.013-5.61v-.008a.681.681 0 00-.682-.683h-7.168a.69.69 0 01-.563-1.092l6.773-9.525a.689.689 0 01.561-.29h21.28a.69.69 0 01.568.297l3.928 5.671c.16.229.44.34.714.28 6.883-1.489 14.228-2.243 21.88-2.243h.3c14.257 0 27.72 2.685 37.908 7.56C132.93 37.834 139 45.143 139 53.148c0 8.04-6.07 15.373-17.091 20.66-10.19 4.882-23.655 7.57-37.937 7.57h-.221c-11.423 0-22.541-1.765-31.728-5.002a.69.69 0 00-.771.224C47.188 81.661 41.054 84 36.435 84z" fill="#fff"/><path d="M122.413 31.718c-10.328-4.956-23.96-7.685-38.384-7.685h-.3c-7.697 0-15.12.761-22.067 2.261l-3.903-5.654c-.276-.4-.731-.64-1.217-.64H35.186c-.48.001-.929.234-1.207.625l-6.8 9.588a1.493 1.493 0 00-.11 1.547c.256.496.766.807 1.321.805h7.095l-.014 5.5c-5.055 4.463-7.72 9.677-7.707 15.078a16.36 16.36 0 00.197 2.59h-.325C21.216 55.735 16.01 60.955 16 67.4c0 3.763 2.026 8.158 5.29 11.47C25.184 82.825 30.508 85 36.286 85c4.273 0 10.871-2.017 15.447-7.695 9.249 3.258 20.629 5.058 32.037 5.058h.222c14.441 0 28.083-2.733 38.41-7.698C133.753 69.208 140 61.568 140 53.155c0-8.382-6.246-15.992-17.587-21.437zm-.693 41.517c-10.12 4.863-23.517 7.543-37.728 7.543h-.222c-11.261 0-22.477-1.772-31.578-4.991a1.486 1.486 0 00-1.653.477c-4.219 5.278-10.317 7.151-14.253 7.151-5.354 0-10.281-2.01-13.873-5.658-2.983-3.027-4.834-6.996-4.834-10.357.006-5.568 4.502-10.08 10.049-10.088.128 0 .254 0 .38.009a1.47 1.47 0 001.171-.508c.291-.336.419-.784.347-1.224a15.228 15.228 0 01-.193-2.443c-.012-4.945 2.477-9.755 7.201-13.911.32-.282.505-.687.506-1.116l.015-5.653a1.48 1.48 0 00-1.475-1.483h-7.008l6.664-9.395h21.256l3.916 5.667c.341.494.944.733 1.53.606 6.855-1.49 14.181-2.243 21.792-2.243h.3c14.193 0 27.584 2.675 37.701 7.53 10.762 5.165 16.69 12.27 16.69 20.006 0 7.771-5.93 14.898-16.701 20.081z" fill="#000"/><path d="M34.743 62.184A21.978 21.978 0 0036.958 65c0-4.66.027-15.196.042-23-3.203 3.444-5.008 7.354-5 11.496 0 3.034.948 5.94 2.704 8.63z" fill="#000"/><path d="M54.31 25h-18.7l-2.781 3.828h2.615c2.862.015 3.391 1.535 3.38 4.25 0 0-.076 30.632-.076 33.996 0 6.158-7.07 10.804-12.999 7.998.22.02.442.03.66.03 3 .002 5.704-1.77 6.852-4.49s.515-5.85-1.604-7.931a7.514 7.514 0 00-8.08-1.579c-2.763 1.116-4.571 3.772-4.577 6.724C19 72.563 24.54 81 35.223 81c6.46 0 15.77-5.471 15.77-15.969l-.008-31.954c.046-3.265.486-4.235 3.6-4.25H57z" fill="#c10230"/><path d="M82.98 28.83c-11.195-.014-21.552 1.645-30.049 4.479V54.67c.815-.57 3.49-2.695 3.952-4.358.228-.825.044-4.019.301-5.136.374-1.614 4.404-.484 4.299 2.007-.05 1.316-2.155 14.178 1.988 14.463 4.566.315 3.658-12.346 3.72-14.455.062-2.16 4.427-.931 4.22 2.136-.337 5.005-.347 10.882 1.63 10.882 2.95 0 5.14-11.276 4.787-14.49-.208-1.908 3.38-1.228 4.105.024.912 1.578 1.192 3.048 2.366 5.4 2.366 4.738 3.647 7.265 1.398 10.802 1.984-.173 4.554-3.16 4.678-7.211.07-2.322 0-5.836-.106-9.15-1.421.034-2.75.042-3.721 0-1.048-.04-1.838-.04-1.86-1.054-.03-1.399 1.165-1.18 1.93-1.192l3.587.161c-.123-3.467-.257-6.335-.257-6.763 0-1.734 1.305-2.034 2.43-1.964 2.59.162 2.963 1.67 2.963 2.88 0 .065-.14 2.666-.253 6.072l3.587.161c.408.014 1.558.028 1.558.609 0 .612-.897.7-1.63.735 0 0-1.532.09-3.568.182-.119 4.197-.17 9.093.1 12.013.361 3.912 1.63 4.804 3.042 4.804 4.741 0 3.009-10.318 3.295-14.67.147-2.206 4.863-1.614 4.566 1.179-.223 2.166-.942 8.113.133 10.854 3.424 8.731 5.834-12.165 5.958-14.44.06-1.115 2.226-.807 2.977-.098 1.156 1.104.586 4.778.69 7.93 1.862-2.808 2.87-4.704 4.766-5.577 2.552-1.175 3.07 2.099 3.004 3.155-.327 5.112-.633 7.338.396 9.874.652 1.614 1.606 2.03 2.208 2.302.553.25.567 1.775-1.588 1.821-2.911.053-4.164-3.075-4.134-10.493 0-1.097-.788-1.241-1.517-.242-.6.823-2.85 4.123-2.658 8.414.08 1.776.665 2.484-1.305 2.484-3.478 0-3.343-5.739-3.2-7.664-.217 1.937-1.175 7.704-4.806 7.704-3.282 0-5.055-3.628-5.055-3.628s-1.497 3.64-4.787 3.64c-5.695 0-6.155-5.896-6.182-5.943-.219.808-1.735 5.923-8.596 5.923a8.849 8.849 0 01-5.248-1.679c-.72-.516.348-1.51 1.218-1.331 2.815.57 5.382-2.18 4.443-5.498-.894-3.126-1.814-3.79-3.169-7.317-.036.359-1.874 15.417-7.099 15.417-3.222 0-4.032-4.1-4.032-4.1s-.563 4.815-6.055 4.6c-1.813-.072-4.706-1.641-5.253-6.523-.15-1.338-.163-5.156-.163-5.156s-3.143 3.4-4.063 4.303v7.202A17.622 17.622 0 0151 72.834C59.818 76.08 70.91 78.008 82.961 78 111.696 78.027 135 67.008 135 53.373c.018-13.56-23.287-24.58-52.02-24.543zm20.857 14.007c-1.686 0-3.055-.943-3.055-2.1 0-1.155 1.369-2.098 3.055-2.098 1.686 0 3.056.94 3.056 2.099 0 1.158-1.368 2.098-3.056 2.098zm24.67-12.738c0-1.316 1.011-2.099 2.115-2.099s2.115.778 2.115 2.099c0 1.32-1.01 2.099-2.115 2.099s-2.115-.785-2.115-2.1zm2.115-1.603c-.83 0-1.486.646-1.486 1.598 0 .952.657 1.597 1.486 1.597.83 0 1.485-.646 1.485-1.597 0-.95-.673-1.598-1.485-1.598zm-.349 2.745h-.49v-2.293h.845c.585 0 .923.161.923.694.017.16-.036.318-.143.435s-.26.18-.416.174l.53.99h-.537l-.474-.942h-.238zm0-1.349h.427c.27 0 .347-.072.347-.305 0-.174-.1-.237-.432-.237h-.342z" fill="#000"/></g></g></svg>