<svg height="106" width="156" xmlns="http://www.w3.org/2000/svg"><g fill="none" fill-rule="evenodd"><path d="M0 0h156v106H0z"/><g fill-rule="nonzero"><path d="M30.758 17.198h94.576v71.604H30.758z" fill="#ed1c24"/><path d="M105.05 76.827c.978 0 3.421.326 3.421 3.259 0 2.85-2.525 3.258-3.42 3.258-.978 0-3.422-.326-3.422-3.258s2.444-3.259 3.421-3.259zm-7.576 0c.978 0 3.422.326 3.422 3.259 0 2.85-2.526 3.258-3.422 3.258-.977 0-3.421-.326-3.421-3.258s2.444-3.259 3.421-3.259zm20.284 0c2.2 0 2.77 1.222 2.77 1.955h-1.467c0-.244-.163-.896-1.466-.896-.57 0-1.222.163-1.222.733 0 .49.489.57.733.652l1.711.326c.978.244 1.874.57 1.874 1.63 0 1.873-2.2 2.036-2.852 2.036-2.606 0-3.095-1.304-3.095-2.037h1.548c0 .326.244.978 1.547.978.734 0 1.467-.163 1.467-.815 0-.489-.57-.57-1.304-.733l-.733-.163c-1.14-.244-2.28-.489-2.28-1.792 0-.652.407-1.874 2.769-1.874zm-3.177.163v1.06h-2.2v5.05h-1.466v-5.05h-2.2v-1.06zm-23.787 0c1.793 0 2.2.896 2.2 1.548 0 .896-.57 1.14-.896 1.222.896.244 1.14.896 1.14 1.466 0 .489-.244.978-.651 1.222-.408.326-.815.57-2.281.57h-3.014V76.99zm14.256.896c-.815 0-1.955.408-1.955 2.118s1.14 2.118 1.955 2.118 1.955-.407 1.955-2.118-1.14-2.118-1.955-2.118zm-7.576 0c-.814 0-1.955.408-1.955 2.118s1.14 2.118 1.955 2.118 1.955-.407 1.955-2.118-1.14-2.118-1.955-2.118zm-6.761 2.526h-1.874v1.629h1.792c.734 0 1.14-.245 1.14-.896 0-.57-.57-.733-1.058-.733zm-13.36-25.416s.326 2.688-2.525 4.643c0 0-2.444 1.466-3.503 1.548 0 0 1.548-4.4 1.71-6.924.082-2.037.164-3.259-1.384-3.422h-.02c-.183.008-1.526.186-2.587 3.747-1.222 3.83-4.236 11.812-5.539 15.722-1.385 3.91-1.955 4.318-2.118 4.562 0 0 1.059 1.63 3.747 1.06 0 0 1.385-.245 3.014-2.852v-.05c.005-.65.171-7.459 5.132-10.947 0 0 4.236-3.177 8.472-.244l-1.955 8.227v.06c.002.251.011 1.216.082 1.57.081.407.163.977 1.303-.57 1.303-1.793 3.096-6.029 3.258-6.518l1.63-5.946 4.887-1.467-.326 1.385s2.2-2.362 3.91-2.036c1.304.244 2.037 1.547 2.2 2.199 0 0 2.118-3.829 4.888-3.666 0 0 3.34.57 1.466 6.68l-1.303 4.073s-.57 2.281.977 1.385c.978-.57 1.466-1.955 1.71-2.525 0 0 .164-6.762 4.074-10.59 2.851-2.688 6.028-2.037 9.286-.326l-2.28 11.486s.162 1.63 1.14 1.222c.978-.489 1.385-1.71 1.385-1.71.814-2.037.244-3.992 1.63-4.4.488-.163 1.954.408.243 4.725-1.629 3.992-4.236 3.91-5.132 3.829-.896-.082-1.547-.57-3.095-1.793 0 0-1.792 2.281-3.421 2.444h-.065c-.378-.002-2.306-.097-3.112-1.71 0 0-3.259 4.317-5.784 4.154-2.607-.163-2.688-2.28-2.525-3.095.244-.815 1.873-7.006 1.873-7.006s.57-2.444-.896-.896c-1.548 1.63-1.71 2.607-1.71 2.607l-1.956 8.39-4.887.978 2.443-10.672s.734-2.362-.896-.488c-1.14 1.303-1.466 2.77-1.629 3.34l-2.118 8.227-4.725.978.57-2.444-.073.073c-.312.315-1.538 1.56-1.963 2.126-.652.815-3.584 3.34-4.969-.326 0 0-1.466 2.444-3.829 2.607 0 0-1.873.082-2.688-.977 0 0-2.036 3.176-4.969 2.77-2.851-.327-3.91-.815-4.643-1.06 0 0-3.014 2.933-4.155 3.503-1.71.896-7.25 2.607-7.739-2.037 0 0-.57-5.539 9.043-5.294 0 0 3.177-11.324 4.969-14.5 1.792-3.178 4.236-9.613 10.182-9.857 0 0 4.562-.408 5.295 6.028zM51.123 76.99c-2.362 2.037.244 3.177 1.63 2.281 1.14-.652 2.769-1.629 3.095-3.421l-.032-.004c-.32-.038-3.01-.31-4.693 1.144zm39.346 1.06h-1.711v1.303h1.792c.57 0 1.059-.163 1.059-.652s-.407-.652-1.14-.652zM74.828 64.69c-2.607 2.28-2.28 6.842-2.2 7.25.082.407.326 1.466 1.63.57.896-.652 1.303-2.037 1.303-2.037l1.06-5.05c.08-.57-.164-2.118-1.793-.733zm36.006-8.065c-2.607 2.28-2.281 6.273-2.2 6.68.082.407 1.06 1.71 1.874.896.815-.896 1.059-1.792 1.059-1.792l1.059-5.05c0-.571-.244-2.119-1.792-.734zM48.19 24.204c4.4-.815 5.377 1.547 4.644 7.25-.815 5.946-5.051 19.306-7.169 25.415-2.205 6.3-3.877 5.597-3.986 5.543-2.124-.166-2.45-4.076-1.96-6.113.57-2.036 4.968-12.3 4.968-12.3 1.874-4.236 4.97-14.745 5.214-15.885.326-1.467-.326-1.955-1.14-1.14-.326.407-10.59 10.345-12.057 11.078-1.547.815-1.466-.407-1.466-.407-.978-2.281.163-6.436 1.63-7.74 1.384-1.303 6.923-4.805 11.322-5.701zm10.938 9.836l.141.02c1.71.245 2.688 3.259 2.688 3.259 2.688-4.888 4.4-5.295 6.354-5.377 1.874-.081 2.607 2.526 2.607 2.526 4.888-6.436 7.82-1.793 7.25-.163-.244.733-1.14 5.458-1.466 6.272-.326.896.325.978.896.489 1.547-1.385 2.525-3.747 2.525-3.747l1.955-8.39 4.725-1.304s-2.607 11.079-2.607 11.486c-.081.407.244.407.489.326 1.466-.896 2.362-3.259 2.362-3.259l2.363-9.286 4.887-1.14-4.236 15.64s-.733 2.85-1.385 5.213c-.651 2.363-.325 5.458-.325 5.458l-3.422 3.096c-2.525-1.711-1.548-6.599-1.548-6.599l2.037-7.25c-1.222 1.467-3.258 3.503-4.399 3.34-1.222-.163-2.036-1.955-2.036-1.955-3.014 3.666-4.807 4.155-6.273 3.747-1.792-.488-1.059-3.421-1.059-3.421s1.385-5.62 1.466-6.191c.163-.57.082-1.548-.814-.896-.896.652-2.118 3.095-2.118 3.095l-1.955 8.39-5.295 1.304 3.014-12.545c-2.688 1.14-3.34 4.155-3.584 5.865-.652 5.295-3.503 9.043-7.25 9.043-3.91 0-4.725-6.354-2.119-12.138 2.165-4.803 5.06-5 5.98-4.928l.022.001.007.001h-.007l-.004-.002.008.001.01.002.018.002c.154.014.239.035.239.035l-.112-.016zm60.91 13.461c.571 0 1.223.245 1.63.652.407.489.652 1.06.652 1.63 0 .651-.245 1.221-.652 1.629-.407.407-.977.651-1.63.651s-1.221-.244-1.628-.651a2.275 2.275 0 01-.652-1.63c0-1.303.978-2.28 2.28-2.28zm0 .163c-.57 0-1.14.245-1.547.652-.326.407-.57.896-.57 1.466l.009.187c.046.491.272.918.561 1.28.407.407.978.651 1.548.651a2.103 2.103 0 002.118-2.118c0-.57-.163-1.059-.57-1.466s-.978-.652-1.548-.652zm.49.815c.244 0 .488.163.57.407 0 .082.081.245 0 .489s-.163.326-.326.407c.082 0 .244.082.244.326v.57c0 .163 0 .245.082.245v.081h-.57c-.082-.081-.082-.163-.082-.244v-.489c0-.163-.163-.244-.326-.244h-.57v.977h-.407V48.48zm-.163.489h-.733v.651h.733c.163 0 .326-.163.326-.407 0-.163-.082-.244-.326-.244zM56.499 37.97c-.977.163-1.222 1.711-1.466 2.526-.489 1.71-.57 2.932-.244 4.643.081.652.651 1.466 1.222 1.71.896.408 1.71-.407 2.036-1.221.57-1.385.326-3.096.326-4.97 0-1.058-.407-2.85-1.874-2.688zm49.04-16.129l2.607 7.983 9.205-.733-7.332 7.006 2.607 8.635-6.517-4.97-7.087 6.192 2.444-9.613-6.843-5.458 8.472-.896z" fill="#fff"/></g></g></svg>