<svg xmlns="http://www.w3.org/2000/svg"><path fill="currentColor" fill-rule="evenodd" d="m79.66 164.04-15.44-8.72-7.43-5.15-9.58-7.45-9.05-8.56-8.4-9.62-9.43-12.68-6.56-12.44L9 88.68 4.18 74.14l-2.77-15.3L0 47.15V30.88l.65-4.97 14.52-9.2 14.6-7.09 13.4-4.69 16.2-3.22 7.66-1L87.25 0l13.98 1.52 12.46 2.69 19.35 6.84 14.1 7.6L159.03 27l.65 13.77-1.3 14.76-2.55 13.76-5.07 18.75-11.12 22.62-14.22 19.21-11.72 11.58-17.05 12.97-10.17 5.99zm.16-8.15 9.57-5.23 9.94-6.8 10.92-9.11 10.95-10.41 7.33-9.95 6.8-10.11 4.75-9.7 4.69-12.27 4.5-13.62 1.7-10.6 1.83-14.42v-12.9l-5.65-3.63-10.34-5.97L126 15.99l-14.46-4.93L96.42 7.8l-10.25-.84H76.08l-12.01.84-13.72 2.25-10.63 3.32-10.86 4.36-12.26 6.14-9.39 6.2v18.92l1.9 12.72 2.39 11.24L14.72 83l4.4 12.06 5.82 10.37 6.05 9.52 6.83 8.2 6.74 7.74 8.57 7.82 8.26 6.3zM54.9 15.66 62 18.2l-1.48 3.98-1.7 5.56-1.6 6.35-1.15 5.34-.37 3.53-.4 3.22 4.52-1.42 6.82-.71h5.6l5.24 1.42 3.1 1.22 3.9-1.93 6.26-.71h6.03l4.73 1.42 3.05.7-.44-3.58-.7-5.64-1.91-5.77-2-6.82-2.73-6.16 7.34-2.99 2 3.9 3.59 8.63 3.52 10.17 1.43 6.14.42 4.44v3.27l5.98 4.25 3.9 3.6 5.18 5.3 5.5 6.58 2.99 4.03 1.79 2.34-5.36 4.8-3.21-3.06-3.83-4.08-3.05-3.12-3.9-3.22-4.61-4.27-1.8-.95-.65 2.65-.78 2.57-1.07 2.3-2.45 4.04-2.58 4.08-2.57 3.07-2.4 1.83-.65 3.52-.81 3.81-1.94 3.92-2.7 4.5-3.42 3.98-2.42 2.3 5.85 2.2 5.07 1.55 6 1.58 6.1 1.36 3.98.62-.76 7.02h-6.75l-5.15-.7-5.06-.98-3.44-.7-5.84-1.4-5.73-1.9-4.35-1.96-3.67 1.63-6.08 2.23-6.8 2.1-5.37.99-6.24.69-4.9.69-2.82.39-1.34-7.1 6.89-1.62 7.1-1.79 4.17-1.15 4.22-1.55 4.7-2.2-4.7-4.48-3.28-4.61-2.2-3.85-1.6-4.86-.33-4.23-2.98-3.04-3.89-4.62-3.06-5.36-.87-3.4-1.14-4.13-4.66 3.35-6.37 5.64-5.38 5.9-5.08 5.66-5.3-4.9 5.3-7.56 6.6-8.09L38.77 56l5.48-4.25 1.03-7.71 1.8-8.98 2.72-7.33 2.5-5.56zM67 55.73h-4.41l-4.24 1.11-2.5 1.29.73 4.78 1.77 3.58.88 2.38 2.2-4.86 1.16-2.7 2.02-2.72zm25.58-.05 3.94 5.15 2.18 4.14 1.74 4.03 1.8-4.03 1.25-2.63.91-3.8-2.15-1.3-3.76-1.03zm-12.73 4.33-3.72 3.01-3.1 3.77-1.93 3.7-1.35 3.48-.82 3.45 4.59 1.7 4.37.96h5l4.07-.95 3.7-1.7-1.1-4.49-2.6-5.23-3.1-4.69zM71.7 90.69l1.67 3.36 2.21 2.5 4.26 4.17L81.86 99l4.04-4.58 2.08-3.72-2.9.66-4.89.36-5.23-.36zm153.79-44.15h27.88l16.89 31.03 14.8 26.94 13.85 24.76h-25.14l-9.43-17.04h-49.71l-9.3 17.04H180zm13.85 21.2-13.82 24.93 27.64.2zM325 46l74.62 1 11.15 2.35 10.94 8 4.87 9.65v11.18l-1.82 9.19-4.05 5.7-6.89 5.29-3.05 1.77 9.61 13.47 10.7 15.05h-27.22l-19.28-25.92h-35.44v25.92H325zm24 20v17.58h37.59l10.13-1.2 3.74-2.8 3.48-3.98-1.24-5.55-5.99-4.05zm124-20h23.73v82.33H473zm94.61 0h26.79l45.78 82.17h-25.25L606 111.69h-49.34l-9.46 16.48H522zm13.9 21L567 92.78h28.05zM647 46h101.82v19.9h-39.01v62.7h-23.75V65.9H647zm122.08 4.07 2.49-2.85 2.8-1.22h3.45l3.03 1.22 2.21 2.4 1.13 2.72v2.72l-.33 2.89-1.29 2.11-2.24 1.63-1.83 1.05h-4.48l-.65-.29-1.47-.76-1.52-1.27-1.3-1.64-.67-1.39-.41-1.85v-2.07l.41-1.51zm6.04-2.06-2.23.85-1.5 1.17-1.05 1.8-.64 1.34v1.88l.28 1.7.93 1.72 1.25 1.15 1.58 1.12h3.4l2.02-.35 1.94-1.46 1.02-1.86.6-2.97-.36-2.27-1.26-1.8-1.5-1.17-1.18-.63-.9-.22zm-2.02 1.77 5.67-.22 1.16.88q.45.78.5 1.06t0 .86l-.12 1-.37.73-1.01.7-1.09.27 2.59 4.07-1.83.07-2.25-3.88h-1.43v3.81h-1.82zm1.68 1.16v2.81h3.16l.91-1.07-.3-1.28-.91-.46z"/></svg>