<svg xmlns="http://www.w3.org/2000/svg" viewBox="0 0 224 50"><g fill="currentColor"><path d="M20.9 15.1c-3.5 6.1-7.1 12.3-7.9 13.8-.9 1.4-3.2 5.4-5.3 8.9C5.7 41.3 4 44.5 4 45c0 1.5 17 .7 17.9-.8.7-1.1 1.5-1.1 4.5.2 2.5 1 6.8 1.5 13.9 1.4 5.6 0 10.5-.2 10.9-.4s-2.1-5.1-5.5-10.9c-3.3-5.7-6.3-10.2-6.6-9.9s-1 1.9-1.6 3.7c-.8 2.7-1.6 3.3-4.4 3.5-3.8.4-11.7-2.2-12.4-4.1-.2-.7.2-3.4 1-6 1.4-4.9 5.6-8.7 9.6-8.7 1.7 0 1.7-.3-.4-3.8-1.2-2-2.5-4-2.9-4.5-.3-.4-3.5 4.3-7.1 10.4m1.9 16.5c1.2.8 4.7 1.8 7.8 2.1 6.2.7 7 1.3 5.3 4.5-2.7 5.1-6.7 6-13.6 2.9-4.4-2-5.9-4.7-4.9-8.7.7-2.8 2.3-3 5.4-.8m44.3-13.7c-2.2.6-2.7 1.7-4.7 12.1-3.4 17.2-3.8 16 5.4 16 9.1 0 14.2-2 15.7-6.3.7-2.2.6-3.5-.7-5.7-1.5-2.7-1.5-2.9.3-4.2 2.8-1.9 3.5-6.9 1.2-9.6-1.5-1.8-3-2.3-8.3-2.6-3.6-.2-7.6-.1-8.9.3m10.5 7.3c.8 1.3-2.2 3.8-4.8 3.8-1.3 0-1.8-.8-1.8-2.5 0-2.1.5-2.5 2.9-2.5 1.7 0 3.3.5 3.7 1.2m-1.9 11.4c.7 1.9-1.3 3.4-4.4 3.4-1.8 0-2.3-.6-2.3-2.5 0-2.1.5-2.5 3-2.5 1.9 0 3.3.6 3.7 1.6m14.2-17.1c-.8 2-4.9 22.9-4.9 25.2 0 1 2.6 1.3 9.5 1.3 9.3 0 9.6-.1 10.5-2.6.6-1.4 1-2.7 1-2.9s-2.6-.5-5.7-.7c-5-.3-5.8-.6-5.8-2.3s.8-2 5.3-2.3c4.6-.3 5.4-.6 6.3-2.8 1.3-3.7.4-4.4-5.3-4.4-4.2 0-4.9-.3-4.4-1.6.3-.9.6-1.8.6-2s2.7-.4 6-.4c5.3 0 6-.2 6.2-2 0-1.1.1-2.6.2-3.2.1-.9-2.5-1.3-9.3-1.3-8.5-.1-9.4.1-10.2 2m23.3-1.2c-1.5 2.4-5.8 26.9-4.8 27.3.6.2 9.2.3 19.1.2l18-.3.3-3.2.3-3.3H141c-4.7 0-5-.1-4.6-2.3 2.7-12.5 3.5-18.2 2.7-19-1.2-1.2-6.8.1-7.4 1.6-.2.7-1.2 5.5-2.2 10.8l-1.7 9.6-5.1-.5c-2.9-.2-5.3-.6-5.5-.7-.1-.1.6-4.6 1.7-10.1 1.1-5.4 1.8-10.1 1.5-10.3-1-1-6.5-.8-7.2.2m43.1.3c-7.7 3.8-11.7 16.3-7.4 23.1 3.7 5.9 13.8 6.5 20.5 1.2 7.6-6 8.3-19.6 1.3-23.9-3.9-2.4-10-2.5-14.4-.4m10.5 10.2c.4 5.2-2 10-5.5 10.8-5.5 1.4-7.6-2.9-4.9-10.1 3-7.6 9.9-8.1 10.4-.7"/><path d="M176.9 19.1c-1.8 3.5-1.1 4.9 2.6 4.9 1.9 0 3.5.3 3.5.7 0 .5-.9 5-2 10.2s-2 9.8-2 10.3c0 .4 1.7.8 3.9.8h3.8l1.3-6.3c3.2-16.5 2.8-15.6 6.8-15.9 3.3-.3 3.7-.6 4-3.3l.3-3-10.6-.1c-9.1 0-10.8.2-11.6 1.7m22 12c-4 7.2-7.5 13.5-7.7 14s1.4.9 3.7.9c3.4 0 4.3-.5 5.8-3 1.5-2.7 2.3-3 6.5-3 4.6 0 4.9.2 5.5 3 .5 2.7.9 3 4.5 3s4-.2 3.5-2.2c-.3-1.3-1.3-7.6-2.3-14.1L216.6 18h-10.2zM211 30c0 3.6-.2 4-2.5 4-3 0-3 0-.8-4.5 2.2-4.6 3.3-4.4 3.3.5"/></g></svg>