<svg xmlns="http://www.w3.org/2000/svg" viewBox="0 0 828 474"><g fill="currentColor"><path d="M139.4 13.2c-3.3 5.1-13.9 21.8-23.5 37.1S96.8 80.6 94.8 83.8c-4.4 6.9-5.1 12.8-1.7 15.8 2 1.8 4.5 1.9 39.3 2.4l37.1.5.3 8.5c.2 4.7.1 9.4-.2 10.5s-3.3 4-6.6 6.4c-16.9 11.9-31.6 27.9-43.7 47.6-8.6 14-17.3 39.9-17.3 51.5 0 6.3-1.3 7-12.2 7-30.2 0-55.8 14.7-72.5 41.5C12 284 6 298.3 6 302.5c0 1.3-.4 2.7-1 3-1.4.8-1.4 40.2 0 41 .6.3 1 1.6 1 2.7 0 6.2 9.2 30.6 16.1 42.6 7.5 13.1 14 21.5 26.3 33.7 14.6 14.5 30.5 25 49.5 32.6 4.2 1.7 8.5 3.5 9.6 4 4.3 2 22.9 6.9 26.1 6.9 1.3 0 2.6.4 2.9 1 .8 1.4 54.2 1.4 55 0 .3-.5 2-1 3.6-1 4.7 0 25.7-5.6 33.4-8.9 29.7-12.8 51.8-30.9 67.9-55.8 2.5-4 5-7.4 5.5-7.7s3.3 0 6.2.8c3 .7 9.2 2.1 13.9 3 4.7 1 10.3 2.2 12.5 2.6 2.4.6 4.4.5 5.1-.1 1.4-1.1 3.8-15 2.7-16-.4-.4-4.8-1.5-9.8-2.4-4.9-.9-14.6-3-21.5-4.7-17.7-4.2-18.9-3.9-24.7 7.1-8.7 16.2-26.2 35.2-40.8 44.3-14.3 8.8-23.5 12.9-40 17.8-5.9 1.7-19.2 3.9-30.7 5-27.7 2.7-60.7-5.2-87.3-20.9C69.1 422.2 51.3 405 39.8 387c-4.8-7.7-11.2-21.3-13.3-28.5-.9-3.3-2.1-7.4-2.7-9-.5-1.7-1.5-7.9-2.3-13.9-1.3-9.6-1.3-12.1 0-20.5 3.8-25 17.7-45.6 37.6-56 12.3-6.3 17.7-7.4 37.4-7.3 12.2 0 17.5-.3 18.7-1.2 2.7-2 3.8-6.1 3.8-14.5 0-34 24.4-74.3 58.5-96.8 10.5-6.9 10.8-7.6 10.3-26.3-.3-14.2-.5-15.8-2.7-19.7-4.5-7.8-6.4-8.3-39.7-8.8-15.9-.2-29.1-.4-29.2-.5-.5 0 4.9-9.3 5.7-10 .3-.3 1.1-1.4 1.8-2.5 5.9-10.2 30.9-49.3 32.1-50.3 1.2-.9 19.6-1.2 84.2-1.2h82.7l2 2.2c2.2 2.4 7.5 10.6 24 36.8 5.4 8.5 11.4 17.3 13.3 19.4l3.7 3.9 10.9-1.3c36.4-4.1 62.2-5.3 100.9-4.7 18.2.3 37.7 1.1 43.5 1.7 26.1 2.7 38.9 4.1 44.5 5 35.4 5.8 46.7 8.2 78.5 16.9 38.3 10.4 83.7 31.2 110 50.4 25.4 18.6 44.3 42 50.6 62.7 2.3 7.5 4.4 21.5 3.9 25.6-3.1 25.5-10.9 41.8-29.5 61.7-27.9 29.9-81.8 58.2-140.5 73.9-2.2.6-6 1.6-8.5 2.4-2.5.7-8.1 2-12.5 2.9-4.4 1-9.1 2.4-10.4 3.2-2 1.3-2.2 2-1.7 5.5.4 2.2 1.3 5.6 2.1 7.5 1.4 3.3 1.7 3.5 5.2 3 2.1-.3 6.7-1.3 10.3-2.2s8.1-2 10-2.5c21.1-5.3 53.1-16.1 68.5-23 2.2-.9 6.5-2.8 9.5-4.1 13.3-5.7 33.6-16.9 46.2-25.6 27.1-18.7 46.5-38.9 57.1-59.8 4.8-9.4 8.7-19.7 8.7-23 0-1.4.5-2.5 1-2.5.6 0 1-7.3 1-20 0-11-.4-20-.9-20s-1.1-1.8-1.5-4c-.3-2.2-2.4-8.1-4.5-13-9.8-22.8-26.4-42.3-52.8-62.1-5-3.8-9.3-6.9-9.6-6.9s-3.2-1.8-6.5-4c-11.9-8-49.8-27-53.7-27-.8 0-1.6-.4-1.9-.9-.3-.4-2-1.1-3.7-1.5-5.2-1-2.5-1.9 5-1.7 11.1.4 17.4-3.2 21.7-12.4 7.1-15-3.8-32.4-20.3-32.5-6.6 0-11.7 2.3-16.8 7.5-10.2 10.5-8.1 25.2 5 35.1 1.9 1.4 1.9 1.5-1 1.1-1.6-.3-7.5-2.1-13-4-16.4-5.7-36-11.2-54.5-15.3-4.1-.9-9.1-2-11-2.4-10.4-2.4-46.6-8-65-10-16.7-1.8-58.9-4-78-4-18.1 0-38.1 1-63 3.1-6.9.6-15.7 1.3-19.6 1.6l-7.1.5-4.4-6.8c-2.4-3.8-4.6-7.3-4.8-7.8s-3.1-5.1-6.5-10.2c-3.3-5.1-9.7-15-14.1-21.9l-8-12.5H145.4zm565.1 45.1c7.7 5.2 10.4 11.9 7.8 19.6-.8 2.5-2.2 5.1-3 5.8-1.3 1-1.9.6-3.4-2.5-2.4-4.7-2.4-5 .6-7.8 2.9-2.7 3.2-5.5.8-9.4-1.8-3.1-4.6-4-12.5-4-8.4 0-8.8.5-8.8 12.3 0 7.4.4 10.9 1.4 12.3 2.3 3 5 .7 5.4-4.5.4-5.4 2.7-5.2 5.6.4 1.2 2.2 3.1 4.4 4.4 5 3.2 1.4 2.2 2.8-2.8 3.8-6.1 1.2-10.2.2-14.8-3.8-5.1-4.5-7-10.6-5.3-16.8 1.5-5.3 2.7-6.8 7.5-10.1 5.2-3.5 12.2-3.6 17.1-.3m-2.5 9c0 2.1-2.2 3.7-5 3.7-3.1 0-5.1-1.7-4.3-3.6.7-1.9 9.3-1.9 9.3-.1"/><path d="M171.4 41.8c-.6.4-2.8 3.2-4.9 6.2s-5.3 7.6-7.1 10.1c-5.7 7.9-5.6 7.9 11.9 7.9 18.1 0 22.1 1.3 25.3 7.6 1.8 3.8 1.9 7.7 1.9 141.4v137.5l-2.8 9.5c-2.7 9.1-6.9 18.6-10.2 23.3-3.4 4.9-10.8 11.6-14.8 13.5-11.2 5.3-32.3 6.5-46 2.8-12.1-3.3-25.3-11.6-31.8-20.1-1.3-1.7-3.2-3.9-4.1-4.9-3.4-3.7-2.4-4.5 5.1-3.9 16.2 1.4 31.9-5.7 42.7-19.1 17.1-21.4 13.2-54.5-8.3-70.7-28.8-21.8-67.8-9.2-79.4 25.6-2.1 6.2-1.8 28.3.5 37.5 2.4 9.6 10.2 26.1 17.4 37 6.7 10 23 26.8 32.2 33.2 20.2 14.1 41.2 20.7 69 21.5 18.5.6 29.1-.7 42.7-5.3 7.3-2.4 19.2-7.9 20.3-9.3.3-.3 2.3-1.8 4.5-3.2 19.3-12.5 34.5-36.5 42.8-67.3 2.1-8.1 2.1-8.8 2.7-141.6.4-73.4 1-134.7 1.4-136.2 2.1-7.1 7.4-8.9 25.9-8.8 7.3.1 14 .1 15 .1 3.7-.2 1.3-5-10.2-20.4l-3.5-4.7H241c-37.7 0-69 .4-69.6.8"/><path d="M433.2 96c-1.8.4-8.1.8-14 .9-11.1.1-26.7 1.4-38.7 3.3-3.8.6-10.1 1.4-14 1.8-8 .9-20.1 2.8-22.9 3.6-1 .3-4.1 1-7 1.4-2.8.4-8.2 1.6-12.1 2.5-3.8.9-8.8 2-11 2.5-9.7 1.9-21.1 5.4-22.2 6.8-1 1.2-1.3 15.4-1.3 63.1 0 35.3.4 62.2.9 63 .8 1.2 1.6 1 4.8-1.2 5.7-3.9 9.4-7.6 14.1-13.8l4.2-5.6v-16.5c0-14.7.2-16.7 1.8-18.1 3.2-2.9 6.3-2 14.2 4.1l7.5 5.8.6 27.4c.3 15.1.9 29.3 1.3 31.5 2.5 14 5.4 20.3 10.5 22.9 2.7 1.5 3.1 1.4 6.8-1.3 7.3-5.3 12.1-12.7 14.7-22.6.5-2.2 1.1-15.2 1.2-28.8s.4-25.1.8-25.4c1.1-1.2 7.8 1.8 15.9 7 8.5 5.4 9.7 6.9 9.7 12.1 0 1.9.4 5.6 1 8.3 2.5 12.5 3.2 16.2 4 20.8 1.1 6.9 4.8 16.2 7.2 18.5 1.6 1.5 2.5 1.7 4 .9 2.8-1.5 7.3-8.1 11.4-16.8 2-4.2 4-8.4 4.5-9.3 2.2-4.4 6.7-20 7.7-26.8.6-4.1 1.4-12.9 1.7-19.5.8-17.1 1.5-22.3 3.5-24.7 1.6-2.1 2-2.1 6.1-.9 9.2 2.9 16.6 7.1 19.3 11 3.9 5.5 4.6 9.2 4.5 22.4 0 6.5.5 14.2 1.2 17 1 4.6 6.3 17 10.5 24.9.8 1.4 1.4 3.5 1.4 4.5s.5 2.4 1.1 3 1.2 5.3 1.2 11c.2 8.6-.1 10.3-2.1 13.7-3.4 5.8-1.6 6.8 5.6 3.1 7.7-4 19-15.4 22.7-23l3-6-.2-28.7c-.1-25.3-.4-29-1.9-31.3l-1.7-2.6-16.8.3c-11.5.2-17.2-.1-17.9-.8-.6-.6-1-2.9-.8-5l.3-3.9 16.5-.5c13.8-.4 17.1-.8 19.4-2.3 2.7-1.8 2.7-1.9 2.5-12.5-.1-5.9-.6-14.5-1.1-19.2-2.3-21.6-1.8-26.5 2.9-27.6 4.5-1.2 19.6.2 23.1 2 5.3 2.8 5.7 4.8 4.4 21.4-1.8 22.2-1.6 33.5.6 36.2 2.7 3.3 8.7 3.8 31.8 2.4 7.6-.5 9.3-.3 10.7 1.1 1 .9 1.7 2 1.7 2.5 0 1.3-1 1.5-37.7 4.6-3.4.3-6.6 1.1-7.1 1.7-1.2 1.5-3.2 29.9-3.2 44.2.1 15.2 2 28.9 5 34.8 2.7 5.5 7.7 10.3 11.6 11.3 5.8 1.5 16.6-6.5 20.3-15 1-2.5 2.3-28.2 2.8-56.6.1-5.6 1.6-12.5 3.3-14.5 2.8-3.3 12.8-.6 19.3 5.3 3.3 3.1 3.4 5.5.6 18.8-1.7 8.4-2 12.6-1.7 28.4.4 20.2 1.6 25.5 6.2 28 2.1 1.1 2.8.9 5.6-1.1 3.6-2.7 10.8-13.3 13.4-19.9 3.2-7.9 4.1-10.7 7.6-24 .7-2.5 1.7-5.9 2.2-7.5 1.3-4.1 2.6-10.9 4.6-24.8 1-6.4 2.3-12.2 2.9-12.8 1.8-1.8 10.4.8 14.8 4.3 6.8 5.7 7.5 8.5 7.5 32 0 11.3.3 21.3.6 22.2.7 1.7 4.4 2.2 4.4.6 0-1.5 6.3-14.3 7.7-15.8.7-.7 1.3-1.7 1.3-2.1 0-1.5 8.1-11.5 10.7-13.3 4.2-2.7 12.4-2.5 15 .4 3.4 3.9 3.7 5.7 4.4 26.3 1 27 2.7 36.8 7.3 42.2 1.6 1.8 2.5 2.1 7.2 1.6 5.1-.5 5.4-.4 6.3 2.1 4.5 11.5-18.7 12.7-27.2 1.4-3.2-4.3-6.7-11.3-6.7-13.4 0-1-.5-3.1-1-4.8-.6-1.7-1.6-8.5-2.3-15-.8-7.2-1.7-12.1-2.4-12.3-3.1-1.1-11.9 24.3-12.9 37.2-1.2 16.1-3.2 17.3-21.9 13.3-2.7-.6-6-2-7.3-3.1-3.1-2.9-5.9-13.4-6.6-25.1-.5-9.1-1.5-12.6-3.7-12.6-.8 0-1.7 1.8-5.5 11-4.1 9.7-9.2 17.7-14.7 23.2-3.2 3.2-6.6 5.8-7.6 5.8-.9 0-2.1.4-2.7 1-1.8 1.8-13.6 1.7-17.6-.3-3.8-1.8-7.1-6.2-8.2-11-.4-1.8-1.3-2.7-2.6-2.7-1.1 0-2 .4-2 .9 0 1.3-6.9 8.4-10.5 10.7-4.3 2.7-21.4 2.7-26.5-.2q-13.8-7.65-17.1-19.8c-1.2-4.3-2.6-6.6-4-6.6-.5 0-.9.8-.9 1.7 0 3.8-8.9 15-16.6 20.8-10 7.7-19.5 10.5-35.1 10.5-16.4-.1-25.6-3.1-32.6-10.9-4.3-4.8-4.6-6.9-1.4-9.9 3-2.8 8.4-2.9 13.7-.1 3.5 1.8 4.4 2 7 .9 2.9-1.2 3-1.5 3-7.3 0-6.3-.5-8.6-4.7-20-1.4-3.7-2.7-8.7-2.9-11-.6-4.9-2.4-11.8-3.6-13.1-.9-1.2-3.4 4.4-4.3 9.9-.3 2.2-1 4.9-1.4 6-.5 1.1-1.6 4.7-2.6 8-2.1 7.1-2.2 7.5-7.6 19-8.5 18.2-16.5 25.5-28 25.5-9.7 0-16-5.6-21.9-19.5-3.5-8.2-4.8-8.1-8.9.4-4.9 10.3-10.5 17.3-18.1 22.1-5.9 3.8-16.9 5.1-21.7 2.7-5.6-2.9-14.1-16.5-18.8-30.2-2.1-6.2-2.5-9.1-2.5-18.9 0-9-.3-11.6-1.3-11.6-.8 0-6.2 4.9-12 11L290 261.9v45.3c0 24.9.4 45.8.8 46.5.7 1.2 13.1 4.8 26.2 7.7 4.1.9 9.1 2.1 11 2.6s7.8 1.6 13 2.5 11.5 2 14 2.6c5.6 1.1 18.4 2.7 31.5 3.9 5.5.5 13.6 1.3 18 1.9 4.4.5 19.8 1.5 34.3 2.2 20.9 1 31.5 1 52.5 0 14.4-.7 29.8-1.7 34.2-2.3a521 521 0 0 1 18-1.8c14.9-1.2 27.7-2.9 30.3-4 1.3-.6 3.7-1 5.5-1s7.5-.9 12.7-2 11.7-2.5 14.4-3c5.4-1.1 23.3-5.5 28.1-7 1.7-.5 5.7-1.7 9-2.6s6.5-2 7-2.4c.6-.4 2.4-1 4-1.3 1.7-.2 5.9-1.6 9.5-3s8.1-3.1 10-3.8c16.3-5.7 38.7-17.1 54.9-27.7 26.4-17.3 42.4-35.7 51.1-58.7 1.7-4.5 3-13.1 3-20 0-24-11.9-45.6-36.5-66.2-18.5-15.6-49.6-32.8-75-41.5-3.3-1.1-6.4-2.4-7-2.8-.5-.4-2.1-1-3.5-1.3s-5-1.4-8-2.5c-5-1.7-9.4-3-21.5-6.3-2.2-.6-6-1.8-8.4-2.5-2.5-.8-5.5-1.4-6.7-1.4-1.3 0-3.3-.4-4.6-.9-2.7-1-13.9-3.4-26.3-5.6-4.9-.9-11.2-2-13.8-2.5-2.7-.6-6.7-1-9-1s-6.2-.5-8.6-1.1c-6.3-1.4-20.9-2.9-40.6-4.1-22-1.3-76-1.8-80.3-.8m173.1 46.7c5.7 1.8 13.2 8.5 14.2 12.6.8 3.1-2.4 9.6-5.7 11.7-4.8 3-7.1 4-13.2 5.5-5.8 1.5-6.9 1.5-13.2 0-10.8-2.5-16.4-7.5-16.4-14.4 0-4.7 3.9-10.2 8.9-12.9 7.6-4.1 17.6-5.1 25.4-2.5m-429.1 32.8c-4.4 4.2-10.4 10.7-13.2 14.5-5.8 7.9-13 20.5-13 22.9 0 1-.4 2.1-.9 2.7-.6.5-1.8 5.5-2.7 11-1.6 8.9-1.6 11-.4 17.5 2.1 11.5 5.2 19.9 11.3 30.4 5.9 10 25.1 29.9 28.3 29.3 1.8-.3 1.9-2.5 1.9-67.8 0-61.3-.1-67.5-1.6-67.8-.9-.2-5.1 3-9.7 7.3m-17.4 128.1c-.4.3-.2 1.8.4 3.3 1.5 3.7 1.5 29.8 0 31.3-.7.7-1.2 2-1.2 3 0 2.8-4.7 11.8-9.3 17.8-5.1 6.5-12.9 12.8-21.4 17.1-3.5 1.7-6.3 3.4-6.3 3.8.1 3.7 8.6 6.1 22.2 6.1 10.5 0 12-.2 16.1-2.5 10.5-5.9 17.6-14.4 22.3-26.8 2.5-6.5 2.8-8.5 2.8-20l.1-12.8-3.5-3.2c-19.7-17.8-20.7-18.6-22.2-17.1M364.5 379c-.4.7-1.1 4.4-1.6 8.4-.5 3.9-1.9 14.1-3.2 22.6-1.5 9.3-2.1 16.2-1.6 17.2.6 1.2 2.8 1.8 7.6 2.3 3.8.3 9 1 11.6 1.6 10 1.9 16.2.1 19.7-5.8 2.1-3.5 2.8-13.7 1.1-14.7-2-1.3-1.8-4.6.5-7.7 3.3-4.5 3.3-11.1 0-15.4-3-3.9-8.4-6-19.6-7.5-4.7-.6-9.7-1.4-11.1-1.7-1.5-.3-3 0-3.4.7m23.7 12.1c2.8 1.5 3.4 5.6 1.2 8.1-1.6 1.7-2.7 1.9-7.5 1.4-8-.8-8.9-1.3-8.9-5.1 0-6.3.6-6.7 7.4-6 3.3.4 6.9 1.1 7.8 1.6m-1.9 20c2.3 1 2.7 1.7 2.7 4.9 0 2.2-.7 4.3-1.6 5.1-1.9 1.6-11.6 1.4-15.2-.3-2.4-1.2-2.7-1.8-2.3-5.8.1-2.5.7-5 1.2-5.6 1-1.2 10.4-.1 15.2 1.7m178.2-28.2c-9.1 2.2-14.1 8.7-13.2 16.9 1 8.8 5.5 11.7 20 12.8 6.1.4 8.4 1.1 10.4 2.8 5.4 4.6 0 10.6-9.5 10.6-3.7 0-7.5-2.3-8.4-5.2-.5-1.4-8.7-1.3-10.2.2-1.6 1.6 2 7.7 6.6 11.1 4.1 3 4.6 3.1 12.4 2.7 10.9-.6 17-3.5 20.1-9.8 2.8-5.6 2.8-8.5.4-13.6-2.6-5.3-6.7-7.2-17.6-7.9-10.6-.7-13.9-2-14.3-5.6-.4-3.9 3.8-6.9 9.6-6.9 3.8 0 4.9.5 7.8 3.5 1.8 1.9 3.9 3.3 4.6 3.1s2.5-.7 4.1-1c4-.9 3.6-4.7-1.1-9.4-4.9-4.9-12.8-6.4-21.7-4.3m-141.9 2.8c-3.6.6-11.9 8.7-14.2 13.9-1.2 2.7-1.8 6.6-1.8 12.9 0 9.6 1.4 13.6 7.1 19.6 5.9 6.4 22.5 7.7 30.4 2.4 7.9-5.1 12.2-18.2 10-29.6-2.5-12.6-9-18.5-21.2-19.3-4.1-.2-8.7-.2-10.3.1m13.4 10.1c6.9 3.4 9.5 11.3 7.4 22.2-.9 4.5-6.2 9.7-10.7 10.5-5 1-11.6-2.3-14.1-6.9-2.6-4.8-2.5-13.9.2-19.2 2.4-4.6 3.5-5.7 7.7-7.2 4.1-1.4 5.5-1.4 9.5.6m103-10.1c-3 .1-11.2.8-18.2 1.4l-12.8 1.1v3.8c0 4.6 1.3 5.3 9.1 4.4 5-.6 5.8-.4 6.2 1.2.3 1.1 1.1 10.3 1.8 20.6 1.4 20.6 1.1 19.9 8.2 19l3.8-.4-.8-14.7c-.4-8-.8-17.3-.8-20.6v-6l6-.5c5.4-.5 6-.7 6.9-3.3q1.05-2.85 0-4.5c-1.2-1.9-1.7-2-9.4-1.5m-64.1 2.2c-10.5 3.2-15.2 10.5-15.8 24.4-.7 18 7.6 27.7 23.7 27.7 5.9 0 7.5-.4 12.2-3.3 10.3-6.1 14.7-20.5 10.3-34-2.1-6.4-8.2-12.8-13.9-14.5-4.5-1.3-12.5-1.5-16.5-.3m14.2 10.4c4 2.6 7.9 9.7 7.9 14.3s-2.7 11.5-5.7 14.6c-2.3 2.4-3.5 2.8-8.4 2.8-6.6 0-10.1-2.2-12.4-7.7-2.8-6.8-1.3-18.3 2.9-22.1 4.8-4.4 10.9-5.1 15.7-1.9"/></g></svg>