<svg xmlns="http://www.w3.org/2000/svg" viewBox="0 0 156 106"><g fill="currentColor"><path d="M36.44 84a20 20 0 0 1-14.4-5.86C18.95 75 17 70.84 17 67.3a10.8 10.8 0 0 1 10.8-10.8h.41a.7.7 0 0 0 .71-.82 16 16 0 0 1-.2-2.54c0-5.17 2.56-10.12 7.45-14.41a.7.7 0 0 0 .23-.52l.02-5.61v-.01a.7.7 0 0 0-.69-.68h-7.16a.69.69 0 0 1-.57-1.1l6.78-9.52a.7.7 0 0 1 .56-.29h21.28a.7.7 0 0 1 .57.3l3.92 5.67a.7.7 0 0 0 .72.28A104 104 0 0 1 83.7 25h.3c14.25 0 27.72 2.68 37.9 7.56 11.04 5.27 17.1 12.58 17.1 20.59 0 8.04-6.07 15.37-17.1 20.66-10.18 4.88-23.65 7.57-37.93 7.57h-.22c-11.42 0-22.54-1.77-31.73-5a.7.7 0 0 0-.77.22C47.2 81.66 41.05 84 36.44 84"/><path d="M122.41 31.72c-10.32-4.96-23.96-7.69-38.38-7.69h-.3c-7.7 0-15.12.76-22.07 2.26l-3.9-5.65c-.28-.4-.73-.64-1.22-.64H35.2c-.48 0-.93.23-1.21.63l-6.8 9.58a1.5 1.5 0 0 0-.11 1.55c.25.5.76.8 1.32.8h7.1l-.02 5.5c-5.05 4.47-7.72 9.68-7.7 15.08a16 16 0 0 0 .2 2.6h-.33A11.66 11.66 0 0 0 16 67.4c0 3.76 2.03 8.16 5.29 11.47a20.8 20.8 0 0 0 15 6.13c4.27 0 10.87-2.02 15.44-7.7 9.25 3.26 20.63 5.06 32.04 5.06h.22c14.44 0 28.09-2.73 38.41-7.7 11.35-5.45 17.6-13.1 17.6-21.5s-6.25-16-17.59-21.44m-.69 41.52c-10.12 4.86-23.52 7.54-37.73 7.54h-.22c-11.26 0-22.48-1.77-31.58-5a1.5 1.5 0 0 0-1.65.48 19 19 0 0 1-14.25 7.16 19.3 19.3 0 0 1-13.88-5.66c-2.98-3.03-4.83-7-4.83-10.36A10.1 10.1 0 0 1 28 57.32a1.5 1.5 0 0 0 1.17-.5c.29-.34.42-.8.35-1.23a15 15 0 0 1-.2-2.44c0-4.95 2.48-9.76 7.2-13.91.32-.29.5-.7.51-1.12l.01-5.65a1.5 1.5 0 0 0-1.47-1.49h-7l6.66-9.4h21.25l3.92 5.68c.34.49.94.73 1.53.6a103 103 0 0 1 21.79-2.24h.3c14.2 0 27.58 2.67 37.7 7.53 10.76 5.16 16.7 12.27 16.7 20 0 7.78-5.94 14.9-16.71 20.09"/><path d="M34.74 62.18A22 22 0 0 0 36.96 65L37 42c-3.2 3.44-5 7.35-5 11.5 0 3.03.95 5.94 2.7 8.63z"/><path d="M54.31 25h-18.7l-2.78 3.83h2.61c2.87.01 3.4 1.53 3.38 4.25l-.07 34c0 6.15-7.07 10.8-13 8l.66.02c3 0 5.7-1.77 6.85-4.49s.52-5.85-1.6-7.93a7.5 7.5 0 0 0-8.08-1.58A7.3 7.3 0 0 0 19 67.83C19 72.56 24.54 81 35.22 81 41.68 81 51 75.53 51 65.03V33.08c.04-3.27.48-4.24 3.6-4.25H57z"/><path d="M82.98 28.83c-11.2-.01-21.55 1.65-30.05 4.48v21.36c.82-.57 3.5-2.7 3.95-4.36.23-.82.05-4.02.3-5.13.38-1.62 4.4-.49 4.3 2-.05 1.32-2.15 14.18 2 14.47 4.56.31 3.65-12.35 3.71-14.46.06-2.16 4.43-.93 4.22 2.14-.34 5-.35 10.88 1.63 10.88 2.95 0 5.14-11.28 4.79-14.5-.21-1.9 3.38-1.22 4.1.03.92 1.58 1.2 3.05 2.37 5.4 2.37 4.74 3.65 7.27 1.4 10.8 1.98-.17 4.55-3.15 4.68-7.2.07-2.33 0-5.84-.11-9.16-1.42.04-2.75.05-3.72 0-1.05-.04-1.84-.04-1.86-1.05-.03-1.4 1.16-1.18 1.93-1.2l3.59.17c-.13-3.47-.26-6.34-.26-6.76 0-1.74 1.3-2.04 2.43-1.97 2.59.16 2.96 1.67 2.96 2.88 0 .07-.14 2.67-.25 6.07l3.59.17c.4 0 1.55.02 1.55.6 0 .62-.9.7-1.63.74 0 0-1.53.09-3.56.18-.12 4.2-.17 9.1.1 12.01.36 3.92 1.63 4.8 3.04 4.8 4.74 0 3-10.31 3.3-14.66.14-2.2 4.86-1.62 4.56 1.18-.22 2.16-.94 8.11.13 10.85 3.43 8.73 5.84-12.16 5.96-14.44.06-1.11 2.23-.8 2.98-.1 1.15 1.1.58 4.78.69 7.93 1.86-2.8 2.87-4.7 4.76-5.57 2.55-1.18 3.07 2.1 3 3.15-.32 5.11-.63 7.34.4 9.88a3.8 3.8 0 0 0 2.21 2.3c.55.25.57 1.77-1.59 1.82-2.9.05-4.16-3.08-4.13-10.5 0-1.1-.79-1.24-1.52-.24-.6.83-2.85 4.13-2.66 8.42.08 1.77.67 2.48-1.3 2.48-3.48 0-3.34-5.74-3.2-7.66-.22 1.93-1.18 7.7-4.8 7.7-3.29 0-5.06-3.63-5.06-3.63s-1.5 3.64-4.79 3.64c-5.7 0-6.15-5.9-6.18-5.94-.22.8-1.74 5.92-8.6 5.92a9 9 0 0 1-5.25-1.68c-.72-.51.35-1.5 1.22-1.33 2.82.57 5.38-2.18 4.45-5.5-.9-3.12-1.82-3.78-3.17-7.31-.04.36-1.88 15.42-7.1 15.42-3.22 0-4.03-4.1-4.03-4.1s-.57 4.81-6.06 4.6c-1.81-.08-4.7-1.65-5.25-6.53-.15-1.34-.17-5.15-.17-5.15s-3.14 3.4-4.06 4.3v7.2A17.6 17.6 0 0 1 51 72.83c8.82 3.25 19.91 5.18 31.96 5.17C111.7 78.03 135 67 135 53.37c.02-13.56-23.29-24.58-52.02-24.54m20.86 14c-1.69 0-3.06-.94-3.06-2.1 0-1.15 1.37-2.1 3.06-2.1 1.68 0 3.05.95 3.05 2.1 0 1.17-1.36 2.1-3.05 2.1M128.5 30.1c0-1.32 1-2.1 2.11-2.1s2.12.78 2.12 2.1-1.01 2.1-2.12 2.1-2.11-.79-2.11-2.1m2.11-1.6c-.83 0-1.48.64-1.48 1.6 0 .95.65 1.6 1.48 1.6s1.49-.66 1.49-1.6c0-.96-.68-1.6-1.49-1.6m-.35 2.74h-.49v-2.3h.85c.58 0 .92.17.92.7q.03.25-.14.44c-.17.19-.26.18-.42.17l.53 1H131l-.48-.95h-.24zm0-1.35h.43c.27 0 .35-.07.35-.3 0-.18-.1-.24-.43-.24h-.35z"/></g></svg>