<svg xmlns="http://www.w3.org/2000/svg" viewBox="0 0 206 72"><g fill="currentColor"><path d="M7.3 6.1C5.5 7.3 4 8.9 4 9.8c0 1 1.5 5.7 3.3 10.6 5 13.8 2.7 13 40.3 13.6l31.4.5 3 3C84.4 40 85.2 42 86.4 49c3.1 17.3 2.6 16.3 8.1 18.3 5.7 2.1 14.2 2 18.9-.4 2.8-1.3 3.1-2.1 5.3-13.4 1.3-6.6 2.9-13.1 3.5-14.3 2.5-4.9 4.5-5.2 36.1-5.2 36.3 0 34.1.8 39.9-15 2.1-5.8 3.8-10.6 3.8-10.7 0-.5-8.2-4.4-8.5-4.1-.1.2-1.4 3.6-2.9 7.6-4.5 12.5-.6 11.2-32.9 11.2-16.3 0-29.8.4-31.9 1-4.5 1.3-9.3 5.2-11.4 9.3-.9 1.6-2.6 7.8-3.8 13.6l-2.2 10.6-3.7.3c-6 .5-7.1-.7-8.6-9.5-2.3-14.2-6.5-20.8-15-23.8C77.6 23.3 71.3 23 48 23c-21.8 0-29-.3-29.7-1.3-.6-.6-2.3-4.9-3.7-9.5C13.1 7.7 11.5 4 11.2 4 10.8 4 9 5 7.3 6.1m.6 34.3c-.2.2-.3 5.4-.1 11.5C8.1 62 8.3 63 10 63c1.5 0 1.9-.9 2.2-4.3.4-5.2 1.8-5.1 3.7.2 1.2 3.2 2 4.1 3.8 4.1 1.3 0 2.3-.2 2.3-.5 0-.2-1.4-3.4-3.2-6.9l-3.2-6.5 2.7-4c3.3-4.9 3.3-5.1.4-5.1-1.8 0-2.8 1.1-4.4 4.7l-2.1 4.8-.1-4.8c-.1-3.9-.4-4.7-1.9-4.7-1 0-2.1.2-2.3.4"/><path d="M25 40.2c-.1.2-.2 5.4-.3 11.6L24.5 63h5l-.2-11.2c-.2-10.6-.3-11.3-2.2-11.6-1.2-.2-2.1-.2-2.1 0m8 8.2c0 4.6-.3 9.8-.6 11.5-.6 2.7-.4 3.1 1.5 3.1s2.1-.6 2.2-7.3l.1-7.2 1.3 4.5c.7 2.5 1.6 5.8 2 7.5.7 2.7.8 2.8 1.6 1 .4-1.1 1.5-4.3 2.3-7l1.6-5-.5 6.7c-.4 6.7-.4 6.8 2 6.8H49V39.9l-2.7.3c-2.5.3-2.9.9-3.9 5.3-1.1 5.2-1.5 4.9-2.9-2.3-.6-2.7-1.1-3.2-3.6-3.2H33zm19 3.1V63h5.4c4.1 0 5.5-.4 6-1.6.9-2.3.3-2.6-2.8-1.5-2.6 1-2.6 1-2.6-3.4 0-3.8.3-4.5 2-4.5 1.1 0 2-.7 2-1.5s-.9-1.5-2-1.5c-1.6 0-2-.7-2-3.1 0-2.6.3-3 2.2-2.7 1.5.2 2.4-.3 2.6-1.5.3-1.4-.5-1.7-5.2-1.7H52zm15.2-10.3c-2.8 3.4-1.7 8.4 2.3 11 1.9 1.3 3.7 2.9 3.9 3.5.9 2.3-.5 4.3-3 4.3-1.7 0-2.5-.7-3-2.6s-.9-2.2-1.5-1.2c-1.3 2-1.1 3.5.7 5.2 2.1 2.1 7.7 2 9.6-.2 3.8-4.3 2.8-8.3-2.8-12-4.5-2.9-4.3-5.8.4-5.4 2.2.1 3.2-.2 3.2-1.2 0-2.6-7.8-3.7-9.8-1.4m59.6-.5c-.2.5-.2 5.6 0 11.5.3 10.5.4 10.8 2.6 10.8 1.9 0 2.2-.4 1.8-3-.2-1.6-.1-3.8.3-4.7.6-1.6.8-1.5 2 .7.8 1.4 1.4 3.5 1.5 4.7 0 1.9.6 2.3 2.9 2.3h3l-2.1-4.7c-1.6-3.7-1.8-5.1-.9-6.5 1.6-2.5 1.4-7-.5-9.6-1.2-1.7-2.5-2.2-5.9-2.2-2.4 0-4.5.3-4.7.7m6.7 6.8c0 2.2-.5 4-1.2 4.2-.9.3-1.3-.9-1.3-4.2s.4-4.5 1.3-4.3c.7.3 1.2 2.1 1.2 4.3m14.1-6.3c-.2.7-1.1 5.3-2.1 10.2-.9 4.9-1.9 9.5-2.2 10.3-.3.9.3 1.3 2.1 1.3 2.1 0 2.6-.5 2.6-2.6 0-3.3 3.3-3 3.8.4.3 1.7 1 2.2 3.2 2.2h2.8l-1.3-4.3c-.7-2.3-1.8-7.5-2.5-11.5-1.2-6.5-1.5-7.2-3.7-7.2-1.3 0-2.5.6-2.7 1.2m3.3 11.5c.1.7-.3 1.3-.9 1.3-.5 0-1-1.5-.9-3.3 0-2.7.2-2.9.9-1.2.5 1.1.9 2.6.9 3.2m10-12.5c0 .2-.3 5.4-.5 11.5-.4 10.7-.3 11.3 1.6 11.3 1.6 0 1.9-.8 2.2-5.2l.3-5.3 1.8 5.2c1.5 4.2 2.3 5.3 4 5.3 2.1 0 2.2-.5 2.4-11.5.2-10.9.2-11.5-1.7-11.5-1.7 0-2 .7-2 5.2l-.1 5.3-1.8-5c-1.3-3.7-2.3-5.1-3.9-5.3-1.2-.2-2.2-.2-2.3 0m16.2 2.4c-2.4 3-2.9 12.5-1 16.8 1.9 4.1 9.9 5.7 9.9 2 0-.7-.6-1.1-1.4-.8-2.8 1.1-4.6-2.5-4.6-9 0-6.7 1.5-9.4 4.5-8.2 1 .4 1.5-.1 1.5-1.4 0-3.2-6.3-2.7-8.9.6m10.9 8.9V63h2.5c2.4 0 2.5-.3 2.5-5.5 0-5.3.1-5.5 2.6-5.5 2.6 0 2.6.1 2.2 5.5-.5 5.4-.4 5.5 2.1 5.5h2.6l-.2-11.2c-.2-11.1-.3-11.3-2.5-11.3-2 0-2.3.4-2 3.7.3 3.5.1 3.8-2.2 3.8-2.4 0-2.6-.4-2.6-4s-.2-4-2.5-4H188z"/></g></svg>