<svg xmlns="http://www.w3.org/2000/svg" fill="none" viewBox="0 0 150 50"><path fill="currentColor" d="M142.95 19.44a7 7 0 0 0 1.3-2.2l5-13.8L143.29 0l-5.04 13.85q-.16.15-.47.31a7 7 0 0 1-3.24.58H96.1a13 13 0 0 0-3.74.43q-1.7.45-3.21 1.34a14 14 0 0 0-4.8 4.82 22 22 0 0 0-2.83 8.06L79.4 40.51a12.2 12.2 0 0 1-7.64.1q-.52-.15-1-.32l-1.84-10.01a22 22 0 0 0-2.88-8.36 15 15 0 0 0-9.02-6.74 16 16 0 0 0-4.9-.49H14.49a8 8 0 0 1-2.85-.45l-.11-.04a3 3 0 0 1-.82-.48L6.03.25 0 3.56 4.75 17.2l.03.09c.11.32.47 1.16 1.24 2.04.6.69 1.65 1.66 3.34 2.35q2.18.9 5.13.9h38.52a10.5 10.5 0 0 1 4.41 1.02 8 8 0 0 1 3 2.6q1.13 1.61 1.68 3.96l3.07 16.61 2.04.55q.38.1 1.11.37c.75.26 1.78.62 2.98.9a18 18 0 0 0 12.14-1.35l1.64-.76 2.67-14.1h.06l.12-.85q.43-3.09 1.53-5.09.65-1.19 1.53-2.02a7 7 0 0 1 2.54-1.46c.99-.3 1.83-.32 2.15-.32h38.91q2.41 0 4.32-.6a8.7 8.7 0 0 0 4.04-2.6M13.2 43.12l-1.8-3.87q-1.25-2.54-2.22-4.73 2.91-6.2 4.67-6.83h-3.64q-.7-.03-1.03 0 .02.11.12.24.1.11.11.22 0 1.32-3.11 7.16 0-3.49.07-5.33.02-1.12.11-1.57.06-.22.3-.72h-3.9q.34.54.43 1.13.07.32.1 1.26.07 2.3.07 3.85v7.73q0 2.1-.36 3.02h3.5a6 6 0 0 1-.32-2.3l.07-3.33 1.23-2.14q.75 1.46 1.6 3.62 1.04 2.62 1.03 3.47 0 .24-.1.32l-.43.36h4.54q-.37-.17-1.04-1.56m5.94-5.44v-3.67q0-3.71.12-4.99.22-1.04.36-1.33H16.7a7 7 0 0 0-.96 0q.41 1.08.42 2.63l.03 7.24q0 2.58-.02 3.96-.05 2.25-.35 3.17h3.88a10 10 0 0 1-.5-3.2q-.06-1.55-.06-3.8"/><path fill="currentColor" d="m33.98 37.66-.04-2.99.04-3.98q.01-2.1.35-3h-4.18q-.5 3.08-1.9 8.84a239 239 0 0 1-1.72-8.84h-3.31a10 10 0 0 0-1.14 0q.32.68.36 1.14.07.6.03 2.44l-.07 3.08q-.17 6.96-.4 8.88-.14.83-.38 1.46h2.44q.26-.03.58 0-.16-.59-.21-1.24-.02-.3-.03-6.01v-.96q0-2.48.15-4.77.79 3.27 1.25 4.81l.82 3.8q.88 3.7 1.06 4.36h.46q.2-1.72 1.06-5.07l.6-2.41q.9-3.91 1.14-5.31l.06 2.48q.12 6.37-.12 9-.07.7-.24 1.31h3.83q-.3-.82-.39-2.92a99 99 0 0 1-.1-4.1m7.56 5.53q-.48.07-.63.07-.41 0-.48-.4-.02-.2-.02-1.72l.05-4.9h1.64q1.3 0 1.78.38v-2.77q-.45.26-.89.31-.3.05-1.4.06h-1.16v-4.7q1.45-.03 2.59.03.7.05.88.14.2.08.51.57l.17-1.31q.16-1.2.12-1.23h-8.3q.28.6.34.87.1.49.15 1.7l.03 3.56v4.3q0 3.6-.08 4.92a4 4 0 0 1-.39 1.62q.93-.03 2.32 0h5.94q.37-2.13.5-3.24a6 6 0 0 1-1.63 1.33 10 10 0 0 1-2.03.41zm11.77-8.29q-1.2-.67-2.39-1.37a2.6 2.6 0 0 1-1.12-2.17q0-1.14.69-1.74.59-.51 1.38-.48 1.02.05 1.74.5l.94.9.7-2.64q-.28.34-.58.34-.22 0-1.24-.47a5 5 0 0 0-1.96-.5q-3.46-.09-4.5 3.02a4.7 4.7 0 0 0-.12 2.56 4.5 4.5 0 0 0 2.2 2.95l2.48 1.51Q53 38.57 53 40.12q0 1.4-.84 2.13-.83.73-2.3.64-.75-.04-1.42-.81a2.5 2.5 0 0 1-.6-2.33q.18-.24.19-.4 0-.25-.25-.25-.39 0-.73.5-.42.64-.45 1.72.15 1.66 1.35 2.65 1.08.9 2.66.9 2.74 0 4.22-1.55a5.5 5.5 0 0 0 1.37-3.98q0-2.7-2.9-4.45zm48.15.7q.63-1.33.63-3.13 0-1.59-.87-2.97a3.4 3.4 0 0 0-2.92-1.76h-5.64q.4.64.45 1.83.05 2.75.05 4.32l.06 4q.01 3.03-.04 4.76a8 8 0 0 1-.3 2.1h3.64q-.46-1.11-.44-4.13l.03-2.43.47.03 1.2-.18q1.94 4.77 1.94 5.91 0 .6-.31.8h4.1q-1.47-2.32-3.43-7.58a4 4 0 0 0 1.38-1.57m-3.33.15q-.67 1.13-1.37 1.13-.43 0-.65-.04v-7.7q.53-.12.88-.13.93 0 1.48 1.48.44 1.19.43 2.34.01 1.65-.77 2.92m16.2 2.12-.65-3.43q-.08-.3-.7-3.28-.31-1.45-.31-2.05-.01-1.06.94-1.4h-5.53q.68.24.68 1.2 0 .63-1 5.36l-.67 3.24a92 92 0 0 1-1.23 5.5q-.39 1.37-1.03 1.75h3q.7-.05.95 0-.36-.34-.36-1.23 0-.8.31-2.4h3.16q.28 2.42.3 3.11l-.32.52a7 7 0 0 1 1.58-.08l1.06.08h2.06q-1.03-.52-2.25-6.89m-5.17.07 1.1-6.6 1.15 6.6zM127.16 35q.06-4.8.26-6.32.16-.7.26-.92h-2.08a6 6 0 0 0-.89 0q.33.72.4 2.27.11 2.77.08 5.31l-.02 2.17-2.44-7.15a48 48 0 0 1-.84-2.6h-3.77q.38 1 .44 2.73.07 1.58.04 4.32l-.02 2.12-.06 5.27-.05 1.82q-.02.5-.3.73h2.8a8 8 0 0 1-.31-2.08q-.1-2.4-.07-4.88l.06-3.45 1.27 3.42q.84 2.23 1.28 3.5.2.6 1.08 3.49h3.16q-.28-.7-.3-2.23-.03-1.61 0-4.08l.04-3.44zm8.26-5.63q1.06 0 1.57.9.48-1.72.7-2.44a8 8 0 0 0-2.41-.38q-3.45 0-4.96 2.46-1.17 1.97-1.17 5.78 0 4.24.79 6a5 5 0 0 0 3.28 2.98q.87.27 1.86.27 1.14 0 2.1-.27.2-1.34.36-2a2.2 2.2 0 0 1-1.51.53q-2.16-.04-2.97-2.44-.6-1.77-.6-5.38 0-2 .51-3.62.78-2.4 2.45-2.39m14.1 4.13q0-3.23.14-4.59.22-.91.34-1.15h-3.93q.29.95.31 2.22.03 1.37 0 3.66h-3.76v-3.23q0-1.65.28-2.65h-3.84q.31.9.37 2.08.05.75.05 3.71v8.56q0 1.55-.42 2.66h3.89a11 11 0 0 1-.36-3.35l.03-5.55h3.76v6.04q0 1.72-.39 2.86h3.95q-.42-.72-.42-6.67z"/></svg>