<svg xmlns="http://www.w3.org/2000/svg" viewBox="0 0 200 123"><g fill="currentColor"><path d="M24.7 6.3c-.9 1.4-2.5 7-3.7 12.5-1.1 5.6-3.4 14-5.1 18.9C13.2 45.4 4.5 64 .9 69.8c-1 1.6-1 2.3 0 3.6.8.9 1.9 1.6 2.7 1.6.7 0 4.1-5 7.5-11.1 3.4-6 6.3-10.8 6.5-10.6s-.2 6-1 12.8c-2.3 19.7.4 19.2 11.2-2 3.9-7.9 7.2-13.6 7.2-12.7 0 3.5-3.3 24.9-6 39-1.7 8.3-3 16.7-3 18.7 0 4.5 2.7 11.2 4.3 10.6.6-.2 1.9-5.2 2.9-11.3 1-6 3.1-17.9 4.8-26.4 5.5-29 7.1-40.5 7.7-56.2.9-24.2-.3-24.6-7.8-2.2C33.3 37.5 31 42.5 31 39c0-4-3.3-32.7-4-33.8-.5-1-1.1-.7-2.3 1.1m146.1 9.2c-2.3 3.7-3.3 4.5-5.7 4.5-4.3 0-16.7 4.5-21.3 7.7-5.7 3.9-7.4 6.7-6 9.8 2 4.4 6.5 3 7.6-2.2.4-1.8 1.7-4.4 2.8-5.8 2.3-2.9 9.6-6.9 14.7-8 3.8-.8 3.8-1.2.6 7.5-4 10.7-.3 20.4 13.3 35 8.8 9.6 12.2 16.5 12.9 26.8.7 9.1 2.4 8.2 3.1-1.7s-1.9-14.9-14.4-27.1c-5.3-5.2-10.5-11.2-11.5-13.2-3.4-6.7-2.1-18.2 2.9-24.1 2.2-2.5 4.7-2.1 9.7 1.3 4.7 3.2 5.5 3.5 5.5 2 0-1.7-4-4.7-8.1-5.9l-4.1-1.3.6-4.9c.4-2.7.5-4.9.4-4.9-.2 0-1.5 2-3 4.5m16.2 18c0 1.4 3.1 7.7 4.4 9 2.6 2.7 2.5 1.6-.6-4-2.7-5-3.8-6.4-3.8-5"/><path d="M170.1 44.6c-.1 5.9 2.8 9.4 7.7 9.3 2-.1 4.8-.4 6.2-.8 2.2-.6 1.9-.8-1.9-1.3-5.5-.8-9.1-3.4-10.7-7.9l-1.2-3.4zm-23.5.5c-2.6 1.4-3.5 2.4-2.8 3.1 1.5 1.5 10.6-1.3 11-3.5.5-2.4-3.2-2.2-8.2.4m-89.1 5.8C45.9 56.1 42.2 71 51.4 75.4c4.3 2 5.2 2 10.1-.3 5.6-2.6 9.8-7 8.4-8.7-1.6-2-2.4-1.8-6.2 1.6-3.8 3.3-7.7 3.9-9.7 1.5-1-1.2-1-1.5.1-1.5 1.9 0 10.1-6.6 11.6-9.3 1.9-3.4 1.6-7.5-.6-8.7-2.6-1.3-2.9-1.3-7.6.9m3.5 4.7c0 1.7-2.4 4.6-5.1 5.9l-3 1.6 1.5-3c1.8-3.4 6.6-6.8 6.6-4.5"/><path d="M78.3 51.6c-5.5 2.8-5.1 8 1.1 12.8 4.1 3.1 4.5 5 1.6 6.6-1.5.8-3 .8-5.5-.2-3-1-3.7-1-5.1.4-.9.9-1.3 2.1-1 2.7 1 1.6 7.5 3.1 10.8 2.4 3.8-.8 8.8-5.8 8.8-8.9 0-2.3-1.1-3.6-7.2-8.9-2.5-2.2-1.7-2.9 3.1-2.7 5.8.3 9.6-3.9 4.9-5.2-3.9-1-8.2-.6-11.5 1"/><path d="M101.5 52.8c-10.8 6.7-13.8 21.1-4.7 22 1.9.2 4.4-.4 5.7-1.2 3.2-2.1 3.5-2 3.2.5-.3 2.7 1.6 3.5 3.6 1.5 1.5-1.6 5.1-19.2 4.5-22.3-.5-2.7-8.3-2.9-12.3-.5m7.5 4.1c0 3.9-6.8 13.1-9.6 13.1-3.9 0-1.7-8 3.2-11.9 2.7-2.2 6.4-2.8 6.4-1.2m12.5-2.3c-7.8 8.5-6.7 22.4 1.8 22.4 5.8 0 13-5.1 11.2-8-.9-1.5-2.3-1.2-5.4 1.1-5.8 4.3-9.5-.1-6.6-7.7 1.7-4.6 2.4-5.1 4.2-3.3.6.6 2.3.9 3.9.7 3.5-.4 4.2-2.9 2-6.3-2.5-3.8-7-3.4-11.1 1.1"/><path d="M143 54.7c-8.1 7.7-7.8 19.8.6 21.9 4.5 1.1 16.4-5.8 16.4-9.6 0-2.3-3.1-2.7-5.2-.7-2.8 2.7-6.3 4.7-8.5 4.7-3.6 0-2.6-2.3 2.2-5.2 8.7-5.2 9.9-14.8 2-14.8-2.8 0-4.5.9-7.5 3.7m7 2.5c0 1.9-1.2 3.4-3.7 4.7-2.9 1.5-2.9.2-.2-3.3 2.2-2.8 3.9-3.4 3.9-1.4m46.9-3.6c-.9 1.1-2.3 1.4-4.8 1l-3.6-.6 2.4 2c3.9 3.4 9.1 2.1 9.1-2.2 0-2.2-1.3-2.3-3.1-.2m-23.4 30.3c-.3.6.1 1.1.9 1.1 1.9 0 2 1.5.5 5.9-1.1 3.2-3.6 4.2-4.5 1.8-.3-.8 0-2.6.6-4.1.5-1.5.6-2.5.1-2.1-1.6.9-2.4 6.5-1.1 8 2.5 3.1 7.6-3.3 6.8-8.6-.3-2.5-2.2-3.6-3.3-2m-21 1.1c.3.5-.3 3-1.4 5.5s-1.6 4.5-1.2 4.5c.8 0 1.7-1.9 4.8-9.8.3-.6-.2-1.2-1.2-1.2-.9 0-1.3.4-1 1m7.3-.2c.7.5 1 1.6.6 2.5-.9 2.4-2.4 2.1-2.4-.6-.1-2-.2-2-1.1-.4-1.2 2-.4 3.7 1.6 3.7.9 0 1.2.6.9 1.5-1.1 2.7.5 1.6 2.1-1.6 1.9-3.5 1.4-5.9-1.2-5.9-1.3 0-1.5.2-.5.8m6.5-.2c.3.3-.3 2.6-1.4 5.1s-1.7 4.8-1.4 5.1c.7.7.8.5 3.3-5.6 1.8-4.6 1.9-5.2.5-5.2-.9 0-1.4.3-1 .6"/></g></svg>