<svg xmlns="http://www.w3.org/2000/svg" viewBox="0 0 150 156"><g fill="currentColor"><path d="M39.3 6c-6.8 4.1-6.8 4.1-7.1 48.7-.2 22.1.1 41.6.5 43.3.8 2.9 2.5 4.1 21.5 13.7l20.6 10.5 20.4-9.7c11.1-5.4 20.9-10.2 21.6-10.8.9-.7 1.2-10.6 1.2-43.6 0-39.3-.2-42.9-1.9-46.7-3.3-7.2-4.2-7.4-41.3-7.4-30.3 0-32.5.1-35.5 2m70.4 3.6c5.3 3.9 5.3 3.8 5.3 48.4l-.1 41.5-18.5 9c-10.2 4.9-19.5 9.2-20.7 9.3-1.1.2-10.4-3.9-21.4-9.5L35 98.5v-40c0-36.7.2-40.3 1.9-44.1 3.3-7.3 4.2-7.4 39.3-7.1 29.4.2 30.8.3 33.5 2.3"/><path d="M40 90v3h69.8l.4-2.5c.3-1.3.3-2.7 0-3S94 87 74.8 87H40zm1.4 5.1c-.2.4 7.3 4.6 16.6 9.3l17 8.7 17-8.7c9.4-4.8 17-9 17-9.3 0-.8-67.1-.8-67.6 0M76 99.6c0 .9 1 1.4 2.8 1.4 2.5.1 2.6.1.8 1.5-1.3 1-1.7 2.1-1.2 4 .7 2.6.6 2.6-1.6 1.1-2-1.4-2.4-1.4-4.2.2s-1.9 1.6-1.3-.8c.4-1.6.1-3.1-1-4.2-1.5-1.7-1.5-1.8.6-1.8 1.4 0 2.5-.7 2.8-2 .6-2.2 2.3-1.8 2.3.6m-38.3 47c-1.1 1.1-.8 6.4.3 6.4.6 0 1-.5 1-1 0-.6.7-1 1.6-1 1 0 1.4-.7 1.2-2.2-.3-2.3-2.7-3.5-4.1-2.2m6 0c-1 1.1-.9 6.4.2 6.4.5 0 1.2-.6 1.4-1.3q.6-1.35.6 0c.1.7.6 1.3 1.2 1.3 1.7 0 .6-6.4-1.1-6.8-.9-.1-1.9 0-2.3.4m6 .1c-.4.3-.7 1.9-.7 3.5 0 2.4.4 2.8 2.8 2.7 1.9-.1 2.1-.3.8-.6-1-.3-1.4-.8-.9-1.2.6-.3 1.3-1.6 1.7-2.9.6-1.7.3-2.2-1.2-2.2-1 0-2.2.3-2.5.7m5.3 2.8c0 3.7.5 4.1 3 2.5.9-.6 1.7-.5 2.2.3.4.7.8-.6.8-2.8-.1-3.5-.2-3.8-1.4-2.3-1.6 2.2-2.6 2.3-2.6.3 0-.8-.4-1.5-1-1.5-.5 0-1 1.6-1 3.5m8-.1c0 2 .5 3.6 1 3.6.6 0 1-1.3 1-2.9 0-1.7-.4-3.3-1-3.6-.6-.4-1 .8-1 2.9m3.3-.4c.2 2.8.6 3.6 2.5 3.8 2 .3 2.2-.1 2.1-3.5-.1-3.6-.2-3.7-.8-.8-.3 1.6-1.1 3-1.6 3s-1.3-1.4-1.7-3c-.6-2.9-.6-2.9-.5.5m6.7.5c0 2.2.4 3.5.8 2.8.5-.8 1.3-.9 2.2-.3 2.5 1.6 3 1.2 3-2.5 0-1.9-.4-3.5-1-3.5-.5 0-1 .7-1 1.5 0 2-1 1.9-2.6-.3-1.2-1.5-1.3-1.2-1.4 2.3m10-.1c0 3.2.3 3.6 2.6 3.6s2.5-.3 2.2-3.3c-.2-2.4-.8-3.3-2.5-3.5-2-.3-2.3.1-2.3 3.2m7-1.9c-1.6 1.9-.9 4.9 1.4 5.3 2.6.5 4-1.2 3.2-4.2-.7-2.9-2.7-3.4-4.6-1.1m3.1 2.8c-.1 1.2-1.5.9-1.9-.4-.3-.6.1-1 .8-.8.6.3 1.1.8 1.1 1.2m3.9-2.8c-1.9 2.3-.8 5 2 5 1.6 0 2.6-.6 2.8-1.8.4-1.8-1.4-4.7-2.8-4.7-.4 0-1.3.7-2 1.5m3 3c0 .8-.4 1.5-1 1.5-.5 0-1-.7-1-1.5s.5-1.5 1-1.5c.6 0 1 .7 1 1.5m3.4-2.9c.3.9.6 2.4.6 3.5 0 1 .5 1.9 1 1.9.6 0 1-1.1 1-2.5s.5-2.5 1-2.5c.6 0 1-.5 1-1 0-.6-1.2-1-2.6-1-2 0-2.5.4-2 1.6m6.2-.4c-1.5 4.9-1.4 5.8.8 5.8 3.3 0 3.8-1.1 1.9-3.3-1-1.1-1.2-1.7-.5-1.3s1.2.1 1.2-.8c0-1.9-2.9-2.2-3.4-.4M5.4 148.3c-1.4 1.6-.4 4.2 1.6 4.2 2.1 0 3-2.7 1.4-4.2-1.5-1.6-1.6-1.6-3 0m9 .1c-1.3 1.4-.7 3.6 1.1 3.6s2.5-2.3 1.1-3.6c-.8-.8-1.5-.8-2.2 0m8.4 0c-1.8 1.3-1.2 2.9 1.4 3.9 2 .7 3-2.3 1.3-3.9-.8-.8-1.6-.8-2.7 0m8.6 0c-1.3 1.4-.7 3.6 1.1 3.6s2.5-2.3 1.1-3.6c-.8-.8-1.5-.8-2.2 0m86-.1c-1.4 1.6-.4 4.2 1.6 4.2 2.1 0 3-2.7 1.4-4.2-1.5-1.6-1.6-1.6-3 0m9 .1c-1.3 1.4-.7 3.6 1.1 3.6s2.5-2.3 1.1-3.6c-.8-.8-1.5-.8-2.2 0m8.4 0c-1.8 1.3-1.2 2.9 1.4 3.9 2 .7 3-2.3 1.3-3.9-.8-.8-1.6-.8-2.7 0m8.6 0c-1.3 1.4-.7 3.6 1.1 3.6s2.5-2.3 1.1-3.6c-.8-.8-1.5-.8-2.2 0"/></g></svg>