<svg xmlns="http://www.w3.org/2000/svg" viewBox="0 0 188 122"><g fill="currentColor"><path d="M47.7 6.7c-4.3 8.1-.1 18.9 9 23.1 2.7 1.2 8.9 3.1 13.8 4.3 5 1.1 11.4 3.4 14.4 5l5.4 2.9 6.1-3c3.4-1.7 10.8-4.1 16.5-5.5 11.6-2.8 15.4-4.8 19.1-9.7 2.1-2.7 2.5-4.4 2.5-10 0-5.1-.4-7.2-1.7-8.5-1.7-1.6-1.8-1.6-1.8 1.7 0 4.3-3.4 11.3-7 14.3-1.7 1.4-7 3.5-13.1 5.2-5.7 1.6-12.6 3.8-15.4 5l-5 2.1-4.5-1.9c-2.4-1.1-8.4-3-13.2-4.3-10.7-2.9-15.6-5.3-18.4-9.1-2.1-2.9-4-7.9-4.6-12.3-.4-2.5-.4-2.5-2.1.7"/><path d="M54 36.8c0 2.1 6.2 6.4 10.9 7.7 9.1 2.4 11.2 4.7 14 15.3 1 3.4 1.9 4.6 5.3 6.3 3 1.5 5.2 2 8.1 1.6 6.2-.8 9-3.5 10.6-10.1 1.7-7.1 5.2-10.9 11.8-12.6 2.6-.6 5.6-1.4 6.5-1.7 2.1-.5 6.3-6.1 5.4-7.1-1.2-1.1-14.7 1.8-20.2 4.4-6.1 2.9-8.8 6.2-11.2 13.7-1.5 4.7-2 5.2-4.6 5.2s-3-.6-5.1-6.2c-2.7-7.5-3.6-8.7-8.9-11.8-6.3-3.7-22.6-7.1-22.6-4.7M4.2 92c0 11.1.2 12 1.9 12 1.5 0 1.9-.7 1.9-4 0-2.2.4-4 .9-4s1.2 1.8 1.6 4c.6 3.3 1.1 4 3 4 2.4 0 2.4 0 .9-3.7-1.2-2.8-1.3-4.2-.5-6 1.6-3.6 1.4-10.9-.5-12.7-.8-.9-3.2-1.6-5.3-1.6H4.3zm7.3-4c0 2.5-.5 3.6-1.7 3.8-1.5.3-1.8-.4-1.8-3.8s.3-4.1 1.8-3.8c1.2.2 1.7 1.3 1.7 3.8m8-7c.4.6.2 3.4-.4 6.3-.5 2.8-1.3 7.8-1.6 10.9-.6 5.4-.5 5.8 1.4 5.8 1.6 0 2.1-.6 2.1-2.5 0-1.8.5-2.5 2-2.5s2 .7 2 2.5.5 2.5 2 2.5c2.4 0 2.4.1.5-12.4-.8-5.4-1.2-10.2-.9-10.7S25.3 80 23 80c-2.5 0-3.9.4-3.5 1M24 91.5c0 2.5-.4 4.5-1 4.5-.5 0-1-2-1-4.5s.5-4.5 1-4.5c.6 0 1 2 1 4.5m7.5.5c0 10.8.2 12 1.8 12 1.4 0 1.7-1 1.8-6.8l.1-6.7 2 4.4c1.1 2.5 2.1 5.5 2.2 6.8.1 1.6.7 2.3 2.1 2.3 1.9 0 2-.7 2-12 .1-10.7-.1-12-1.7-12-1.4 0-1.8 1.1-2 6.2l-.3 6.3-2-6.2c-1.6-4.9-2.4-6.3-4-6.3-1.9 0-2 .7-2 12m16.3-10.3c-2.6 3-2.8 18.2-.2 20.7 1.9 1.9 6.8 2.1 8.1.3.6-.6 1.3-2.7 1.6-4.5.6-2.7.4-3.2-1.3-3.2-1.3 0-2 .8-2.2 2.7-.2 1.7-.9 2.8-1.8 2.8-1.2 0-1.6-1.8-1.8-8.8-.3-8.1-.1-8.8 1.5-8.5 1.1.2 1.8 1.2 1.7 2.6 0 1.7.5 2.2 2.3 2.2 2 0 2.3-.3 1.7-2.8-1.2-5-6.5-7-9.6-3.5m12 4c-.2 3.2-.1 8.6 0 12 .3 5.4.6 6.3 2.3 6.3 1.6 0 1.9-.7 1.9-5s.3-5 2-5 2 .7 2 5 .3 5 2 5c1.9 0 2-.7 2-12s-.1-12-2-12c-1.7 0-2 .7-2 5s-.3 5-2 5-2-.7-2-5-.3-5-2-5c-1.6 0-1.9.8-2.2 5.7m21.8-4.1c-1.9 1.8-2 4.7-.5 7.5.8 1.6.7 2.5-.7 4-2 2.3-2.3 7.1-.4 9.3 1.5 1.9 6.1 2.1 7.8.4.9-.9 1.2-.9 1.2 0 0 .7 1.2 1.2 2.6 1.2h2.5l-1.7-3c-1.7-2.8-1.7-3 .1-5 1.6-1.8 1.7-2.3.5-3-.9-.6-1.8-.3-2.6.8-1 1.3-1.5 1.4-2.5.5-.9-.9-.8-1.7.5-3.7 2.2-3.5 2.1-8.3-.3-9.6-2.7-1.4-4.7-1.3-6.5.6m4.9 2.4c.3.6.3 2-.1 3.2-.6 2-.7 2.1-2 .4-1.3-1.8-.9-4.6.6-4.6.5 0 1.2.5 1.5 1M86 98.6c0 .8-.9 1.4-2 1.4-1.9 0-2.8-2.8-1.3-4.3.9-.9 3.3 1.2 3.3 2.9m16.6-17c-1.7 1.6-2.1 5.3-1.7 14.4.4 6.5 1.3 8 5.2 8 3.6 0 5.9-2.4 5.9-6.1 0-2.3-.4-2.9-2.1-2.9-1.5 0-1.9.5-1.4 1.9.6 2-1.8 4.7-3.4 3.7-.5-.4-.9-4.2-.9-8.7 0-6.3.3-8.2 1.5-8.6 1.7-.7 3.5 1.5 2.8 3.4-.2.8.4 1.3 1.5 1.3 1.4 0 2-.7 2-2.4 0-3.1-2.5-5.6-5.5-5.6-1.3 0-3.1.7-3.9 1.6m13.5-.7c-3.1 2-3.1 20.2 0 22.2 2.1 1.3 6.5 1.1 7.7-.4 2.1-2.6 1.8-18.9-.4-21.1-1.7-1.8-5.1-2.1-7.3-.7m5.6 10.9c.2 6.7-.1 8.4-1.3 8.9-2.5.9-3.2-1.3-2.9-9.1.3-9.1.2-8.8 2.3-8.4 1.4.3 1.7 1.6 1.9 8.6m6.1-5.8c-.1 3.3-.1 8.7 0 12 .3 5.2.6 6 2.3 6 1.4 0 1.9-.6 1.8-2.3-.6-6.6 1.5-8 2.6-1.7.5 3.1 1.1 4 2.7 4 1.5 0 1.8-.4 1.3-1.8-1.4-3.5-1.7-8-.6-8.6.6-.4 1.1-2.9 1.1-5.5 0-5.8-2.1-8.1-7.2-8.1h-3.6zm7.7 0c.7 2.1-1 7-2.5 7-.5 0-1-.3-1.1-.8 0-.4-.2-1.6-.5-2.7-.7-3.3.5-6.5 2.1-5.9.8.3 1.7 1.4 2 2.4m6 6c0 11.4.1 12 2 12 1.8 0 2-.5 1.7-4-.3-2.4 0-4 .7-4 .5 0 1.5 1.8 2.1 4 .8 2.9 1.6 4 2.9 4 1.8 0 1.8-.3.6-4.4-.9-2.8-1-4.7-.4-5.3s1.1-3.4 1.1-6.3c.2-6.2-1.5-8-7.1-8h-3.6zm7.5-4.1c0 2.4-.5 4.1-1.4 4.4-2 .8-2.6-.2-2.6-4.5 0-3.1.3-3.8 2-3.8s2 .7 2 3.9m7.6-2.7c-2.2 16-2.2 18.8-.4 18.8 1.3 0 1.8-.8 1.8-2.6 0-2.1.4-2.5 2.3-2.2 1.6.2 2.2.9 2.1 2.5 0 1.7.5 2.3 2.1 2.3 2.1 0 2.2-.3 1.4-5.2-.5-2.8-.6-5.5-.3-5.9.3-.5 0-1.7-.6-2.8-.5-1.1-1.1-3.8-1.2-6-.1-3.9-.3-4.1-3.3-4.1-3.2 0-3.3.2-3.9 5.2m4.1 10c-1.8 1.1-2 .3-1.1-5.4l.8-5.3.7 5c.6 3.4.4 5.2-.4 5.7m8.2-9.5c0 3.2-.1 8.6-.2 12.1l-.2 6.3 4.5-.3c3.2-.2 4.6-.8 4.8-1.9.2-1.3-.3-1.5-2.3-1.2-2.5.5-2.5.5-2.6-6.3-.1-3.8 0-8.6.1-10.7.1-3.1-.2-3.7-1.9-3.7-1.9 0-2.1.6-2.2 5.7m12.5 14.8c-1.5 1-1.6 1.6-.7 2.6 1.4 1.5 4.3.5 4.3-1.5 0-2.2-1.5-2.7-3.6-1.1m-140.6 16c.6 3.1.8 3.1 1.4 0 .3-1.6.1-2.5-.7-2.5s-1 .9-.7 2.5m3.2 0c0 2.4.2 2.7 1.1 1.5.8-1.1 1.2-1.2 1.6-.3.8 2.2 2.3 1.4 2.3-1.2s-1.5-3.4-2.3-1.3c-.4 1-.8.9-1.6-.2-.9-1.2-1.1-.9-1.1 1.5m6 0c0 1.7.5 2.5 1.8 2.5 1.4 0 1.5-.2.2-1-1.3-.9-1.3-1 0-1 1.2 0 1.3-.2.1-.9-1.1-.7-1.1-.9 0-1.4q1.5-.6-.3-.6c-1.3-.1-1.8.7-1.8 2.4m7-.2c0 1.4.6 2.4 1.5 2.4s1.5-1 1.5-2.4-.6-2.3-1.5-2.3-1.5.9-1.5 2.3m5.3 0c-1.1 2.3-.9 2.4 2.8 2.3 2.1 0 3.9-.5 3.9-1 0-.6.5-.5 1.2.2 1.9 1.9 2.8 1.4 2.8-1.6 0-2-.3-2.3-.9-1.3-.8 1.2-1.3 1.2-2.4.3-1.2-1-1.6-.8-2.1 1-.5 1.4-.9 1.8-1.3 1-.2-.6-.9-1-1.4-.7-.5.4-.6-.1-.3-.9 1-2.5-1.2-1.8-2.3.7m12.1-.8c-.8 1.9.4 3.5 2.4 3.4 1.5-.1 1.5-.2 0-.6-1-.2-1.8-.8-1.8-1.3s.8-1.4 1.8-1.9c1.6-1 1.6-1-.1-1.1-1 0-2 .7-2.3 1.5m4.7 1c-.1 2.2.2 2.6.8 1.6.8-1.2 1.2-1.2 2.5-.2 1.4 1.2 1.6 1 1.5-1.5 0-1.6-.3-2.3-.6-1.7-.2.7-1.1 1.3-1.8 1.3s-1.6-.6-1.8-1.3c-.3-.6-.6.1-.6 1.8m5.9 0c0 1.7.5 2.5 1.8 2.5 1.4 0 1.5-.2.2-1-1.3-.9-1.3-1 0-1 1.2 0 1.3-.2.1-.9-1.1-.7-1.1-.9 0-1.4q1.5-.6-.3-.6c-1.3-.1-1.8.7-1.8 2.4m4-.2c0 3.1 3.5 3.1 3.8 0 .1-1.7-.4-2.3-1.8-2.3s-2 .7-2 2.3m8 .2c0 2.4.2 2.7 1.1 1.5.8-1.1 1.2-1.2 1.6-.3.8 2.2 2.3 1.4 2.3-1.2s-1.5-3.4-2.3-1.3c-.4 1-.8.9-1.6-.2-.9-1.2-1.1-.9-1.1 1.5m6 0c0 1.7.5 2.5 1.8 2.5 1.4 0 1.5-.2.2-1-1.3-.9-1.3-1 0-1 1.2 0 1.3-.2.1-.9-1.1-.7-1.1-.9 0-1.4q1.5-.6-.3-.6c-1.3-.1-1.8.7-1.8 2.4m5-1.7c0 .6-.2 1.6-.5 2.4s.3 1.3 1.9 1.4c2.1.2 2.3-.1 1.7-1.9-.8-2.2-3.1-3.6-3.1-1.9m5 1.6c0 2 .5 2.6 2.1 2.6 1.5 0 2-.5 1.7-2.2-.5-3.4-3.8-3.7-3.8-.4m3 .1c0 .8-.4 1.5-1 1.5-.5 0-1-.7-1-1.5s.5-1.5 1-1.5c.6 0 1 .7 1 1.5m2.4-1.2c.3 1 .6 2.3.6 2.8s.5.9 1 .9c1.4 0 1.2-1.3-.6-3.6-1.4-1.7-1.5-1.7-1-.1m2.6.2c0 .8.5 1.5 1 1.5.6 0 1-.7 1-1.5s-.4-1.5-1-1.5c-.5 0-1 .7-1 1.5m2.9.7c-1.2 2.2-1.1 2.8.1 2.8.6 0 1-.7 1-1.5s.5-1.5 1-1.5c.6 0 1 .7 1 1.5s.5 1.5 1.1 1.5c.5 0 .7-.5.4-1-.3-.6 0-1 .7-1 1 0 1-.2-.1-.9s-1.1-.9 0-1.4c.8-.3.1-.5-1.4-.4-1.6.1-3.3.9-3.8 1.9m7.7-.7c-1 2.6-.7 3 1.8 3.1 2.1.2 2.3-.1 1.7-1.9-1-2.7-2.7-3.2-3.5-1.2m5.4 1c0 2.7 2.1 3 3.1.5.8-1.9.2-3-1.7-3-.8 0-1.4 1-1.4 2.5"/></g></svg>