<svg xmlns="http://www.w3.org/2000/svg" viewBox="0 0 174 185"><path fill="currentColor" d="M71.5 5a71.3 71.3 0 0 0-35.2 18.9C22 38 15 54.6 15 74.6c0 11.3 2.3 21 7.3 31.4 3.3 6.9 5.8 10.2 13.2 17.6 7.6 7.7 10.4 9.8 18.5 13.7 17.1 8.4 34.7 9.8 52.5 4.2 20.6-6.4 38.3-23.7 45.4-44.3 12.8-37.6-8.4-78.7-46.9-90.7C98.7 4.6 77.8 3.6 71.5 5m28.9 8.6c29.1 7.5 49.7 36 47.2 65.3-.7 8.5-4.6 21.3-7.9 26.3-2 3-2.8 3.3-7.7 3.6-7.3.4-13.1-1.3-17.7-5.3-4.6-3.9-9-11.6-9.9-17.3l-.7-4.2h5.7c6.5 0 12-1.9 13.5-4.8 1.2-2.3 1.5-36 .3-37.8-2.1-3.2-5.3-3.4-46.4-3.4l-41.3-.1 7.2-6.9c7.7-7.4 16-12.2 25.8-15.1 7.8-2.3 23.6-2.4 31.9-.3M51.5 74v28.5l-11.2.3-11.1.3-2.1-5.6c-3.2-8.6-4-13.2-4.1-23 0-9.4 1.6-17.6 5-25.2l1.9-4.4 10.8.3 10.8.3zm61.8-27.8c1.3 1.1 1.7 3.5 1.9 12.5.2 6.6-.1 11.6-.7 12.2-.6.5-11.8 1.1-25.9 1.3-24.1.3-24.9.2-25.7-1.7-.9-2.4-1.2-21.7-.3-23.9.5-1.4 3.7-1.6 24.8-1.6 17.8 0 24.7.3 25.9 1.2M93.9 86.7c2.1 8.3 8 19 12.8 23.3 5.1 4.4 13.5 8 19.1 8l3.7.1-4.9 4.5c-2.6 2.4-8.1 6-12.2 8-23.5 11.3-50.3 7.2-70-10.9-3.5-3.3-6.3-6.1-6.1-6.4.3-.2 6-.5 12.7-.7 9.1-.2 12.4-.6 13.1-1.7.5-.8.9-7 .9-13.9-.1-6.9-.1-13.1-.1-13.8.1-.9 3.8-1.2 15-1.2h14.9zM4 153.5c0 .8.6 1.5 1.4 1.5 2.9 0 3.1 11.3.3 11.8-1 .2-1.7 1-1.7 1.8 0 1.1.9 1.4 3.3 1.2 2.8-.3 3.2-.7 3.5-3.6.3-2.8.7-3.2 3.3-3.2 1.8 0 2.9.5 2.9 1.4 0 2.3 4.8 6.6 7.5 6.6 3.2 0 3.3-1.8 0-2.6-2.2-.5-4.5-3-4.5-4.8 0-.3.9-.6 2-.6 1.8 0 2-.7 2-5.5V152H14c-8.2 0-10 .3-10 1.5m18 4c0 2.4-.3 2.5-5.5 2.5s-5.5-.1-5.5-2.5.3-2.5 5.5-2.5 5.5.1 5.5 2.5m52.6-4.8c-1.1 1.1-.6 2.1 1.4 2.6 1.7.4 2 1.4 2 6.6 0 5.4-.2 6.1-2 6.1-1.1 0-2 .7-2 1.5 0 1 1.1 1.5 3.5 1.5 3.3 0 3.5-.2 3.5-3.5V164h6.3c3.6 0 6.8-.5 7.5-1.2 1.6-1.6 1.6-8.8 0-9.2-2.5-.8-19.5-1.5-20.2-.9m18.2 5.5c.3 2.8.3 2.8-5.7 2.8H81v-6.1l5.8.3c5.4.3 5.7.4 6 3m18.8-5.5c-1.1 1.1-.6 2.1 1.4 2.6 1.7.4 2 1.4 2 6.6 0 5.4-.2 6.1-2 6.1-1.1 0-2 .7-2 1.5 0 2.3 20.5 2.2 21.4-.1 1.1-2.8.6-5.4-.9-5.4-.8 0-1.5.9-1.5 2 0 1.8-.7 2-6 2-5.7 0-6-.1-6-2.5 0-2.3.4-2.5 4-2.5 2.9 0 4-.4 4-1.5s-1.1-1.5-4-1.5c-3.6 0-4-.3-4-2.5 0-2.4.3-2.5 6-2.5 5.3 0 6 .2 6 2 0 1.1.7 2 1.5 2 1.8 0 2.1-4.9.3-5.4-2.5-.8-19.5-1.5-20.2-.9m36.4.8c0 .8.6 1.5 1.4 1.5s1.5 1.3 1.7 3.2c.6 5.2-.1 8.8-1.7 8.8-.8 0-1.4.7-1.4 1.6 0 1.1.8 1.4 3.3 1.2 2.8-.3 3.2-.7 3.5-3.6.3-2.8.7-3.2 3.3-3.2 1.9 0 2.9.5 2.9 1.5 0 2.5 4.6 6.5 7.5 6.5 3.2 0 3.3-1.8 0-2.6-2.2-.5-4.5-3-4.5-4.8 0-.3.9-.6 2-.6 1.8 0 2-.7 2-5.5V152h-10c-8.2 0-10 .3-10 1.5m18 4c0 2.4-.3 2.5-5.5 2.5s-5.5-.1-5.5-2.5.3-2.5 5.5-2.5 5.5.1 5.5 2.5m-124.8-3.3c-.7.7-1.2 4-1.2 8 0 8 .8 8.8 9.8 8.8 7.7 0 9.2-1.5 9.2-9.6 0-3.3-.5-6.5-1.2-7.2-1.6-1.6-15-1.6-16.6 0m11.7 1.4c3.2.7 3.2.7 2.9 6.3l-.3 5.6h-12l-.3-4.9c-.2-2.7-.1-5.5.2-6.2.6-1.5 4.4-1.8 9.5-.8M36.7 179c.6 2.2 2.3 3.8 2.3 2.1 0-.6.8-.7 1.7-.4 1.3.5 1.5.2 1-1.1-.4-1-.3-1.5.3-1.1.6.3 1 .1 1-.4 0-.6-1.5-1.1-3.4-1.1-2.9 0-3.3.3-2.9 2m10.8 0c.2 2.5 1.1 3.4 2.5 2.5.8-.5.8-1 0-2s-.7-1.4.2-1.8c.7-.3.4-.6-.8-.6-1.5-.1-2 .5-1.9 1.9m9.2-.6c-.9 2.4-.9 2.8.2 2.2.5-.4 1.1-.1 1.3.6.3.8.6.9 1.1.1.3-.5 0-1.8-.7-2.8-1.2-1.7-1.3-1.7-1.9-.1m7.8.6c.2 2.3 1.5 4 1.5 1.9 0-1.1.2-1.1 1 .1s1 .9 1-1.3c0-2-.5-2.7-1.8-2.7-1.2 0-1.8.7-1.7 2m13.2 0c.6 2.2 2.3 3.8 2.3 2.1 0-.5.3-1.6.6-2.5.4-1.1 0-1.6-1.4-1.6-1.5 0-1.9.5-1.5 2m8.4.7c0 1.6.3 2.2.6 1.5.4-1 .8-1 1.9-.1s1.4.7 1.4-1.5c0-1.9-.5-2.6-2-2.6s-2 .6-1.9 2.7m8.9-.8c0 2.3 1.5 3.5 3 2.6.8-.5.8-1.1.1-1.9-.6-.7-.8-1.6-.4-1.9.3-.4-.1-.7-1-.7-1 0-1.7.8-1.7 1.9m13.2-.2c.2 1 1.4 2 2.7 2.1 1.8.3 2.2 0 1.8-1.1-.3-.9-.1-1.8.6-2.1.7-.2-.3-.5-2.1-.5-2.7-.1-3.3.3-3 1.6m10.8.8c0 1.6.6 2.5 1.5 2.5 1.8 0 2-1.6.4-2.6-.8-.4-.7-.9.2-1.5 1.1-.7 1-.9-.3-.9s-1.8.8-1.8 2.5m8.4-1c-.7 1.7.4 3.7 1.7 3 1.2-.8 1.2-4.5-.1-4.5-.6 0-1.3.7-1.6 1.5m7-.3c-.4.6-.3.8.4.4.6-.3 1.2.3 1.5 1.6l.4 2.3.2-2.3c0-1.3.6-2 1.1-1.7.6.3 1 .1 1-.4 0-1.5-3.7-1.4-4.6.1"/></svg>