<svg xmlns="http://www.w3.org/2000/svg" viewBox="0 0 1036 254"><g fill="currentColor"><path d="M.1 57.2C.2 88.7.6 112 1 109c3.8-28.3 19.4-57.7 40.6-76.6 18-16 37.8-25.7 63.4-31.2C108.1.5 92.7.2 54.8.1L0 0zM147.5 1.1C166.9 5.2 177 9 191.7 17.6c24.1 14.1 43.6 37.7 53.6 64.6 5.7 15.1 7.7 26.8 7.7 44.5 0 14.7-.5 18.8-3.6 32.1-6.8 28.3-26.9 56.8-51.9 73.4-15.7 10.4-31.8 17-49 20.1-7 1.3 46.3 1.5 439.8 1.6l447.7.1V127l-.1-127-446.2.1c-250.2.1-444.4.5-442.2 1m214.4 76.4c1.6.8 3.1 2.2 3.5 3 .3.9.6 9.5.6 19 0 16.9-.1 17.5-2.4 20.2-2.1 2.4-3.2 2.8-9.6 3.1l-7.2.4.6 3.8c.8 5.1 4.4 11.6 8.3 15.1 3.3 2.9 6.9 4.1 15.8 5.6l5 .8.3 4.8c.4 5.8-.9 6.5-10.6 5.6-8.3-.7-15-3.8-20.8-9.6-4.4-4.5-9.6-14-11.4-21.1l-1.1-4.2H306v13.4c0 10.2-.3 13.6-1.4 14.5-.9.8-5.6 1.1-14.2.9l-12.9-.3-.3-4.3c-.4-6.1.8-7.2 8.4-7.2 5.8 0 6.4-.2 6.9-2.3.3-1.2.4-13 .3-26.2l-.3-24-7.3-.5c-5-.3-7.6-1-8.2-2-1.4-2.1-1.2-7.4.2-8.8.9-.9 11.5-1.2 41.5-1.2 33.5 0 40.9.2 43.2 1.5m626.6-.5c4.4 1.7 5.5 6.2 5.5 22.2 0 20.1-2.1 23.8-13.8 23.8-6.4 0-7.1 1.1-4.6 7.5 4 10.6 9.8 15.3 20.7 16.6 7 .8 8.7 2.1 8.7 6.5 0 4.7-2.7 6.3-9.8 5.7-10.1-.8-16.7-3.9-23.9-11.5-3.3-3.4-9.9-16.4-10.5-20.8l-.3-2.5-13.7-.3-13.8-.3v13.4c0 10.3-.3 13.7-1.4 14.6-.9.8-5.6 1.1-14.2.9l-12.9-.3-.3-4.4c-.2-2.4.2-4.9.8-5.5s4.1-1.3 7.8-1.6l6.7-.5v-52l-5.5-.3c-9.7-.4-10-.6-10-6.1 0-2.6.3-5.1.7-5.4 1.1-1.1 80.9-.8 83.8.3m41.8-.3c-.7.2-2.1.2-3 0-1-.3-.4-.5 1.2-.5 1.7 0 2.4.2 1.8.5m-526.1 3.6c4.8 2.2 8.6 6.1 10.9 11.1 1.6 3.6 1.9 6.8 1.9 25.3 0 19-.2 21.8-2.1 26.7-2.3 6.3-6.8 10.7-12.8 12.5-2.4.7-12.6 1.1-27.4 1.1-21.4 0-24.1-.2-29.1-2.1-6.5-2.4-10.9-7.1-12.5-13.5-1.8-7-1.4-42 .5-48.5 1.8-5.9 8.3-13.3 12.6-14.2 1.3-.3 14-.4 28.3-.3 22.1.2 26.6.4 29.7 1.9m169 .5c2.2 2.2 2.3 2.7 2.1 21l-.2 18.7-3.1 2.7c-2.8 2.6-3.6 2.8-11.9 2.8-4.8 0-17.6.3-28.4.7l-19.7.6V141c0 9.2-.4 14-1.2 14.8-1.7 1.7-26.9 1.7-28.6 0-1.6-1.6-1.5-7 .1-9.1.9-1.2 3.1-1.7 8.2-1.9l7-.3v-54l-6-.3c-3.2-.2-6.5-.8-7.2-1.4-1.7-1.3-1.7-8-.1-9.6 1-1 11.2-1.2 44-1l42.7.3zm162.5.4c2.6 2.6 2.8 3.4 3.1 13.5.5 11.7-.2 13.3-5.7 13.3-4.7 0-5.6-1.4-6.1-9.7l-.5-7.8-26.2-.3L774 90v22l16.8.2 16.7.3.3 4.8c.4 6.4 1.2 6.2-21.5 6.5l-12.3.2v21h24.9c13.7 0 25.6-.3 26.5-.6 1.3-.5 1.6-2.2 1.6-8.5 0-8.9 1.2-10.5 7.4-9.3 4.3.8 4.6 2 3.7 15.2-.6 9.7-.8 10.5-3.4 12.8l-2.8 2.4h-43.4c-48.8 0-45.6.5-44.5-7.5l.5-4 7.5-.5 7.5-.5v-54l-6-.3c-3.2-.2-6.5-.8-7.2-1.4-1.7-1.3-1.7-8-.1-9.6 1-1 11.2-1.2 44-1l42.8.3zm187 4.5c-.2 1.6-.4.5-.4-2.2 0-2.8.2-4 .4-2.8.2 1.3.2 3.5 0 5m9-4.1c.2.7-1 2.2-2.7 3.4l-3 2.1v-3.6c0-3.4.2-3.6 2.7-3.3 1.4.2 2.8.8 3 1.4m2.3 6.9c-.7.8-1.7 1.5-2.2 1.5-1.1 0 1.4-2.9 2.6-3 .5 0 .3.7-.4 1.5m-92.9 104.4c2.7-1.4 3.9.1 3.9 5.4s-2.4 6-6.1 1.8c-2.3-2.6-3.4-3.2-6.1-2.9-2.5.2-3.4.8-3.6 2.5-.4 2.4.3 2.8 8.3 5.3 8.8 2.7 11.3 9.4 5.6 15.1-2.4 2.4-3.8 2.9-7.5 2.9-2.6 0-5.6-.6-6.7-1.3-1.7-1-2.3-1-2.6 0-.3.7-1.3 1.3-2.3 1.3-1.4 0-1.9-.9-2.2-4.5-.2-2.4-.2-4.9 0-5.5.4-1.2 4.2-1.4 4.2-.1 0 .4 1.2 2 2.7 3.5 2.1 2.1 3.5 2.6 6.2 2.4 3.1-.3 3.6-.7 3.6-2.8 0-2.2-.8-2.8-6.2-4.5-7.9-2.6-10.3-4.8-10.3-9.5 0-6.8 6.1-10.6 13.7-8.7 2.1.5 4.1.4 5.4-.4m-649.4 1.6c.3.9-.2 2.1-1.1 2.8-1.5 1.1-1.5 1.8.5 8.5 1.2 3.9 2.5 7.2 2.9 7.2.3 0 1.7-3 3-6.7l2.3-6.6-2.1-1.8c-1.2-.9-2.2-2.4-2.2-3.3 0-1.3 1.3-1.6 6.9-1.6 7.4 0 9.8 1.3 6.6 3.7-1.8 1.3-1.8 1.5 0 8.8 1 4.1 2.2 7.2 2.6 6.9 1-.6 3.9-10.5 3.9-13.3 0-1.2-.4-2.1-1-2.1-.5 0-1-.9-1-2 0-1.8.7-2 5.5-2s5.5.2 5.5 2c0 1.1-.6 2-1.4 2-1.6 0-2.4 1.8-6.6 15.7l-3.1 10.3h-3.4c-3.9 0-4.6-.9-6.6-8.8-1.5-6.2-2.5-5.7-5.4 2.6-2 5.4-2.3 5.7-5.7 6l-3.7.3-3.1-10.3c-4.2-13.8-5-15.8-6.6-15.8-.8 0-1.4-.9-1.4-2 0-1.8.7-2 7-2 5.5 0 7.2.4 7.7 1.5m89.8 4c0 3.9-.4 5-1.7 5.3-1.1.2-2.1-.5-2.7-2-1.3-3.5-3.6-5-7.2-4.6-3.8.4-5.4 2.5-4.5 6.1.8 3.4 2.9 3.4 5 .2 2.4-3.7 3.6-2.2 3.6 4.6 0 4.7-.3 5.9-1.6 5.9-.9 0-1.8-.9-2.1-2.1-.9-3.2-4.7-2.1-5.1 1.4-.4 3.6 1.3 5.7 4.7 5.7 3.5 0 6.7-2.3 7.5-5.5.4-1.6 1.3-2.5 2.7-2.5 1.8 0 2 .5 1.7 5.7l-.3 5.8-13.3.3c-11.4.2-13.3 0-13.9-1.3-.3-1 .2-2.2 1.6-3.1 1.9-1.3 2.1-2.5 2.1-9.9 0-9.2-.5-11.5-2.6-11.5-.8 0-1.4-.9-1.4-2 0-2 .5-2 13.8-1.8l13.7.3zm52.2-1.8c.9 2.1 2.9 7.4 4.4 11.8 1.6 4.4 3.9 8.8 5 9.7 3.7 3.1 1.8 4.8-5.4 4.8-7.4 0-9.9-1.6-6.7-4.3s1.5-4.7-4.1-4.7-7.7 2.2-4.4 4.6c1 .8 1.5 2 1.1 2.9-.9 2.3-10.9 1.7-11.4-.7-.2-.9.5-1.9 1.5-2.2 1.3-.4 3.1-4 5.8-11.4 5.2-14.6 5-14.2 9.1-14.2 3.1 0 3.7.4 5.1 3.7m65.4-1.4c4.7 3.2 5 6.8.8 10.6-3.1 2.8-3.1 2.9-1.1 4 1.2.7 2.4 2.6 2.8 4.6.6 3.5 1.7 4.4 3 2.4.4-.7.9-.8 1.7 0 .7.7.5 1.8-.7 3.5-3.1 4.8-11.6 2.5-11.6-3 0-1.2-.5-3.5-1-4.9-.8-2.1-1.6-2.6-3.8-2.3-2.4.3-2.7.7-2.7 3.8 0 2.7.5 3.7 2.3 4.5 2.6 1.1 2.9 3 .6 3.9-.9.3-4.2.6-7.5.6-6.7 0-8.8-1.9-5-4.6 1.9-1.3 2.1-2.5 2.1-9.9 0-9.2-.5-11.5-2.6-11.5-.8 0-1.4-.9-1.4-2 0-1.9.7-2 10.4-2 9.1 0 10.7.3 13.7 2.3m98.5.1c.3 1.3.4 3.8.2 5.7-.4 4.9-3.2 5-5.5.2-1-2.1-2.6-3.9-3.6-4.1-1.5-.3-1.7.7-1.7 10.2 0 9.7.2 10.5 2.1 11.1 1.2.4 1.9 1.4 1.7 2.3-.5 2.4-13.9 3-15.7.8-1.1-1.3-.9-1.7 1.3-2.7 2.6-1.2 2.6-1.4 2.6-11.6 0-9.4-.2-10.4-1.7-10.1-1 .2-2.6 2-3.6 4.1-2.5 5.3-5.1 4.7-5.5-1.2-.5-7.3-.9-7.1 14.7-7.1 13.9 0 14.1 0 14.7 2.4m45.4-.4c0 1.1-.7 2-1.5 2-1.6 0-3 4.2-2.1 6.5.4 1.1 2 1.5 5.6 1.5h5v-3.6c0-2.8-.5-3.7-2-4.1-1.3-.3-2-1.2-1.8-2.2.5-2.4 15.1-2.4 15.6 0 .2 1-.5 1.9-1.8 2.2-1.8.5-2 1.3-2 10.7s.2 10.2 2 10.7c1.3.3 2 1.2 1.8 2.2-.5 2.4-15.1 2.4-15.6-.1-.2-.9.5-1.9 1.7-2.3 1.7-.5 2.1-1.5 2.1-4.6v-4l-5.2.3c-5.1.3-5.3.4-5.6 3.5-.2 2.3.3 3.5 1.9 4.6 3.9 2.8 1.8 4.7-5.4 4.7-7.4 0-9.9-1.6-6.6-4.1 1.9-1.4 2.2-2.6 2.2-10.9 0-8.5-.2-9.4-2.3-11-3.7-2.8-1.6-4 6.6-4 6.7 0 7.4.2 7.4 2m76.8 3.7c.3 4.6.1 5.3-1.6 5.3-1.1 0-2.4-1.3-3.3-3.3-1.3-2.9-1.8-3.2-5.9-3.2h-4.5l-.3 4.2c-.4 5 1.6 5.8 4.2 1.8s4.6-2.2 4.6 4c0 6.1-1.5 7.8-4.1 4.7-2.9-3.6-4.9-2.8-4.9 1.8 0 4.7 1.3 5.5 6.5 4.6 2.8-.6 3.8-1.4 5-4.2 2.8-6.8 7-1.6 5 6.3l-.6 2.4-13.7-.3c-11.8-.3-13.7-.5-14-2-.2-.9.5-1.9 1.7-2.3 1.9-.6 2.1-1.4 2.1-10.7 0-9.1-.2-10-2-10.5-2-.5-2.6-2.3-1.3-3.7.4-.3 6.6-.5 13.7-.4l13.1.3zm79.2-4.1a4 4 0 0 1-1.4 2.8c-1.3.9-1.2 2.2.6 8.8 1.2 4.3 2.4 7.5 2.8 7.3s1.7-3.5 3-7.2l2.2-6.7-2.1-1.7c-1.1-.9-2.1-2.4-2.1-3.3 0-1.3 1.3-1.6 6.9-1.6 7.4 0 9.8 1.3 6.6 3.6-1.7 1.3-1.7 1.8-.5 7.1 2.4 10.5 3.1 10.8 5.7 2.3 2-6.6 2.1-7.6.8-8.6-.8-.6-1.5-1.9-1.5-2.8 0-1.3 1-1.6 5-1.6 5.8 0 7.5 1.9 4.2 4.8-1.2 1-3.3 6-5.2 12.2-1.8 5.8-3.7 11.1-4.3 11.8-.5.7-2.4 1.2-4 1-2.6-.3-3.2-.9-4.4-4.8-3.2-10.3-3.2-10.3-6.2-2.5-2.4 6.4-3 7-5.7 7.3-1.7.2-3.5-.3-4.1-1-.9-1.2-2.8-7.2-6.4-19.5-.7-2.5-2-4.5-3.1-4.8-1.8-.6-2.4-2.6-1.1-3.8.3-.4 3.7-.7 7.5-.7 5.6 0 6.8.3 6.8 1.6m89.5 3.9c0 4.3-.3 5-2 5-1.2 0-2.1-.8-2.3-2-.5-2.9-3.1-4.5-7.4-4.5H873v4.5c0 5.2 1.8 6 4.5 1.9 1.3-2.1 1.9-2.3 3.1-1.3 2.2 1.8 1.5 11.3-.8 11.7-.9.2-1.9-.5-2.3-1.7s-1.5-2.1-2.6-2.1c-1.7 0-2 .6-1.7 4.2s.7 4.4 2.6 4.6c4 .6 7.9-1.6 8.6-4.9.4-2.1 1.1-2.9 2.6-2.9 1.8 0 2 .6 2 6v6.1l-13.7-.3c-11.9-.3-13.8-.5-14.1-2-.2-.9.5-1.9 1.7-2.3 1.9-.6 2.1-1.4 2.1-10.7 0-9.1-.2-10-2-10.5-2-.5-2.6-2.3-1.3-3.7.4-.3 6.6-.5 13.7-.4l13.1.3zm116 .5c0 4.6-.3 5.5-1.8 5.5-1 0-2.5-1.5-3.5-3.5-.9-1.9-2.5-3.6-3.4-3.8-1.6-.3-1.8.7-1.8 10.1 0 9.6.2 10.5 2 11 1.2.3 2 1.4 2 2.6 0 2.1-.4 2.2-7.7 1.9-6.3-.2-7.8-.6-8.1-2-.2-.9.5-1.9 1.7-2.3 1.9-.6 2.1-1.4 2.1-11.1 0-9.5-.2-10.5-1.7-10.2-1 .2-2.6 2-3.6 4.1-2.7 5.8-4.7 4.9-4.7-2.3v-6.1l14.3.3 14.2.3z"/><path d="M306 99.5V111h22.9c12.6 0 23.6-.3 24.5-.6 1.3-.5 1.6-2.3 1.6-9.6C355 87 357 88 329.5 88H306zm627.4-10.2c-.2.7-.3 5.8-.2 11.3l.3 9.9h48l.3-9.9c.2-6.4-.1-10.3-.9-11.2-1.6-2-46.7-2.1-47.5-.1m-482.6 2.2c-5.2 3-5.8 5.6-5.8 26.7.1 26.2-.6 25.5 24.7 26.5 21.9.8 27.8.1 31.5-3.9l2.8-3v-20.2c0-19.1-.1-20.3-2.1-22.5-1.1-1.2-3.2-2.6-4.5-3.1s-11.7-1.2-23.1-1.5c-17.8-.5-21.2-.4-23.5 1m161.6-.2c-.2.7-.3 6.2-.2 12.3l.3 10.9 23.8.3c15.2.1 24.5-.1 25.7-.8 1.8-1 2-2.1 2-10.6 0-5.2-.5-10.4-1-11.5-1-1.8-2.4-1.9-25.6-1.9-19.3 0-24.6.3-25 1.3m416.1-9.3c-.3.5.1 1 .9 1 .9 0 1.6-.5 1.6-1 0-.6-.4-1-.9-1-.6 0-1.3.4-1.6 1M425 204.5c-1.6 4.8.2 6.9 3.8 4.6 1.1-.7 1.1-1.5-.2-4.5-.8-2-1.7-3.6-2-3.6-.2 0-1 1.6-1.6 3.5m61.4-5.1c-1 4.1-.1 6.1 2.9 6.4 3.5.4 5.7-1.3 5.7-4.4 0-4.5-7.5-6.2-8.6-2M111 14.9q-36.3 5.4-63.3 31.8C36.1 58 33.3 57 76.2 57.1c20.5.1 54.5.4 75.5.8l38.3.6 3.2 3.3 3.3 3.2v32.3c0 31.7 0 32.2-2.2 35.3-3.3 4.6-8.8 6.4-21.9 7.1l-11.4.6v3.1c.1 14.1 12.9 34.9 25.4 41 10.7 5.2 26.2 7.1 32.5 3.8 5.6-2.8 12.6-17 17.3-35.2 1.8-7.2 2.2-11.2 2.2-26 0-18.9-1.2-25.9-7.1-41.5-13.2-34.7-44.1-61-81.3-69.2-7.7-1.7-31.2-2.5-39-1.4"/><path d="M24.8 79.2c-13.6 28.9-14.2 61.2-1.6 91.6l3 7.2 19.7-.2 19.6-.3v-103l-19.1-.3-19.1-.2zm61.6-3.9c-.2.7-.3 11.6-.2 24.2l.3 23h45.1c43 0 45.3-.1 47.3-1.9s2.1-2.9 2.1-20.7c0-21.3-.5-23.4-5.9-24.9-5.7-1.6-88-1.3-88.7.3"/><path d="M.1 196.7 0 254l56.8-.1c36.4-.1 54.7-.4 51.2-1-23.5-3.8-45.5-13.8-63-28.8-6.8-5.9-8.5-7.5-15.4-15.6C14.3 190.7 4 167.1.7 142.5c-.2-1.7-.5 22.8-.6 54.2"/><path d="M87.2 141.2c-.9.9-1.2 7.8-1.2 25.8 0 22.7-.2 24.8-1.8 26.3s-4.8 1.7-23.5 1.7c-12.6 0-21.8.4-22.2 1-.9 1.4 12 14.5 21.2 21.4 41.7 31.3 99.6 29.5 139.7-4.4 3.6-3 6.5-5.8 6.5-6.2.1-.4-2.5-.9-5.6-1.3-16.2-1.8-29.6-8.5-39.9-19.7-7.8-8.6-15.9-26-19.1-41.3l-.9-4-26-.3c-19.4-.2-26.3.1-27.2 1"/></g></svg>