<svg xmlns="http://www.w3.org/2000/svg" viewBox="0 0 156 106"><path fill="currentColor" d="M105.05 76.83c.98 0 3.42.32 3.42 3.26 0 2.85-2.52 3.25-3.42 3.25-.98 0-3.42-.32-3.42-3.25s2.44-3.26 3.42-3.26m-7.58 0c.98 0 3.43.32 3.43 3.26 0 2.85-2.53 3.25-3.43 3.25-.97 0-3.42-.32-3.42-3.25s2.45-3.26 3.42-3.26m20.29 0c2.2 0 2.77 1.22 2.77 1.95h-1.47c0-.24-.16-.9-1.46-.9-.57 0-1.23.17-1.23.74 0 .49.5.57.74.65l1.7.33c.99.24 1.88.57 1.88 1.63 0 1.87-2.2 2.03-2.85 2.03-2.6 0-3.1-1.3-3.1-2.03h1.55c0 .32.25.97 1.55.97.73 0 1.47-.16 1.47-.81 0-.49-.57-.57-1.3-.73l-.74-.17c-1.14-.24-2.28-.49-2.28-1.79 0-.65.4-1.87 2.77-1.87m-3.18.16v1.06h-2.2v5.05h-1.46v-5.05h-2.2v-1.06zm-23.79 0c1.8 0 2.2.9 2.2 1.55 0 .9-.57 1.14-.9 1.22.9.24 1.15.9 1.15 1.47 0 .48-.25.97-.65 1.22-.41.32-.82.57-2.28.57h-3.02v-6.03zm14.26.9c-.81 0-1.95.4-1.95 2.11s1.14 2.12 1.95 2.12 1.96-.4 1.96-2.12-1.14-2.11-1.96-2.11m-7.58 0c-.81 0-1.95.4-1.95 2.11s1.14 2.12 1.95 2.12 1.96-.4 1.96-2.12-1.14-2.11-1.96-2.11m-6.76 2.52h-1.87v1.63h1.8c.73 0 1.13-.24 1.13-.9 0-.57-.57-.73-1.06-.73M77.35 55s.33 2.68-2.52 4.64c0 0-2.45 1.46-3.5 1.55 0 0 1.54-4.4 1.7-6.93.09-2.03.17-3.26-1.38-3.42h-.02c-.18 0-1.52.19-2.59 3.75-1.22 3.83-4.23 11.81-5.53 15.72-1.39 3.91-1.96 4.32-2.12 4.56 0 0 1.06 1.63 3.74 1.06 0 0 1.39-.24 3.02-2.85v-.05c0-.65.17-7.46 5.13-10.95 0 0 4.24-3.17 8.47-.24l-1.95 8.23v.06c0 .25 0 1.21.08 1.57.08.4.16.97 1.3-.57 1.3-1.8 3.1-6.03 3.26-6.52l1.63-5.95 4.89-1.46-.33 1.38s2.2-2.36 3.91-2.04c1.3.25 2.04 1.55 2.2 2.2 0 0 2.12-3.83 4.89-3.66 0 0 3.34.57 1.47 6.68l-1.3 4.07s-.58 2.28.97 1.39c.98-.57 1.47-1.96 1.7-2.53 0 0 .17-6.76 4.08-10.59 2.85-2.69 6.03-2.04 9.29-.33l-2.28 11.49s.16 1.63 1.14 1.22c.98-.49 1.38-1.7 1.38-1.7.82-2.04.25-4 1.63-4.4.5-.17 1.96.4.25 4.72-1.63 3.99-4.24 3.9-5.13 3.83-.9-.09-1.55-.57-3.1-1.8 0 0-1.8 2.28-3.42 2.45h-.07c-.37 0-2.3-.1-3.1-1.71 0 0-3.27 4.31-5.8 4.15-2.6-.16-2.68-2.28-2.52-3.1.25-.8 1.88-7 1.88-7s.57-2.44-.9-.9c-1.55 1.63-1.71 2.61-1.71 2.61l-1.96 8.4-4.88.97 2.44-10.67s.73-2.37-.9-.5c-1.14 1.31-1.46 2.78-1.63 3.35l-2.11 8.23-4.73.97.57-2.44-.07.07c-.31.32-1.54 1.56-1.96 2.13-.66.81-3.59 3.34-4.97-.33 0 0-1.47 2.45-3.83 2.61 0 0-1.87.08-2.69-.98 0 0-2.04 3.18-4.97 2.77-2.85-.32-3.9-.81-4.64-1.06 0 0-3.02 2.94-4.16 3.5-1.7.9-7.25 2.61-7.74-2.03 0 0-.57-5.54 9.05-5.3 0 0 3.17-11.32 4.97-14.5s4.23-9.6 10.18-9.85c0 0 4.56-.41 5.3 6.03M51.12 76.99c-2.36 2.04.25 3.18 1.63 2.28 1.14-.65 2.77-1.63 3.1-3.42h-.03c-.32-.04-3.01-.31-4.7 1.14m39.35 1.06h-1.71v1.3h1.79c.57 0 1.06-.16 1.06-.65s-.4-.65-1.14-.65M74.83 64.69c-2.6 2.28-2.28 6.84-2.2 7.25.08.4.32 1.47 1.63.57.9-.65 1.3-2.04 1.3-2.04l1.06-5.05c.08-.57-.16-2.12-1.8-.73m36-8.06c-2.6 2.27-2.28 6.27-2.2 6.67.09.41 1.06 1.72 1.88.9.81-.9 1.06-1.8 1.06-1.8l1.06-5.04c0-.57-.25-2.12-1.8-.74M48.2 24.2c4.4-.81 5.38 1.55 4.64 7.25-.81 5.95-5.05 19.31-7.17 25.42-2.2 6.3-3.87 5.6-3.98 5.54-2.12-.16-2.45-4.07-1.96-6.11C40.3 54.26 44.7 44 44.7 44c1.87-4.24 4.97-14.75 5.21-15.89.33-1.46-.33-1.95-1.14-1.14-.33.41-10.59 10.35-12.06 11.08-1.54.82-1.46-.4-1.46-.4-.98-2.29.16-6.44 1.63-7.75 1.38-1.3 6.92-4.8 11.32-5.7m10.94 9.84.14.02c1.7.25 2.69 3.26 2.69 3.26 2.69-4.89 4.4-5.3 6.35-5.38 1.88-.08 2.6 2.53 2.6 2.53 4.9-6.44 7.83-1.8 7.26-.16-.25.73-1.14 5.45-1.47 6.27-.32.9.33.98.9.49a12 12 0 0 0 2.52-3.75l1.96-8.4 4.72-1.3s-2.6 11.08-2.6 11.5c-.08.4.24.4.49.32 1.46-.9 2.36-3.26 2.36-3.26l2.36-9.29 4.89-1.14-4.24 15.64s-.73 2.85-1.38 5.22c-.66 2.36-.33 5.45-.33 5.45l-3.42 3.1c-2.53-1.71-1.55-6.6-1.55-6.6l2.04-7.25c-1.22 1.47-3.26 3.5-4.4 3.34-1.22-.16-2.04-1.95-2.04-1.95-3.01 3.66-4.8 4.15-6.27 3.74-1.8-.49-1.06-3.42-1.06-3.42s1.39-5.62 1.47-6.19c.16-.57.08-1.55-.82-.9-.9.66-2.11 3.1-2.11 3.1l-1.96 8.39-5.3 1.3 3.02-12.54c-2.69 1.14-3.34 4.15-3.58 5.86-.66 5.3-3.5 9.05-7.25 9.05-3.91 0-4.73-6.36-2.12-12.14 2.16-4.8 5.06-5 5.98-4.93h.05l.24.04-.11-.02zm60.9 13.46c.58 0 1.23.25 1.64.65.4.5.65 1.06.65 1.63q-.02 1-.65 1.63c-.4.4-.98.65-1.63.65s-1.22-.24-1.63-.65a2.3 2.3 0 0 1-.65-1.63c0-1.3.98-2.28 2.28-2.28m0 .16c-.56 0-1.13.25-1.54.66-.32.4-.57.9-.57 1.46l.01.19c.05.49.27.92.56 1.28.4.4.98.65 1.55.65a2.1 2.1 0 0 0 2.12-2.12q.01-.86-.57-1.46a1.8 1.8 0 0 0-1.55-.66zm.5.82c.24 0 .49.16.57.4 0 .09.08.25 0 .5s-.17.32-.33.4c.08 0 .25.08.25.33v.57c0 .16 0 .24.08.24V51h-.57c-.08-.08-.08-.16-.08-.24v-.49c0-.16-.17-.24-.33-.24h-.57V51h-.4v-2.52zm-.17.49h-.73v.65h.73c.17 0 .33-.16.33-.4 0-.17-.08-.25-.33-.25m-63.86-11c-.98.16-1.22 1.71-1.47 2.53a9 9 0 0 0-.24 4.64c.08.65.65 1.46 1.22 1.7.9.42 1.71-.4 2.04-1.21.57-1.39.32-3.1.32-4.97 0-1.06-.4-2.85-1.87-2.69m49.04-16.13 2.6 7.98 9.21-.73-7.33 7 2.6 8.64-6.51-4.97-7.09 6.2 2.45-9.62-6.85-5.46 8.48-.9z"/></svg>