<svg xmlns="http://www.w3.org/2000/svg" viewBox="0 0 224 224"><g fill="currentColor"><path d="M0 112v112h224V0H0zm84.1-39.3c.1 1.6.1 3.2 0 3.6s3.4.4 7.6 0c13.1-1.3 37.8-.7 48.8 1.2 18.5 3.2 33.8 9.1 44 16.8 7.6 5.8 10.7 10.4 11.3 16.7.4 4.9 2.2 7.1 2.2 2.7 0-7.8-7.1-17.4-17.7-23.9-6.1-3.8-18.5-9-24.1-10.3-1.8-.4-3.1-.9-2.8-1.2.8-.8 11.6 2.7 19.1 6.1 15.3 7.2 24.8 16.9 26.1 26.8.6 4.3 1.1 5 3.9 6.2 6.5 2.8 10.3 10.9 8.4 18.1-2.4 9-8.8 13.6-18.6 13.3-4.3-.1-4.8-.2-1.8-.5 7.9-.6 10.5-1.4 13.5-4 5.8-4.8 7.8-12.6 5-19.3-1.8-4.4-9-8.4-13.7-7.7-4.1.7-8.3 4.2-8.3 6.9 0 1.8.2 1.8 2.2.4 3.3-2.3 7.5-2 10.3.9 4.9 4.8 1.7 12.9-5.5 14l-3.5.6 4-1.5c2.2-.8 4.5-2.3 5.2-3.3 2-2.6 1.5-6.7-.9-9.1l-2.3-2.1-5.3 5.9-5.2 5.9 2.2 1.5c1.6 1.2 1.8 1.6.7 1.6-3.4 0-5.2-3.8-5.9-12.2-.6-7.1-1.1-8.5-3.3-10.4l-2.6-2.2 2.4-1.6c1.9-1.3 2.5-2.5 2.5-5.4 0-2-.7-4.5-1.4-5.5-1.4-1.9-11.8-7.2-16.1-8.3-2.3-.6-2.5-.4-2.5 2.9 0 2 .5 3.9 1 4.2.6.3 1 4.8 1 10.1 0 5.6-.4 9.4-1 9.4-.5 0-1 1.6-1 3.5 0 3.1.4 3.6 4.6 5.5 2.6 1.1 4.8 2 5 2 .9 0 .3-7.9-.6-8.5-1.6-1-1.2-7.5.4-7.5 2.4 0 3 2.1 3.6 12.7.6 11.3 1.8 13.8 8 18 1.8 1.3 3 2.3 2.6 2.3-1.6 0-6.6-3.1-7.9-5-1.4-2-1.4-2-5.5 0-5.9 2.9-6.6 2.4-.9-.6 6.6-3.4 5.4-4-2.1-.9-18.6 7.6-41.2 11.1-64.2 10.2-21.1-.9-33.4-3.3-48.5-9.4-11.4-4.6-15.7-7.2-22.2-13.6-2.9-2.8-5.3-4.6-5.3-4 0 2.1 11.7 12 18.3 15.3 3.6 1.9 6.4 3.6 6.2 3.8-1.4 1.5-20-11.1-23.8-16.2-3.1-4-3.3-4.6-1.2-4.6 5.4 0 10.5-6 10.5-12.5 0-5.9-6.3-10.5-10.7-7.7-.7.5-1.5 3-1.8 5.8l-.5 4.9 1.1-3.8c1.2-4 3.2-4.5 3.7-.8.4 2.9-1.4 5.1-4.3 5.1-2.8 0-4.8-2.3-4.2-4.7.4-1.4.5-1.3.6.4.2 3.7 2.1 2.6 2.1-1.1 0-2.3.9-4.5 2.6-6.6 1.5-1.7 2.4-3.3 2.1-3.6-1.2-1.2-4.9 1.9-6.3 5.2-.8 1.9-1.6 3.4-1.9 3.4-1.6 0 2.7-6.9 5.5-8.7 4.3-3 13.8-6 14.9-4.7.5.5 2.3 9.2 4 19.4 1.8 10.1 3.3 18.6 3.5 18.7.1.2 2.1-.5 4.4-1.5 3.9-1.6 4.1-2 5.1-7.8.6-3.3 1.1-6.8 1.1-7.7s.4-1.7.9-1.7 1.3 2.4 1.6 5.3c1 7.5 1.5 8.1 6.1 7 4.5-1 4 .5 8-25.3 2-13 3.1-18 4.5-19.6 1.9-2 2.7-9.4 1.2-9.4-.5 0-3.5.8-6.8 1.8l-6 1.8-.3 4.7c-.2 3.8 0 4.7 1.3 4.7s1.5.7 1 3.2c-.4 1.8-1.2 7.1-1.8 11.8l-1.3 8.5-1.8-10.2c-1.8-9.6-1.8-10.4-.3-12.1 1-1 1.7-3.5 1.7-5.5 0-4.3-.8-4.5-8.5-1.8-4.7 1.7-5 2-5.3 5.5-.2 2.7.2 4.1 1.4 5 1.6 1.2 1.6 1.9 0 11.2-1 5.4-1.9 10-2 10.1-.2.2-.8-2.9-1.5-6.9s-1.4-8.2-1.7-9.4.1-2.8 1-3.7c1.3-1.3 2.4-9.7 1.3-9.7-1.5 0-23.2 7.8-26.7 9.5-8.5 4.4-13 10.8-13 18.7 0 6.1 2.6 10.5 7.9 13.4 2.5 1.3 3.5 2.2 2.1 1.8-6.9-1.7-11-7.3-11-14.9.1-9.3 5.1-16.1 15.5-20.9 4.8-2.2 52.3-17.4 54.8-17.5 1.2-.1 1.7.7 1.8 2.6m36.2 1c-4.5.2-12.2.2-17 0-4.8-.1-1.1-.3 8.2-.3 9.4 0 13.3.2 8.8.3m-28.5 1c-1 .2-2.6.2-3.5 0-1-.3-.2-.5 1.7-.5s2.7.2 1.8.5m44 0c-1 .2-2.8.2-4 0-1.3-.2-.5-.4 1.7-.4 2.2-.1 3.2.1 2.3.4m6.5 1c-.7.2-2.1.2-3 0-1-.3-.4-.5 1.2-.5 1.7 0 2.4.2 1.8.5M150 77c2 .6 2.1.8.5.8-1.1 0-3.1-.4-4.5-.8-2-.6-2.1-.8-.5-.8 1.1 0 3.1.4 4.5.8m23.9 27.2c1.1 3.1.2 6-1.8 5.6-2.3-.4-2.9-7.8-.6-7.8.8 0 1.9 1 2.4 2.2M64.5 147.1c2.8 1 4.5 1.8 3.9 1.8-1.4.1-13.4-4-13.4-4.6 0-.5 1.9.1 9.5 2.8m100.4-1.1c-2 1.2-15.9 5-17.9 4.9-.8 0 2.5-1.2 7.4-2.5 5-1.3 9.2-2.7 9.5-2.9.2-.3.9-.5 1.5-.5s.4.5-.5 1m-84.4 5c2.7.7 2.7.8.5.8-1.4 0-3.6-.4-5-.8-2-.6-2.1-.8-.5-.8 1.1 0 3.4.4 5 .8m63.8.7c-.7.2-2.1.2-3 0-1-.3-.4-.5 1.2-.5 1.7 0 2.4.2 1.8.5m-55.5 1c-1 .2-2.6.2-3.5 0-1-.3-.2-.5 1.7-.5s2.7.2 1.8.5m49 0c-1 .2-2.6.2-3.5 0-1-.3-.2-.5 1.7-.5s2.7.2 1.8.5m-38.5 1c-1.3.2-3.5.2-5 0-1.6-.2-.5-.4 2.2-.4 2.8 0 4 .2 2.8.4m30.5 0c-1.6.2-4 .2-5.5 0-1.6-.2-.3-.4 2.7-.4s4.3.2 2.8.4m-14 1c-2.1.2-5.7.2-8 0-2.4-.2-.7-.4 3.7-.4s6.3.2 4.3.4"/><path d="m87.1 86.2-7.4 1 .8 6.7c.9 7.5.9 16.1-.1 24-.5 4.8-.4 5.3 1.1 4.7.9-.3 4.8-.9 8.7-1.3 3.8-.3 7.2-1.1 7.4-1.7 1.1-2.9.8-12.9-.3-13.3-.9-.3-1.3.5-1.3 2.4 0 3.7-1.6 5.3-5.2 5.3-2.5 0-2.8-.3-2.8-3.5 0-3.6 1.3-4.7 2.4-2 1.4 3.7 2.6 1.1 2.6-5.5 0-4.4-.4-7-1.1-7-.6 0-1.3.9-1.6 2-.9 3.2-2.3 2.3-2.3-1.5 0-2.9.4-3.6 2.5-4.1 3.2-.8 5.5 1.1 5.5 4.3 0 1.5.5 2.3 1.3 2 .8-.2 1.2-2.5 1.2-6.8 0-7.4.4-7.3-11.4-5.7m19.5 4c.6 6-3 20.6-5.3 21.5-.8.3-1.3 2.1-1.3 4.4v3.9h11v-4c0-2.2-.4-4-1-4-.5 0-1-.7-1-1.5q0-1.5 3-1.5c3.3 0 3.8 1.1 1.4 3-.9.8-1.4 2.5-1.2 4.4.3 3 .4 3.1 6.1 3.4l5.7.3v-3.4c0-2.2-.7-3.9-1.9-4.8-2.7-2-6.1-16.1-5.4-22.2l.6-4.7h-11.2zm6.4 13c0 .5-.4.8-1 .8-.5 0-1-1-1-2.3 0-1.8.2-1.9 1-.7.5.8 1 1.8 1 2.2"/><path d="M118 88.6c0 2.2.6 4.1 1.6 4.8.9.7 3 6.6 4.8 14.2 3.1 12.2 3.5 12.9 5.9 13.2 3 .4 2.6 1.3 5.7-14.3 1.2-5.6 2.7-10.5 3.5-11.1s1.5-2.7 1.5-4.6c0-3.2-.3-3.6-3.1-4.2-6.7-1.3-7.9-.9-7.9 2.7 0 1.8.5 3.8 1.1 4.4 1.1 1.1.3 10-1.1 10.8-.4.2-1.3-2-2-5-1-4.3-1-5.7-.1-6.9.7-.8 1.1-2.7.9-4.3-.3-2.6-.6-2.8-5.5-3.1l-5.3-.3zm24.5 3.1c1.3 7.3 1.7 23.3.5 23.3-.7 0-1 1.4-.8 3.7.3 3.6.5 3.8 5.3 4.9 2.8.7 6.9 1.6 9.3 2.2l4.2 1v-7.4c0-5.8-.3-7.4-1.4-7.4-.9 0-1.6 1.2-1.8 2.7-.3 2.4-.8 2.8-3.3 2.8-2.9 0-3-.2-3.2-4.5-.1-4.2-.1-4.3 1-1.8q2.7 6.9 2.7-4.2c0-7.3-.4-8.1-2.6-5.3-1.2 1.6-1.3 1.4-1.4-2 0-2.9.4-3.7 1.8-3.7 2.8 0 5 2.2 5.4 5.4.2 1.6.9 3.1 1.6 3.4 1 .3 1.2-1.2 1-6.4l-.3-6.8-7-1.8c-3.8-.9-8.1-1.8-9.4-1.8-2.1 0-2.3.3-1.6 3.7M33 97.6c-1.7 1.5-2.9 2.9-2.6 3.2s2-.9 3.8-2.7c3.9-3.8 3.1-4.1-1.2-.5m156.3 31.1c-2.4 2.4-4.3 4.6-4.3 4.9 0 1.1 5.8-3.7 7.4-6.2 2.7-4.1 1.5-3.6-3.1 1.3m-120 2.7c.9.7 1.7 2.6 1.7 4.1s-.8 3.4-1.7 4.1c-1.6 1.2-1 1.3 4.5 1.4 5.5 0 6.2-.2 6.2-2 0-1.1-.4-2-1-2a1 1 0 0 0-1 1c0 .5-.9 1-2.1 1-1.9 0-2.1-.5-1.7-4.5l.3-4.5H71c-3.1.1-3.3.2-1.7 1.4m12.3-.3c1.3 2.1 1.4 7.2.3 8.6-.9 1.1-.1 1.3 4.4 1.3 4.2 0 5.6-.4 6.1-1.6.8-2.2-.1-3.1-1.6-1.6s-5.8 1.6-5.8.2c0-.6.7-1.3 1.5-1.6.8-.4 1.5-1 1.5-1.5s-.7-.9-1.5-.9-1.5-.5-1.5-1c0-1.3 4.3-1.3 5.7.1.8.8 1.3.8 1.7 0 1.3-2.1-.6-3.1-6-3.1-3.9 0-5.3.3-4.8 1.1m14.8.5c.3.8-.1 3.1-.9 5.1-1.9 4.5-1.9 4.3.9 4.3 1.9 0 2.3-.4 1.9-2-.4-1.5 0-2 1.7-2s2 .4 1.5 2-.2 2 1.9 2c3.1 0 3 .2 1.1-4.3-.8-2-1.2-4.3-.9-5.1.5-1.3-.2-1.6-3.6-1.6s-4.1.3-3.6 1.6m3.8 3.6c-.9.9-1.2.7-1.2-1.2s.3-2.1 1.2-1.2.9 1.5 0 2.4m4.8-3.6c0 1.1.6 1.4 2.1.9 2.1-.7 2.2-.5 1.7 3.9-.5 4.3-.4 4.6 1.7 4.6s2.2-.3 1.7-4.6c-.5-4.4-.4-4.6 1.7-3.9 1.5.5 2.1.2 2.1-.9 0-1.3-1.2-1.6-5.5-1.6s-5.5.3-5.5 1.6m13 1.5c.5 1.8.5 4 0 5.5-.9 2.2-.7 2.4 2.2 2.4 2.5 0 2.9-.3 2-1.2-2-2-1.4-4 1.1-3.6 1.6.2 2.1.9 2 2.6-.2 1.5.3 2.2 1.5 2.2 1.4 0 1.7-.9 1.7-5.5s-.3-5.5-1.8-5.5c-1.4 0-1.7.5-1.2 2 .5 1.7.2 2-2 2s-2.5-.3-2-2c.5-1.6.2-2-1.9-2-2.3 0-2.4.2-1.6 3.1m13.5 2.4v5.5h5.3c4.5 0 5.2-.3 5.2-2 0-1.1-.4-2-1-2a1 1 0 0 0-1 1c0 .5-1.1 1-2.5 1-2.8 0-3.6-3-.7-3 1.6-.1 1.6-.1 0-1.4-1-.7-1.8-1.6-1.8-2 0-1.1 4.6-.6 5.8.6.9.9 1.2.7 1.2-1 0-2-.5-2.2-5.2-2.2h-5.3zm13.1-1.5c.4 2.6.2 4.5-.6 5.5-1.1 1.3-.8 1.5 1.7 1.5 2.7 0 3-.3 2.5-2.6-.4-2-.1-2.5.9-2.2.8.3 1.5 1.4 1.7 2.6.2 1.4 1.1 2.2 2.3 2.2 1.7 0 1.9-.4 1.3-2.3-.5-1.2-.7-3.7-.6-5.5l.2-3.2h-10zm6.4-1c0 .5-.7 1-1.5 1s-1.5-.5-1.5-1c0-.6.7-1 1.5-1s1.5.4 1.5 1"/></g></svg>