<svg xmlns="http://www.w3.org/2000/svg" viewBox="0 0 365 114"><g fill="currentColor"><path d="M4.5 6.2c1 3 27.4 69.8 28.1 71 .4.6 4.4-7.4 8.9-17.7 4.6-10.3 8.6-18.9 8.8-19.2.7-.6 3.2 4.3 11.7 22.9 3.4 7.6 6.5 13.8 6.9 13.8.3 0 1.8-3.3 3.3-7.3 1.4-3.9 7.4-19.8 13.2-35.2S96 6.1 96 5.7s-3.4-.7-7.6-.5l-7.6.3-6.4 16c-3.6 8.7-6.6 16.1-6.8 16.2-.1.1-3.9-6.9-8.5-15.7-4.5-8.8-8.6-15.8-9-15.6-.3.3-4 7.5-8 16C38 31 34.4 38 34 38c-.3 0-3.5-7.1-6.9-15.8-3.5-8.6-6.7-16.2-7.2-16.8s-4.3-1.2-8.5-1.3c-7.5-.2-7.6-.2-6.9 2.1M261 39.7V75h15l-.2-35.1-.3-35.1-7.3-.1-7.2-.2zm18.2-34.5c-2.2 2.2-1.4 5.7 1.3 6.4 4.5 1.1 7.1-2.9 3.9-6-1.9-1.9-3.6-2-5.2-.4M112.3 20.5c-5.1 2.3-5.3 2.3-5.3.5s-.7-2-7-2h-7v55h14V56.5c0-17.2.1-17.6 2.4-20 2.1-2.1 8.1-4.5 11.4-4.5.8 0 1.2-2.1 1.2-7 0-6.6-.1-7-2.2-7-1.3 0-4.7 1.1-7.5 2.5m111.9-.9c-2.2.6-5.5 2.3-7.4 3.8-3.8 2.9-8.7 11-8.9 14.7-.1 1.3-.7-.4-1.3-3.9-1.4-6.8-4.1-10.6-9.3-12.8-4.2-1.8-13.5-1.8-17.8 0-3.3 1.4-3.5 1.4-3.5-.5 0-1.7-.7-1.9-7.6-1.9h-7.6l.3 27.5.3 27.5H176V57.1c0-16.5.1-17.1 2.4-19.8 1.9-2.2 3.2-2.8 6.5-2.8 6.5 0 7 1.4 7.2 20 .1 8.8.1 16.8 0 17.7-.2 1.6.7 1.8 7.3 1.8h7.6v-4.5c0-2.5.3-4.5.6-4.5s2.8 1.9 5.6 4.1l4.9 4.2 2.7-2.5c3.7-3.5 6.5-4.8 10.2-4.8 10.6 0 18.3 12.6 13.5 22-4.6 8.9-16.4 10.8-24.1 3.9-2-1.8-2.1-1.8-6.7 2.9l-4.8 4.8 2.1 2.7c1.1 1.4 4.6 3.8 7.6 5.3 11.1 5.4 24.8 3 33.1-5.8 5.8-6.2 7.8-11.3 7.7-20.3-.1-8.8-2.1-14.6-6.9-20.3l-2.7-3.2 2.2-4.7c1.9-4 2.2-6 1.8-13-.4-6.9-.2-8.2 1.2-8.6 1.5-.4 5-11.1 3.9-12.1s-31.2-1.1-34.7 0m13.1 16.2c3.9 3.7 3.8 9.3-.3 13.4-2.7 2.6-3.6 3-6.8 2.5-7.9-1.3-11.1-10.6-5.4-15.9 4.5-4.3 7.8-4.3 12.5 0m-26 19.5c1.5 2.3 1.5 2.6-1.4 5.3l-2.9 2.8.1-10c0-9.8 0-9.8 1.3-5.2.7 2.5 2 5.7 2.9 7.1m-85-32.1c-.7 2.4-1.5 5.1-1.8 6-.6 1.6.4 1.8 10.2 2l10.8.3v6l-8.1-.3c-11.4-.5-16.4 2.3-20.6 11.7-4.6 10.1 1.8 21.9 13.5 25.2 3.8 1 12-.3 14.4-2.3 1-.8 1.3-.6 1.3.5 0 1.9 1.8 2.3 8.1 1.9l4.9-.4V48c0-14.2-.3-26.5-.6-27.4-.5-1.4-2.9-1.6-15.8-1.6h-15.2zm17 29c2.4 2.9 2.1 5.3-1 7.8-3.7 2.9-8.9 2.4-11.6-1.1-2.5-3.5-1.5-6.6 2.6-8.4 3.9-1.7 7.6-1 10 1.7M294 21.1c-5.9 2.7-10.8 7.4-13.2 12.9-3 6.5-2.9 17.8.1 24.7 2.8 6.4 10 13.3 16.4 15.8 6.8 2.6 16.7 1.7 23.6-2 7.7-4.2 7.9-4.7 4.8-11l-2.6-5.4-5 3.3c-6.7 4.5-10.9 5.2-16.6 2.7-2.5-1.1-4.5-2.4-4.5-2.9 0-.8 18.2-14 30.3-22.1 2-1.3 3.7-2.8 3.7-3.2 0-2.3-7.2-9.7-11.9-12.1-4.5-2.4-6.5-2.8-13-2.8-5.5 0-8.9.6-12.1 2.1m16.3 11.6c1.4 1.7.9 2.3-8.4 8.6l-9.9 6.8v-3.8c0-6.9 6.3-13.3 13.1-13.3 2.2 0 4.2.7 5.2 1.7m44.8-12.5c-1.8.5-4.4 1.6-5.7 2.5-2.3 1.4-2.4 1.4-2.4-.6 0-1.9-.5-2.1-7-2.1h-7.1l.2 25.5c0 14 .3 26.4.6 27.5.5 1.7 1.4 2 6.9 2h6.4l.1-14.8c.1-18.9.3-20.7 2-22.8 1.8-2.2 7.1-4.4 10.4-4.4 2.4 0 2.5-.2 2.5-7 0-7.7-.1-7.8-6.9-5.8M32 87.5c0 .8.5 1.5 1 1.5.6 0 1-.5 1-1 0-.6.7-1 1.5-1 1.9 0 2.2 10.6.3 11.3-.7.3.3.5 2.2.5s2.9-.2 2.3-.5c-1.9-.7-1.7-11.3.1-11.3.8 0 1.8.5 2.2 1.1.4.8.9.7 1.6-.2.6-.9.8.8.6 4.9-.2 5 0 6.2 1.2 6.2 1.1 0 1.5-1.1 1.5-3.7 0-2.2.5-3.8 1.4-4.1 1-.3 1.2.5.9 3.7s0 4.1 1.2 4.1 1.4-1 1.2-4.5c-.4-4-.7-4.5-2.8-4.5-1.7 0-2.4-.6-2.4-2 0-1.8-.7-2-7.5-2-6 0-7.5.3-7.5 1.5m35 .2c.5 1 1.8 4 2.9 6.8 2 5.4 2 5.4 4.3-1.5.3-1 1.1-.1 2.3 2.5l1.7 4 2.1-6c1.1-3.3 2.5-6.3 3.1-6.7.6-.5.1-.8-1.2-.8s-2.1.4-1.8.9 0 2.3-.8 4.1l-1.3 3.2-1.1-3.2c-.7-1.8-.9-3.6-.6-4.1s-.7-.9-2.2-.9c-2.2 0-2.4.3-1.5 1.4.7.9.9 2.5.5 4.3l-.7 2.8-1.4-3.3c-.7-1.8-1.1-3.7-.8-4.3.4-.5-.5-.9-1.9-.9-2.2 0-2.5.3-1.6 1.7m66.7.1c-3.9 4.3-.8 11.2 5 11.2 5.3 0 8.4-7.8 4.5-11.3-2.5-2.2-7.5-2.1-9.5.1m7.2.6c1.7 2 1 7.7-1.1 8.9-2.4 1.6-4.8-.8-4.8-4.7 0-4.9 3.4-7.3 5.9-4.2"/><path d="M189.8 92.2c.3 4.2 0 6-.6 5.3-.6-.6-1.2-2.4-1.4-4-.2-2.3-.9-3.1-2.7-3.3-1.3-.2-2.8.1-3.4.7-1.6 1.6 0 2.6 1.8 1.1.8-.7 1.5-.8 1.5-.2 0 .5-1 1.6-2.2 2.4-3.8 2.5-1.7 4.5 4.9 4.6l5.8.1-.3-6.5c-.3-5.2-.7-6.4-2-6.4-1.4 0-1.6.9-1.4 6.2m-90.9-3c-.3 3.4.4 8.4 1.2 9.2.6.6 1.3.6 2.1-.2.9-.9.9-1.2 0-1.2-.7 0-1.2-1.3-1.2-3s.5-3 1.1-3 .4-.7-.5-1.5c-1.8-1.8-2.6-1.9-2.7-.3m-44.8 2.6c-2.1 4 1.2 8.2 5.3 6.6 2.2-.8 2-2.3-.2-1.7-1 .2-2.4-.3-3.1-1.1-1.2-1.4-1-1.6 1-1.7 1.3-.1 2.8-.1 3.2 0 .5.1.7-.6.5-1.6-.5-2.6-5.4-3-6.7-.5m28.9.3c-2.5 4.6 2.8 9.3 6 5.4 1.1-1.3 1-1.4-.4-.9-.9.3-2.4 0-3.3-.7-1.4-1.3-1.3-1.5 1.3-1.9 3.7-.7 3.9-3.4.2-3.8-1.9-.2-3 .3-3.8 1.9m8.5-1c-.4.6.3 2.1 1.6 3.5 1.2 1.3 1.9 2.7 1.5 3.1s-1.1.1-1.6-.7-1.2-1.1-1.6-.7c-1.2 1.1 1.2 2.9 3.2 2.5 2.7-.5 3-4.5.5-5.3-2.7-.8-2.7-2.9-.1-2.2 1.1.3 2 .1 2-.4 0-1.3-4.7-1.1-5.5.2"/><path d="M104.2 91.2c-.6.6-1.2 2.1-1.2 3.3 0 4.2 4.5 6 7.1 2.9 1.2-1.5 1.1-1.6-.7-1-1.4.4-2.6.1-3.4-.9-1-1.2-1-1.5.4-1.6.9-.1 2.2-.2 2.9-.3.6 0 1.2-.8 1.2-1.6 0-1.9-4.6-2.5-6.3-.8m7.8 3.3c0 3.7.3 4.5 1.8 4.5s1.7-.6 1.4-3.5c-.4-3.1-.2-3.5 1.8-3.5s2.2.4 1.7 3.5c-.4 2.6-.2 3.5.8 3.5.9 0 1.5-1.3 1.7-3.5.4-4.4 2.3-4.2 2.2.2-.1 2.2.3 3.3 1.3 3.3s1.3-1.1 1.1-4.3l-.3-4.2-6.7-.3-6.8-.3zm34.2-1c-.1 2-.4 4-.7 4.5-.4.6.4 1 1.7 1 2.1 0 2.4-.4 2-3.4-.3-2.7 0-3.4 1.8-3.9 2-.5 2.2-.3 1.8 3.4-.3 3.3-.1 3.9 1.5 3.9 1.3 0 1.7-.5 1.3-1.6-.3-.9-.6-2.9-.6-4.5 0-2.8-.2-2.9-4.3-2.9-4.3 0-4.4 0-4.5 3.5m11.9.7c0 2.4-.2 5.2-.3 6.3-.3 1.7.2 2 3.1 1.8 1.9-.1 3.8-.8 4.3-1.7.6-1.1 2.3-1.6 5.3-1.6h4.5v-4c0-2.2.5-4 1-4 .6 0 1 1.8 1 4 0 2.8.4 4 1.4 4 1.5 0 1.8-2.4 1-6.8-.4-1.8-1.1-2.2-4.2-2.2h-3.8l.4 4c.3 2.5 0 4-.7 4-.6 0-1.1-1.7-1.1-4 0-2.9-.4-4-1.5-4s-1.5 1.1-1.5 4.1c0 3.8-.2 4.1-2.2 3.5-1.3-.3-3-.6-3.8-.6-.9 0-.5-.5.9-1.3a6.8 6.8 0 0 0 3.2-3.5c.8-2 .6-2.2-3.1-2.2h-3.9zm3.9-1.1c0 1.1-.4 1.7-1 1.4-.5-.3-1-1.3-1-2.1s.5-1.4 1-1.4c.6 0 1 .9 1 2.1m2 6.9c0 .5-1.1 1-2.5 1s-2.5-.5-2.5-1c0-.6 1.1-1 2.5-1s2.5.4 2.5 1"/></g></svg>