<svg xmlns="http://www.w3.org/2000/svg" viewBox="0 0 832 832" fill="currentColor"><path d="M354.5 27.5c-32.4 3.4-46.6 5.8-71.3 12-32.5 8.2-74.8 24.9-94.2 37.3-7.7 5-6.9 5.3 3.1 1.1 46.6-19.2 93.6-30.9 136.4-34 18.3-1.3 59.6-.7 79 1.1 27.4 2.5 67 11.1 91.5 19.8 48.2 17.1 89.5 39.9 123.5 68.1C658 162.4 688 198.6 708.8 237c15 27.6 28.9 70.1 33.7 103 4 27.6 4.5 67.9 1.1 94.5-2.7 20.6-8.7 48.2-13.1 59.7-1.4 3.7-1.4 3.8.8 3.8 3.4 0 19.3-4.8 26.2-7.9 7-3.2 13.5-8.5 13.5-11.1 0-1-.7-2.4-1.6-3.1-1.3-1-1.5-2.8-1.2-8.2.4-6.5.6-7.1 4.1-10.3 2-1.9 4.6-3.4 5.7-3.4 1 0 2.5-1 3.1-2.2 1.7-3.2 2.5-56.9 1-73.8-5.3-60.7-22.2-112.9-53-163.5-36-59.3-83.7-104.3-147.6-139.4-34.9-19.3-80.4-35.3-119-42.1-33.6-5.9-81.2-8.4-108-5.5"/><path d="M315.4 88.2c.3 1.3.7 4.2 1.1 6.6.7 5.4 5.5 15 11 22.2 4.1 5.3 12.7 13.9 24.9 24.8 4.5 4.1 5.6 5.6 4.6 6.2-.8.5-5.5 1.9-10.5 3.1-46.7 11.3-96.5 35.5-131.5 64-12.9 10.5-33.7 30.5-32.7 31.5.4.4 3.9-.7 7.9-2.4 20.5-8.7 55-21.1 71.6-25.8 23.6-6.6 35.4-8.7 49.9-8.8 7.2-.1 13.5.2 13.9.7 1.1 1.1-1.6 3.5-12.1 10.8-28.5 19.8-58 34.4-100.5 49.9-23.1 8.3-67.7 19-94.6 22.5-10.9 1.4-35.7 3.4-42.8 3.5h-2.9l2.3 2.5c3.4 3.7 21 12 33.7 16 11.1 3.5 21.6 5.6 48.3 10 17.3 2.9 23 4.2 23 5.4 0 1.5-19.4 9.9-32.3 14-12.4 3.9-27.2 7.2-38.9 8.6-3.2.3-5.8 1-5.8 1.4s1.6 5.4 3.5 11.2c4.2 12.4 16.7 38.2 25.8 53.1 16 26.2 42.4 60 51.8 66.2 2.1 1.3 3.1 1.4 6 .5 1.8-.7 13-1.4 24.8-1.6l21.3-.5-.8-8.7c-1.5-14.6-1-42.4.9-54.1 4-23.9 12.3-48.8 23.6-70.6 29.9-57.6 81.2-107.6 152.1-148.3 14-8 47.8-24.8 61.5-30.6 5-2.1 9.5-4.2 10.1-4.7.8-.6 4.6 3.1 11.7 11.4 10.3 12.1 18.9 20 25.4 23.5 4.4 2.3 5 1.2 2.1-3.9-6.3-10.8-7.3-15.1-7-30.8.1-8 .4-16.3.5-18.5l.2-4-20.5-2.2c-34.9-3.7-40.1-4.3-52.3-6.4-40-6.7-86.4-23.9-118-43.7-5.4-3.4-10-6.2-10.3-6.2-.2 0-.2 1 0 2.2m122.9 73.5c.7.6-9.2 5.6-30.8 15.5l-11 5.1-10.5-1.7c-6.3-1-16.4-1.6-25.2-1.6-8.2 0-14.8-.4-14.8-.9s2.4-1.9 5.3-3.1c19.6-8.5 46.9-13.7 71.8-13.9 8-.1 14.9.2 15.2.6m-145.5 103c-14.3 16.4-20.4 23.6-27.5 33l-8.6 11.3h-5.6c-6.7 0-31.9-2.3-48.6-4.4-6.6-.8-14.2-1.8-17-2.1-5.7-.8-8-1.4-7.4-2 .3-.2 6.4-1.3 13.6-2.5 16.2-2.5 25.5-4.4 35.3-7.2 11.3-3.2 35.5-13 51.4-20.8 7.7-3.8 14.5-7 15-7s.2.8-.6 1.7M233 349.5c0 .2-3.2 5.3-7.1 11.2-12.8 19.2-21.5 40.1-25.3 60.3-1.4 7.5-3.6 27.3-3.6 32.3 0 1-.4 1.5-1 1.2-1.4-.9-16-19-25.2-31.3-13.3-17.6-31.4-46.5-30.3-48.2.2-.4 4.5-1 9.6-1.3 18.4-1.4 46.5-9 67.9-18.5 13.7-6.1 15-6.6 15-5.7"/><path d="M544.2 127.2c-6.3 6.3-9.7 12.1-13.2 22.5-4 12.1-5.4 26.2-3.4 33.9 1.8 6.8 4.5 12.2 7.7 15.2l2.5 2.3 3.8-1.9c2.2-1.1 7.3-4 11.5-6.5 4.1-2.4 8.4-4.7 9.5-5.1 1.7-.5 3.1 3.1 15.2 39.7 7.3 22.1 13.2 40.7 13.2 41.3 0 1.7-2.1 2.3-10.8 3-13.3 1.1-24.3-3.7-30-13.1-2.7-4.4-4.2-5.6-4.2-3.3 0 .7 1.4 6.5 3.1 12.8s5.1 19.1 7.5 28.5c4.2 15.9 12.8 48.5 21 79.5 2 7.4 4.3 14.6 5 16 1.4 2.4 1.4 2.3.9-2-3.5-30.3-5.1-42.3-7.6-58-2.5-16.2-5.2-31.7-6.3-37.2-.7-3.3.9-2.6 8.6 3.6 4.3 3.5 10 7.4 12.8 8.7 4.5 2.2 4.9 2.7 5 5.9.1 9.4 4.3 44.2 6.9 57.5 5.6 28.3 9 40 17.5 59.7 2.5 5.9 4.6 11 4.6 11.2s-1.9 1.5-4.2 2.9c-9.1 5.4-17.9 17.5-22.3 30.6-.9 2.8-2 5.1-2.3 5.1-.4 0-1.5-4.4-2.5-9.9-4.6-24.9-12.5-44.4-22.4-54.7-6.9-7.3-12.5-10.4-20.2-11-9.8-.9-9.6-.8-12.9-8.6-4-9.7-18.3-54.3-18.9-58.8-.4-3.1 0-3.7 3-5.7 8.3-5.2 22.1-6.9 32-3.9 5.1 1.5 5.5 1.2 3.1-2.2-6.8-9.8-29.6-9-73.9 2.3-21.9 5.6-26.1 5.6-32 .1-4.3-4.1-5.2-8.7-3.6-19.6 2.6-18.1 11.7-38.8 32.5-73.8 14.1-23.8 15.4-26.2 13.9-26.2-1.7 0-21.8 21.3-30.3 32-19.2 24.3-31.6 47.8-37.5 71.5l-2.2 9-.9-4c-1.4-6.7-.9-32.2.9-42.1 3.3-18.3 12.5-39 24.2-54.5 3.5-4.6 10.9-12.9 16.4-18.3 5.6-5.4 10-10 9.8-10.2-.7-.8-14.7 4.1-23.5 8.2-32.9 15.3-62.9 36.7-83.3 59.5-18.8 21.2-34.5 47.7-41.3 69.9-13.6 45-7.9 87.5 17.7 132.7 2.6 4.5 4.7 8.5 4.7 8.8s-9.7.5-21.4.5c-25.2 0-39 1.5-57.9 6.5s-21.7 5.8-21.7 6.6c0 .4 3.5 1 7.8 1.4 23.3 2 48.6 6 63 10.2 4.9 1.4 5.5 1.3 8-.4 4.6-3.1 8.3-4.3 13.2-4.3 3.8 0 5.6.6 9 3.2 2.4 1.8 5.1 3.9 6.1 4.6 1.5 1.2 2.2 1 4.8-.9l3-2.2 15.3 2.1c21.5 3.1 38.5 5 51.2 5.8l10.9.7-2.1-2.9c-1.1-1.6-3.7-4.5-5.7-6.4-6-5.7-18.6-20.7-27.9-33.2-23.3-31.5-40.2-63.7-46.2-88.2-5.5-22.9-5.5-45.1.1-64 3.6-12.4 13.2-31.4 21.2-42.1 11-14.6 31.8-34.5 46.7-44.4 5-3.3 7.1-3.5 4.4-.4-7.4 8.5-16 24.1-21.2 38.6-4.7 13-6.6 23.1-7.3 38.2-1.8 41 10 81.6 42.5 145.5 15.3 30 30.9 58.9 33.1 61.2 1.3 1.4 4.7 1.8 20.9 2.4 10.5.4 19.2.4 19.2.1s-2.7-4.9-5.9-10.4a5182 5182 0 0 1-12.3-20.3c-3.4-5.8-10-16.6-14.6-24-22.7-36.3-44.4-75.9-47.6-86.7-.7-2.1-.6-2.1 4-.7 5.2 1.6 13.6 1.8 20.2.5l4.4-.9 11.3 15.2c6.3 8.3 16.6 21.8 22.9 30.1 6.4 8.2 11.6 15.4 11.6 16 0 .5-1.8 5.2-4.1 10.4-5.3 12.1-6.1 19.1-2.7 24.1 1.3 1.9 4.4 4.9 7 6.6 6.4 4.3 24.4 10.6 31 10.8l5.3.1-.3-5.5c-.2-3-2.5-12.3-5.2-20.5-5.9-18.5-6.4-20.6-5.6-26 1-6.4 4.5-9.5 10.8-9.5 3 0 5 .5 5.3 1.2.2.7 1.1 13 2 27.3s2 26.3 2.3 26.7c.4.4 4.3.8 8.7 1l7.9.3 1.1 5.5c2.6 12.7 7.9 17.2 22.3 18.9 12.8 1.5 19.4-3.1 19.1-13.4-.2-5.7 1.4-12.2 4.3-17.9 1.9-3.7 11.6-16.8 18.5-25 1.8-2.2 3.3-4.6 3.3-5.3 0-.8-3.4-5-7.5-9.3-5-5.2-8.6-10.1-10.5-14.2-6.8-14.7-19-73.4-19-91.7 0-6.9 1.7-10.9 7.2-16.9 2.6-3 4.8-5.8 4.8-6.4 0-1.4-13.2-41.5-17.5-53.3-5.6-15.1-20.3-59.8-21-63.8-.6-3.2-1.3-4-5.4-5.8-5.8-2.5-10.3-6.8-15.2-14.3-4.7-7.1-7.6-16.4-9.2-29.2l-1.2-9.6zm-35.2 237c4.6 8.4 11.8 21.2 16.1 28.5l7.6 13.1-1.8 2.9c-1.1 1.5-2.6 5.2-3.5 8-.8 2.9-1.9 5.3-2.3 5.3-1.2 0-5.6-5.1-9.8-11.5-7.7-11.5-22-35.1-26.4-43.3-3.7-7-4.2-8.4-2.9-9.2.8-.5 4-2.6 7-4.8s6-4.1 6.5-4.1c.6-.1 4.8 6.8 9.5 15.1m58.7 64.1c2.8 5.6 5.4 17 6 26.9l.6 9.8h-9l-.7-14.3c-.4-7.8-1-17.4-1.3-21.2-.6-6.6-.5-6.9 1.1-5.6 1 .8 2.4 2.8 3.3 4.4"/><path d="M573.5 162.9c2.2 2.4 7.7 7.2 12.3 10.8 6.1 4.9 8.1 7.1 7.6 8.2-1.4 3.2-3.4 11.6-3.4 14.2 0 5.2 4.9 21.7 8.7 29.6 4.8 9.8 11.8 20.4 17.8 27.1 5.4 6 17.3 14.3 24.6 17.3 6.4 2.5 16.7 2.9 21.9.7l3.5-1.5-7.7-.6c-9.5-.7-15.3-3.5-18-8.8-3.4-6.6-4.3-19.4-2.7-38.9 2.1-25.6 1.9-34.4-.9-40.2-6.5-13.4-23-20.2-52-21.4l-15.7-.6zm226.2 288.8c-.3.5-.8 3.5-1.2 6.8-.3 3.3-1.2 7.1-1.9 8.4-1.2 2.1-1 3.2 1.5 8.5 1.6 3.4 3.4 9.6 4 13.8 1.3 8.6.5 7.9 11.4 9.3 2.8.3 6.6 1.1 8.5 1.8 3.3 1.1 2.9 1.2-7 2.2-9.5.9-10.5 1.2-10.8 3.1-.3 2 .3 2.1 12.3 2.8 6.9.4 13.3 1 14.1 1.3 1.2.4 1.4-3.3 1.4-26.6 0-14.9-.3-27.1-.6-27.1-.6 0-9.4 7-14.1 11.4-1.8 1.6-3.6 2.7-3.9 2.3-.4-.4-.2-4.4.3-8.9.6-4.6.8-8.6.6-9.1-.2-.4-3.5-.7-7.3-.7s-7.1.3-7.3.7m-20 13c-.2.5-.7 2.4-1.1 4.4-.5 2.8-.2 3.9 1.4 5.4 2.5 2.3 2.5 4.8 0 10-8.1 16.8-50.4 28.1-128 34.2-17.4 1.4-33.8 1.8-73 1.8-52.6 0-61.3-.4-127.5-5.5-42.5-3.3-40-3.1-65.9-6.5-10.3-1.4-19.2-2.5-19.6-2.5s-.5 3.8-.2 8.5c.2 4.7.2 8.5-.2 8.5-.3 0-5.5-4.6-11.4-10.1-5.9-5.6-11.7-10.6-12.9-11.2-1.7-.8-3.9-.3-10.2 2.2l-8 3.3-7.8-2c-30.1-7.7-58.7-11.2-91.7-11.2-40 0-72.2 6.7-117.1 24.2-4.9 2-10 3.9-11.1 4.2-2.4.7-4.1 3.1-13.9 19.6-9.1 15.3-12.4 19.8-14.9 20.6-4.6 1.4-12.6 7.5-15.4 11.6-1.6 2.4-3.9 7.2-5.1 10.6-4.7 13.9-12.1 71-10 77.2.8 2.1.8 4.4 0 7.8-1.8 7.5-.6 41.6 1.8 53.1 2.8 13.4 8.2 20.4 17.5 23 6.3 1.7 18.3-1.6 28.1-7.8 8.9-5.6 37.5-27.8 37.5-29 0-.4-2.9-3.3-6.4-6.4l-6.4-5.7-8.9 3.2c-4.8 1.7-9.5 3.7-10.4 4.4-.8.8-4.2 2-7.5 2.7-7.8 1.8-8 4-.4 4.7l5.5.5-3.8 1.3c-3.4 1.2-7.7 1.2-14.1 0-2.5-.4-3.1 1.6-1 3.7 1.4 1.4 2.9 1.6 7.8 1.2 3.4-.3 7.2-.8 8.6-1.2 1.5-.4.9.2-1.5 1.5-5.4 3.1-16.4 3.9-19.9 1.6-3.1-2-3.6-2-3.6-.2 0 .8 1.2 2.4 2.6 3.5 2.9 2.3 10.4 2.8 16.2 1.2 1.9-.6 3-.6 2.7-.1-.8 1.3-10.3 4-14.1 4-1.7 0-5.1-.7-7.4-1.5s-4.6-1.2-5.1-.9c-1.4.8-1 3 .9 4.6 3.8 3.4 15 2.4 25.5-2.2 2.7-1.2 5.1-2 5.3-1.7.7.7-8.8 5.4-15.3 7.6-7.7 2.6-13.5 2.6-18.9.2-11.2-5.1-9.5-16.6 3.8-26.6 14.4-10.8 42.4-19.8 76.8-24.7 6.3-.8 19-1.3 37.5-1.2 30 .1 36.8.7 66 6.5 20.4 4 21.2 3.9 25.4-1.6 1.8-2.5 3.7-4.5 4.1-4.5.8 0 8.3 11 10.8 15.6.6 1.1 2.6 2.5 4.4 3.1s7.1 2.7 11.7 4.7c6.3 2.6 9.4 3.4 12 3.1 2-.3 13.1-1 24.6-1.5 19.6-.9 50.1-2.6 90-5 41.5-2.4 101.4-3.3 143.3-2 22.8.6 41.6.9 41.9.6s-.4-2.9-1.6-5.7c-1.9-4.7-2.9-12.9-1.6-12.9 1 0 8.7 4 16.6 8.7 4.2 2.4 10 6.9 12.8 9.8 6.1 6.4 8.5 7.1 20.7 6.1 27.4-2.1 75.5-15.9 103.4-29.6 9.9-4.9 22.5-13.6 26.5-18.2 1.9-2.3 4.2-6.4 5-9.2 6.4-21.6 11.5-126.1 7.6-155.6-2.3-16.9-10.5-35.4-13.4-30.3M682.4 545c5 1.9 10.2 7.7 12 13.4 1.5 4.5 1.6 8.2 1.2 23.4l-.6 17.9-6.9 13.6c-14 27.4-21.1 35.1-36.4 39.8-7.5 2.3-11.7 2.4-18.3.4-6-1.7-10.7-6.3-12.9-12.4-1.8-5.2-2-17.8-.4-28.5.8-5.6.8-8.3 0-10.8-1-2.8-.9-3.6.9-5.8 1.1-1.4 4.7-8.1 8-14.8 3.3-6.8 7.9-15.2 10.4-18.6 5.2-7.3 14.5-14.4 21.9-16.8 5.8-1.9 17.2-2.3 21.1-.8m73.2 1.2c1.6 1.3 3.4 2.9 4 3.7 1.3 1.6 3.4.7 3.4-1.5 0-1.1 1.5-1.4 6.3-1.4 3.5 0 6.6.2 6.9.5.6.7-5.7 25.4-7.7 30.2-1.4 3.3-1.4 3.3-8.4 3.3H753l.6-4.4c1.2-8.4-2-13.6-8.4-13.6-4.8 0-8.9 2.8-11.3 7.7-2.3 4.8-1.9 7.6 1.6 9.9 2.1 1.3 2.7 1.3 6 0 4.7-2 4.2-2.1 6 1.3.9 1.9 2.6 3.2 4.4 3.6 7.6 1.6 11.5 7.9 11.4 18-.1 16.7-13.3 39.5-26.9 46.5-2.3 1.1-6.9 2.5-10.3 3.1-7 1.1-10.6 0-15.9-4.9l-3.2-3.1-1.7 2.7c-1 1.5-2.2 3-2.8 3.4-1.4 1-12.3 1-12.9 0-.2-.4.6-4.6 1.9-9.2 1.3-4.7 3.1-11.6 4.1-15.3l1.7-6.8 9 .3 8.9.3.2 4.9c.2 6 2.9 8.6 8.8 8.6 6.9 0 10.9-3.3 13.2-10.7 1.5-4.8-6.3-8.2-10.8-4.8-1.8 1.4-2.2 1.2-4.5-1.6-1.9-2.2-3.7-3.2-6.9-3.6-5.1-.7-8.6-4.2-10.3-10.6-1-3.7-.8-5.6 1.6-15.2 4.3-17.3 12.3-30.2 23.4-37.9 8.6-6 20.3-7.5 25.7-3.4m-551.6.6c5.5 2.7 8 8.7 8 19 0 8.7-.6 10.6-6.5 20.6-3.1 5.4-9.6 10.6-13.1 10.6s-3.6 1.5-.3 3.9c4 3 5.9 7.8 6.2 15.5.2 5.3-.3 7.1-3.3 13.1-4.1 8.1-11.3 16.3-17.5 19.9l-4.4 2.6h-29.5c-33.8 0-30.8 1.1-27.7-10l1.8-6.5 4.4-.7c2.4-.4 5.1-1.6 6.1-2.6 3.7-3.6 10.4-27.9 9.2-32.8-.5-1.8 0-3.2 1.4-4.7 4.1-4.4 10.8-26.9 9-30.1-.5-.9-2.7-1.9-4.8-2.2-2.2-.4-4-1.1-4-1.6 0-1.5 3.1-12.1 4.2-14.1.8-1.6 3.2-1.7 29.1-1.7 24.8 0 28.6.2 31.7 1.8m91.4-1c.3.5.1 2.4-.4 4.3s-1.3 5.2-1.9 7.5c-.9 3.5-1.6 4.2-4.9 5.2-3.2 1-4.1 1.9-5.1 4.9-2.1 6.3-2.5 21.1-.8 26 1.3 3.9 1.3 4.7-.5 10-2 6.1-3.5 23.2-2.4 27.6.4 1.9 1.4 2.7 3.4 2.9 2.2.2 2.7.7 2.5 3-.1 1.4-1.4 5.3-3 8.5l-2.8 5.8-18.4.3c-10.2.1-18.8-.1-19.2-.5-1.3-1.4 2.2-16.3 3.8-16.3 3.8 0 7.1-3 8.2-7.4.6-2.5 1.1-5 1.1-5.5 0-.7-4.1-1.1-11.5-1.1h-11.4l-2.1 4.7c-2.4 5.5-2.1 7 2 8.4 3.6 1.3 3.6 1.7.6 10.5l-2.4 6.9-15.7.3-15.7.3.6-3.5c.4-1.9 1.3-5.7 2.2-8.5 1.2-4.2 1.9-5.1 3.8-5.1 1.3 0 3.5-1.1 4.9-2.4 5.9-5.4 16.7-25.6 16.7-31.1 0-2.2.9-4 3.1-6.1 1.7-1.6 5.7-7.4 9-12.8 8.6-14.5 9.8-19.6 4.7-19.6s-5.2-.7-.2-16.8c.2-.9 6.3-1.2 25.8-1.2 14 0 25.7.4 26 .8m81.6 1.4c1.8 1.3 4.3 4.3 5.6 6.8 2 3.8 2.4 5.9 2.4 13.6 0 8.9-.1 9.2-4 15.3-4 6.1-12.3 15.1-14.1 15.1-.5 0-.9.7-.9 1.5s.4 1.5.8 1.5c1.6 0 4.2 6 4.2 9.7 0 2.1-.9 7.2-2 11.3-2.5 9.4-2.5 9.5.2 12.2l2.1 2.1-2.5 7.6-2.6 7.6h-10c-9.2 0-10.3-.2-12.6-2.4-3.9-3.7-4.2-7.6-1.1-17.2 3.8-12.2 4.2-16.8 1.6-19.7-1.6-1.6-3.3-2.2-6.7-2.2-5.1 0-5.1-.1-8.7 13.4l-2.1 7.9 2.2 1.8c1.2.9 2.7 1.9 3.2 2.1 1 .3-2.5 13.2-4.3 15.5-.7 1-5.9 1.3-19.8 1.3-21.5 0-19.8 1-17.3-10 1.5-6.7 1.6-6.8 5.2-7.5 4.4-.8 5.8-1.9 7.9-5.9 2.5-4.8 6.3-20.5 6.3-26.3 0-4 .6-6.2 2.9-9.5 1.5-2.4 3-5.2 3.3-6.3s1.7-6 3.2-10.8c2.9-9.9 2.4-12.7-2-12.7-1.3 0-2.7-.7-3.1-1.5-.6-1.8 1.3-9.5 3.4-13.8l1.4-2.7h27.3c26.7 0 27.4.1 30.6 2.2m84.1.1c7.1 4.8 10.8 18 8 28.4-1.4 5.1-9.9 16.8-15.2 20.7-3.5 2.6-3.7 3.1-2.4 4.6.8.9 2.1 3.3 3 5.3 1.5 3.6 1.4 4.4-1.1 14.8l-2.6 11 2.3 2.5 2.3 2.5-2.4 7.2-2.5 7.2-9.1.3c-8 .2-9.4 0-12.4-2-5.5-3.7-5.8-7-2.1-18.7 5-15.9 4-20.1-5-20.1h-4.8l-1.4 4.7c-4.4 15.1-4.5 18-.6 19 2.3.6 2.1 2.7-1 11.8l-1.7 5-19.8.3-19.9.2.7-3c.3-1.7 1.3-5.5 2.1-8.4 1.5-5.1 1.8-5.4 5.5-6 4.5-.7 7.5-3.9 9.1-10 .7-2.2 2-7 3-10.5 1.1-3.5 1.9-8.6 1.9-11.3 0-3.4.6-5.9 2.1-7.9 2.3-3.2 7.3-17.5 8.4-23.7 1-5.9 0-8.2-3.5-8.2-1.6 0-3.1-.4-3.5-.9-.3-.5.6-4.6 2-9l2.6-8.1h27.3c26.8 0 27.4 0 30.7 2.3m92.5 1.5c-.3 2.2-1.2 6.1-2.1 8.8-1.3 4.5-4.5 15.8-7.4 26.1l-1.2 4.3h-16.7l2.4-7.5c3-9.6 3-10-.5-13.6-2.4-2.3-3.8-2.9-7.5-2.9-3.4 0-4.6.4-5 1.7-2.5 8.3-5.5 21.7-5 22.5.3.5 2.9.8 5.8.7 6.5-.4 6.7.7 2.9 11.6l-2.8 8-6.2.3-6.1.3-2.6 7.2c-2.7 7.7-4.6 14.4-4.6 16.4 0 .9 1.8 1.3 5.8 1.3 5.1 0 6.2-.4 8.4-2.8 2.5-2.6 6-9.9 8-17l.9-3.2h7.4c6.1 0 7.5.3 7.5 1.6 0 1.6-5.6 21.1-9.4 32.4l-2.1 6.5h-65l.3-3.2c.1-1.8 1-5.6 2-8.5 1.6-5.1 1.8-5.3 5.7-5.6 2.2-.2 4.8-1.1 5.8-1.9 2.7-2.5 7.9-19.8 8.5-28.3.3-4.8 1.1-8.4 2.2-10 2.1-3.1 5.2-11.7 7-19.4 1.2-5 1.2-6.2-.1-8.5a5.7 5.7 0 0 0-4.2-2.9c-1.5-.2-2.7-.5-2.7-.6 0-.2.4-1.6.9-3.2s1.7-5.5 2.6-8.7l1.6-5.7h66.2zm73.6-2c-.1.8-1.6 6.2-3.3 12-1.6 5.9-3.7 13.4-4.5 16.7s-2 7.7-2.5 9.7l-1 3.8H609c-3.8 0-7.2-.5-7.5-1-.4-.6-.2-2.5.4-4.3.6-1.7 1.7-6 2.5-9.4 1.3-5.8 1.3-6.5-.3-8.4-1.5-1.9-1.8-1.9-3-.6-2.3 2.8-7.4 23.8-6.8 28.3.4 3.5-.1 5-2.4 8.6-2.9 4.2-4.4 8.6-8 22.2-2.1 8.2-1.4 10.6 3.1 10.6 1.8 0 3 .5 3 1.3 0 2.3-4.3 14.2-5.4 14.9-.6.4-9.5.8-19.8.8-21.5 0-20 .9-16.9-10 1.7-6.2 2-6.5 5.2-7.1 6.4-1 7.2-2.3 11.9-18.4 2.3-8.1 3-12.1 2.5-15.1-.5-3.3-.2-4.4 1.5-5.9 2.8-2.5 4.3-6.2 7.4-18.1 3.2-11.9 3.2-12.6.4-12.2-2.9.4-5.2 5-7.4 14.8-.9 4.1-2.2 7.8-2.8 8.2-1.6 1.1-13.4 1-14.1-.1-.8-1.4 8.9-38.7 11-42.1.4-.7 12.1-.9 32.3-.8 25.7.3 31.6.6 31.4 1.6"/><path d="M661.7 566.1c-5.8 4.4-10.7 17.4-10.7 28.4 0 3-.5 5.7-1 6-3.5 2.2-8.9 19-9 27.7 0 7.3 7.1 10.1 13 5.2 6.2-5.3 12.5-21.6 11.9-30.6-.3-3.3.3-5.4 2.3-8.8 5.6-9.3 7.6-24.2 3.8-28-2.6-2.6-6.7-2.5-10.3.1m-492.1 8.7c-1.6 5.9-3.1 11.3-3.4 11.9-.3 1 1.2 1.3 5.3 1.3 5.3 0 6-.3 9.5-3.8 3.4-3.4 6-9.1 6-13.3 0-.9-.9-2.8-2.1-4.3-1.7-2.2-2.8-2.6-7.2-2.6h-5.2zm-10.9 37.9c-4.4 14-5.8 19.4-5.1 20.4.4.7 2.6 1 6 .7 6.7-.6 9.6-3 12.4-10.5 2.4-6.5 2.5-10.1.4-13.1-1.2-1.8-2.5-2.2-6.9-2.2h-5.3zm95.7-33.5c-4.2 7.9-10.4 21-10.4 21.9 0 .5 2.7.9 5.9.9h5.9l.6-8.8c.4-4.8.8-10.4 1-12.4.5-5-.9-5.7-3-1.6m90.7-11.5c-.6 2.1-2.2 7.4-3.5 11.7-1.4 4.4-2.3 8.3-2 8.8.3.4 2.7.8 5.4.8 3.8 0 5.5-.6 8-2.7 6-5 9.1-17.1 5.4-20.7-1-1.1-3.4-1.6-6.9-1.6-5.4 0-5.4 0-6.4 3.7m82.6 6c-4.6 16.9-4.7 15.3 1.3 15.3 6.3 0 8.4-1 11.4-5.8 7.3-11.6 5.4-19.2-4.8-19.2h-5.3zm382.5-60.6c-2.3.4-4.7 1.1-5.2 1.4-1.5.9-1.2 3.5.4 3.5.7 0 7 .1 14 .3l12.6.3V512l-8.7.1c-4.9.1-10.7.5-13.1 1m9.3 9c-9.6 1-15.5 3-15.5 5.3 0 .8.4 1.7.8 2 .4.2 6.7-.1 14-.7l13.2-1.1v-3.3c0-2.5-.4-3.3-1.7-3.2-1 .1-5.8.6-10.8 1m2.7 11c-8.6 1.1-19.2 4.7-19.2 6.5s1.9 1.8 16.8-.3l12.2-1.6v-2.9c0-3.1.3-3-9.8-1.7M14 665.7c-4.1.8-9 1.6-10.7 1.9-2.9.4-3.3.9-3.3 3.4 0 1.7.4 3 .8 3 2.2 0 13.3-2.3 18-3.7 4.4-1.3 5.2-2 5.2-3.9 0-2.7.3-2.7-10-.7m-4.5 12c-8.7.6-9.5.9-9.5 4.7v3.3l4.8-.8c15.1-2.7 19.2-4 19.2-6s-1-2.1-14.5-1.2m-3.2 11-6.3.4v3.4c0 3.4.1 3.5 3.8 3.5 2 0 7.3-.9 11.7-1.8 6.8-1.6 8-2.1 8.3-4 .4-2.4-.3-2.4-17.5-1.5m126.7 4.8c-5.2.7-9.6 1.4-9.7 1.4-.2.1 2 2.3 4.8 5 5 4.8 5.2 5.1 4.7 9.5l-.5 4.5 11.1 7.4c14.2 9.5 33.9 21.2 44.1 26.5 53.7 27.6 108.9 43.4 168.5 48.3 17.3 1.5 54.8 1.4 69.6-.1 26.9-2.7 63.9-10.3 87.9-18 14.1-4.6 48.1-18.3 59.9-24.2 19.8-9.9 57-32.4 59-35.7.3-.5-1.3-2-3.6-3.4-2.4-1.4-6.1-4.4-8.3-6.6-4.5-4.7-5.8-5-7.3-1.7-.6 1.3-3 3.3-5.4 4.4-4.1 2-4.9 2.1-14.3 1-6.7-.8-30.6-1.2-71.5-1.2-62.2 0-74.6.4-165 5.4-20.1 1.1-41.7 2.3-48 2.6l-11.5.6-10.4-4.1c-11.6-4.6-15.2-6.8-19.6-11.8-3-3.3-3.1-3.3-6.2-1.8-3.5 1.7-9.5 1.1-24.8-2.5-19.6-4.7-34.8-6.2-65-6.5-20.5-.3-31.8 0-38.5 1m238.2 38.9c1 .6 2.3 2.9 2.9 5 1.3 4.6.2 5.8-5.1 5.4-3-.3-3.5-.7-3.8-3.1-.4-3.7-3.6-3.3-4 .5-.3 2.2.6 3.3 5.2 6.7 8.3 6.2 10.2 11.2 7.1 18.6-1.6 4-4.6 5.5-11.1 5.5-6.2 0-10.4-4-10.4-9.9V757h4.5c4.3 0 4.5.1 4.5 2.9 0 3.1 2.2 5.7 4 4.6 2.1-1.3.4-9.5-2-9.5-.6 0-2.6-1-4.5-2.3-5.7-3.7-8.1-11.1-5.4-17.1 2.3-4.9 12.5-6.7 18.1-3.2m-78.7 8.3c1 13.5 1.9 15.4 3.4 7.2.6-3.6 1.1-8 1.1-9.8 0-5.3 1.5-7.1 6-7.1s4.5.1 5.5 11.2c1.2 13.9 2 14.3 3.4 1.8.7-6.3 1.6-11.9 2-12.3.5-.5 2.4-.7 4.2-.5l3.4.3-.3 5c-.2 2.7-1.2 10.9-2.2 18.2-1.1 7.2-2 13.6-2 14.2 0 .7-2.2 1.1-5.4 1.1-6.2 0-6 .2-7.1-9.5-.8-7.6-1.6-10.8-2.4-10-.3.4-1.3 4.8-2.1 9.8l-1.5 9.2-4 .5c-7.3 1-7 1.7-9.8-18.8-1.4-10.2-2.3-19-2.1-19.4.3-.4 2.5-.8 4.8-.8h4.4zm53.5-6.3c0 3.4-.1 3.5-4.2 3.8-3.6.3-4.2.6-4.4 2.8-.4 4.6.5 5.9 4.4 6.2 3.4.3 3.7.6 4 3.5.3 3.1.2 3.2-4 3.5l-4.3.3v9l4.3.3c4.2.3 4.3.4 4 3.5-.3 3-.6 3.2-4.8 3.5-2.5.2-6.4.1-8.7-.3l-4.3-.6V731h18zm55.8-.2c-.2 2.7-.8 3.4-3 3.6l-2.7.3-.3 15.7-.3 15.7-4.7.3-4.7.3-.3-15.8-.3-15.8-2.5-.4c-3.1-.4-3.8-1.5-3.2-4.7.4-2.4.6-2.4 11.4-2.4h10.9zm24.2.2c0 3.4-.1 3.5-4.2 3.8-4.3.3-4.3.3-4.3 4.3s0 4 4.3 4.3c4.2.3 4.3.4 4 3.5-.3 2.9-.7 3.2-4.3 3.7l-4 .5v4.5c0 4.4 0 4.5 3.5 4.7 1.9.1 4.1.2 4.8.2 1.8.1 1.4 4.9-.5 6-1 .5-2.9.8-4.3.6-1.4-.1-4.9-.3-7.7-.4l-5.3-.1v-39h18zm26.4-1.3c2.3 1.8 2.6 2.8 2.6 7.9 0 4.1-.5 6.4-1.6 7.5-1.5 1.5-1.5 1.7 0 3.4 1.2 1.3 1.6 3.8 1.6 9.9v8.2h-7.9l-.3-7.8c-.3-6.9-.5-7.7-2.3-7.7s-2 .8-2.3 7.7l-.3 7.8H433v-39h8.4c6.9 0 8.8.4 11 2.1m20-.9c.3.7 1.4 4.6 2.5 8.5 1.2 4 2.6 7.3 3.1 7.3.6 0 1-3.7 1-8.6v-8.5l3.8.3 3.7.3.3 19.2.2 19.3h-9.6l-2.4-7.6c-1.3-4.1-2.8-7.7-3.2-8s-.8 3.1-.8 7.6v8.1l-3.7-.3-3.8-.3-.2-17.9c0-9.9.1-18.5.4-19.3.7-1.7 8.2-1.8 8.7-.1"/><path d="M442.7 741.7c-.7 4.1.3 5.9 2.8 4.9 2.2-.8 1.7-8-.6-8.4-1.2-.2-1.8.7-2.2 3.5M0 702.6v3.7l10.3-.6c11.5-.6 13.7-1.2 13.7-3.7 0-2.4-2.7-3-14.2-3H0zm0 23.8c0 10.2.3 18.6.6 18.6s2.6-1.8 5.1-4 5-4 5.5-4c.9 0 .7 3.8-.8 14.2l-.6 3.8H14c2.9 0 5.4-.8 8.3-2.9 2.3-1.5 6.6-4 9.4-5.5 2.9-1.4 5.3-3.1 5.3-3.7s-1.1-2.5-2.4-4.2c-4-5.2-8.6-16-9.3-21.6-.3-2.8-1.1-5.5-1.7-6s-5.1-1.1-10.1-1.4-10-.8-11.2-1.2l-2.3-.7z"/></svg>